<svg width="269" height="200" fill="none" xmlns="http://www.w3.org/2000/svg"><path d="M85.756 67.06a3.788 3.788 0 0 0 2.39.85c1.31 0 2.564-.686 3.355-1.84.655-.966.934-2.14.784-3.312-.155-1.175-.718-2.205-1.59-2.905a3.708 3.708 0 0 0-1.213-.66A3.63 3.63 0 0 0 88.307 59c-1.311 0-2.565.691-3.353 1.849-1.357 1.981-.994 4.767.805 6.21M220.587 79.08c.366.288.771.511 1.194.647l.023.012c.382.124.773.19 1.173.19 1.313 0 2.564-.688 3.352-1.842.658-.96.937-2.138.785-3.312-.153-1.175-.713-2.205-1.587-2.902a3.803 3.803 0 0 0-1.214-.662 3.646 3.646 0 0 0-1.181-.191c-1.311 0-2.565.688-3.352 1.845-1.357 1.985-.998 4.77.802 6.217m-31.03 53.026c-2.855-.544-3.493-1.175-3.493-2.451 0-1.348 1.006-2.34 3.154-2.34 2.147 0 3.185 1.14 3.185 2.821h1.722c0-2.807-1.891-4.516-4.913-4.516-3.022 0-4.867 1.626-4.867 4.108 0 2.482 1.762 3.523 4.867 4.105 3.059.538 3.568 1.365 3.568 2.571 0 1.646-1.159 2.708-3.548 2.708-2.11 0-3.547-1.232-3.547-3.188h-1.754c0 2.933 2.098 4.872 5.301 4.872 3.203 0 5.25-1.51 5.25-4.392 0-2.881-1.869-3.662-4.922-4.296m-20.021-6.121h-1.702v14.56h1.702v-14.56Zm-69.059 7.102h-4.129v-5.381h4.129c1.621 0 2.788.773 2.788 2.688s-1.167 2.693-2.788 2.693Zm0-7.099h-5.842v14.56h1.71v-5.754h4.129c2.866 0 4.465-1.843 4.465-4.4 0-2.557-1.599-4.409-4.465-4.409" fill="#fff"/><path d="M195.735 101.71c-1.558 3.491-4.513 5.748-7.526 5.748a5.538 5.538 0 0 1-2.346-.524c-1.257-.497-2.214-1.484-2.76-2.855-.845-2.132-.532-5.13.888-8.436 1.466-3.41 4.436-7.055 8.375-7.055.765 0 1.495.145 2.142.425 1.187.602 1.961 1.634 2.504 3.353.704 2.242.178 6.084-1.277 9.341m-32.521.003c-1.558 3.486-4.511 5.745-7.527 5.745-.81 0-1.595-.177-2.346-.524-1.256-.497-2.213-1.484-2.757-2.855-.831-2.094-.486-5.117.975-8.514 1.486-3.471 4.741-6.977 8.081-6.977h.193c.877.038 1.57.174 2.159.425 1.185.602 1.958 1.635 2.498 3.353.708 2.242.182 6.08-1.276 9.344m-59.218 0c-1.559 3.486-4.517 5.745-7.53 5.745a5.56 5.56 0 0 1-2.346-.524c-1.26-.497-2.21-1.484-2.757-2.855-.83-2.091-.486-5.114.975-8.513 1.489-3.472 4.74-6.978 8.084-6.978h.19c.877.038 1.567.174 2.156.425 1.187.602 1.955 1.635 2.501 3.353.705 2.245.181 6.084-1.273 9.344m-43.984 26.157c-.05.066-4.595 6.61-9.482 6.616-1.8 0-3.237-.767-4.048-2.161-1.101-1.886-.88-4.707.607-7.75 5.238-10.704 17.781-14.34 21.907-15.54.046-.015.086-.024.13-.038-.961 2.821-4.37 12.268-9.112 18.873m165.362-26.713-.365.466c-2.401 3.096-5.554 5.427-7.34 5.427-.261 0-.488-.052-.672-.159-.932-.529-1.237-1.247-.34-3.688.377-.865 6.831-19.538 6.894-19.727l.202-.555h-6.544l-.097.272c-.055.177-6.115 17.594-7.208 19.489l-.144.243c-.08.127-.155.26-.218.376a.119.119 0 0 0-.026.041c-2.378 2.91-4.89 3.948-6.449 3.948-.092 0-.181-.006-.27-.014-.48-.041-.793-.11-1.098-.356-.929-.77-.929-1.675.003-4.195.374-.867 10.939-30.733 11.04-31.016l.247-.706h-6.538l-5.459 15.575c-.621-1.06-1.533-1.982-2.766-2.8-1.567-1.045-3.47-1.595-5.508-1.595-5.707 0-11.184 4.068-13.953 10.365-1.589 3.616-2.288 6.553-2.208 9.226.009.355.029.697.061 1.029-2.251 2.676-4.801 4.473-6.368 4.473-.446 0-.831-.13-1.139-.379-.96-.796-.825-1.742.066-4.172.386-.888 6.719-18.913 6.78-19.087l.255-.714h-6.451l-1.291 3.656c-.618-1.058-1.526-1.978-2.768-2.803-1.561-1.044-3.468-1.594-5.509-1.594-5.709 0-11.186 4.068-13.949 10.365-1.078 2.456-1.745 4.614-2.038 6.59-1.389 1.279-3.37 3.041-5.037 4.313-1.881 1.435-5.658 3.848-9.798 3.848-.96 0-1.892-.139-2.766-.402-1.193-.362-2.076-1.152-2.616-2.355-.969-2.149-.736-5.415.624-8.74 1.748-4.263 5.065-7.066 8.444-7.142h.12c3.128 0 4.64 2.795 4.678 4.693v.02c.003.413.037.413 1.828.413h2.671c1.137.002 1.737-.081 1.8-.251l.103-.255-.074-.075c-.075-3.471-2.576-7.747-5.486-9.373-1.808-1.01-3.671-1.521-5.551-1.521-5.678 0-10.997 3.943-13.881 10.295-1.604 3.535-2.297 7.108-2.009 10.348-2.246 2.627-4.686 4.322-6.236 4.322-.449 0-.831-.13-1.133-.379-.966-.796-.828-1.742.066-4.172.302-.697 4.278-11.979 6.621-18.641l.412-1.16h-6.452l-1.288 3.656c-.621-1.058-1.529-1.984-2.766-2.803-1.569-1.044-3.475-1.594-5.508-1.594-5.713 0-11.186 4.068-13.952 10.365-1.245 2.841-1.944 5.25-2.15 7.452l-.317.041c-1.99.139-4.864.471-6.198.659.118-.335.305-.879.572-1.669 1.058-3.08 3.021-8.817 4.657-13.422l5.224-14.702h-6.287l-19.53 15.055 3.66 5.14 11.77-9.115-6.92 19.891c-7.044 1.492-13.5 4.093-18.673 7.541-5.158 3.431-9.085 7.721-11.362 12.402-2.248 4.62-2.59 9.202-.963 12.896 1.783 4.05 5.106 6.289 9.36 6.289 3.367 0 7.053-1.484 10.118-4.07 5.684-4.791 11.22-14.979 16.02-29.466.057-.177.106-.333.151-.455 1.878-.358 4.408-.697 6.65-.983.023-.003.04-.012.06-.015.21-.023.282-.228.48-.752.225-.584.639-1.759 1.464-4.084-.003.202-.003.402.003.596.167 6.474 4.111 9.951 6.417 10.978a12.264 12.264 0 0 0 5.069 1.096c3.165 0 6.336-1.258 8.552-3.382.437.657 1.392 1.794 3.117 2.575a6.78 6.78 0 0 0 2.849.605c2.746 0 5.899-1.548 8.697-4.256 1.089 1.554 2.53 2.754 4.18 3.475 1.483.648 3.162.977 4.997.977 4.818 0 9.165-2.204 10.809-3.153 1.823-1.05 3.784-2.433 5.549-3.922 1.311 3.208 3.628 5.192 5.408 5.982a12.24 12.24 0 0 0 5.066 1.096c3.165 0 6.336-1.258 8.553-3.381.434.656 1.391 1.793 3.113 2.574.877.402 1.84.605 2.852.605 2.815 0 6.026-1.606 8.866-4.42 1.11 1.573 2.614 2.878 4.066 3.526a12.26 12.26 0 0 0 5.068 1.096c3.163 0 6.337-1.258 8.556-3.376.135.203.319.449.558.715.793.96 1.67 1.655 2.602 2.068.83.368 1.808.561 2.99.593h.201c2.676 0 5.718-1.232 8.377-3.393.771 1.096 2.28 2.754 4.543 3.173a9.26 9.26 0 0 0 1.644.151c3.896 0 7.728-2.488 11.716-7.6l.273-.355-4.126-4.664.003-.003Z" fill="#fff"/><path d="M148.626 133.082h-4.499v-5.372h4.444c1.743 0 2.783.854 2.783 2.688 0 1.71-1.152 2.684-2.725 2.684m4.436-2.684c0-2.604-1.642-4.409-4.491-4.409h-6.152v14.56h1.708v-5.754h4.467c2.099 0 2.355 1.253 2.355 2.196v3.558h1.67v-3.558c0-1.45-.497-2.477-1.449-3.041 1.193-.758 1.892-1.99 1.892-3.555m-32.841 4.261 2.269-6.5 2.237 6.5h-4.506Zm1.349-8.667-5.253 14.56h1.826l1.506-4.218h5.624l1.466 4.218h1.895l-5.147-14.56h-1.917Z" fill="#fff"/></svg>