<svg width="269" height="200" fill="none" xmlns="http://www.w3.org/2000/svg"><g clip-path="url(#a)" fill="#fff"><path d="M1.723 133.851C.98 133.012.452 130.187.5 127.669c.235-.401.932-.448 1.253-.149.744 2.07 2.967 6.415 6.989 6.415 3.117 0 4.879-1.874 4.879-4.345 0-2.322-1.102-4.196-4.182-5.893l-1.771-.988c-3.08-1.707-5.793-4.187-5.793-7.86 0-4.028 3.052-7.441 9.042-7.441 2.12 0 3.693.485 5.623.858.453.886.858 3.562.858 5.492-.217.354-.952.401-1.31.121-.612-2.135-2.072-4.849-5.547-4.849-3.278 0-4.634 2.126-4.634 4.28 0 1.697 1.186 3.525 3.908 4.951l2.534 1.333c2.675 1.39 5.623 3.917 5.623 8.038 0 4.624-3.55 7.906-9.522 7.906-3.777 0-5.906-1.221-6.726-1.706m39.203-18.704c0-2.984-.037-3.356-1.507-3.524l-.82-.075c-.225-.224-.225-.727.038-.886 1.979-.186 4.635-.27 7.215-.27 2.45 0 4.578.308 5.963 1.054 1.6.839 2.75 2.293 2.75 4.54 0 2.872-2.214 4.289-3.758 4.905-.189.093-.113.326 0 .522 2.515 4.205 4.078 6.844 5.548 8.047.885.736 1.79.932 2.175.951.151.139.151.475.057.634-.367.084-.96.177-2.063.177-3.005 0-4.643-1.212-6.565-4.093-.848-1.297-1.733-3.021-2.477-4.215-.565-.932-.914-1.054-1.96-1.054-.932 0-.96.028-.96.69v3.963c0 3.31.273 3.394 1.752 3.571l.678.093c.226.215.18.784-.056.896-1.376-.038-2.788-.094-4.154-.094s-2.807.056-4.239.094c-.245-.112-.339-.681-.066-.896l.688-.093c1.47-.186 1.761-.261 1.761-3.571v-11.366Zm3.655 4.476c0 1.007 0 1.053 1.498 1.053 3.08 0 4.492-1.501 4.492-4.447 0-2.452-1.6-4.606-4.342-4.606-1.63 0-1.658.102-1.658 1.538v6.462h.01Zm37.702 10.228c0 1.296.189 2.266.895 2.592.113.149.113.457-.028.56-.414 0-1.093.102-1.799.298-2.317.522-5.115.988-7.253.988-4.464 0-8.684-1.174-11.472-4.065-2.213-2.247-3.287-5.361-3.287-8.447 0-3.087 1.074-6.285 3.428-8.7 2.647-2.76 6.716-4.354 11.897-4.354 1.77 0 3.663.298 4.963.559.867.196 1.95.317 2.402.317.028 1.119.283 2.993.471 5.893-.179.364-.998.392-1.177.075-.83-3.59-3.466-5.362-7.187-5.362-6.546 0-9.73 4.69-9.73 10.966 0 2.965.669 6.144 2.694 8.503 2.006 2.378 5.011 3.142 7.187 3.142 1.799 0 2.891-.289 3.334-.839.236-.336.349-.998.349-2.322v-1.342c0-2.62-.047-2.835-2.553-3.245l-1.337-.224c-.255-.252-.255-.876.028-1.063 1.45.066 3.25.103 5.82.103 1.696 0 2.968-.037 4.55-.103.377.187.415.821.085 1.063l-.669.112c-1.385.187-1.601.522-1.601 2.779v2.135l-.01-.019Zm40.474-3.384c0 .941 0 4.755.085 5.482-.254.336-.688.448-1.074.42-.508-.644-1.403-1.716-3.673-4.243l-7.338-8.307c-2.062-2.275-3.051-3.45-3.588-3.926-.085 0-.085.354-.085 2.005v6.051c0 2.34.028 5.184.556 6.126.282.466.81.653 1.61.774l.679.093c.292.224.254.821-.048.914a76.617 76.617 0 0 0-3.579-.093c-1.328 0-2.166.037-3.278.093-.235-.149-.301-.69-.056-.914l.687-.149c.603-.093 1.168-.215 1.376-.718.414-.97.414-3.664.414-6.126v-7.357c0-2.433.019-2.918-1.036-3.841-.339-.27-1.224-.513-1.658-.615l-.471-.075c-.226-.205-.188-.821.123-.904 1.177.111 2.92.093 3.701.093.65 0 1.404-.028 2.157-.093.547 1.314 3.966 5.23 5.058 6.424l3.137 3.356c1.319 1.436 4.229 4.709 4.54 4.914.103-.102.103-.233.103-.736v-6.08c0-2.312-.037-5.193-.593-6.107-.292-.475-.782-.662-1.564-.783l-.734-.075c-.273-.233-.245-.82.085-.904a77.11 77.11 0 0 0 3.598.093c1.347 0 2.175-.028 3.296-.093.255.14.311.671.057.904l-.707.14c-.593.084-1.13.215-1.347.718-.442.97-.442 3.674-.442 6.107v7.432h.009Zm12.169-11.916c0-1.185-.028-1.241-.772-1.241h-1.602c-2.628 0-3.409.308-4.464 2.611-.198.159-.82.075-.933-.205.481-1.538.933-3.301 1.131-4.289.056-.084.169-.103.301-.103.113 0 .235.019.301.103.142.718.537.755 2.487.755h11.708c1.413 0 1.836-.102 2.176-.755.122-.047.235-.103.348-.103.179 0 .311.056.367.131-.273 1.175-.499 3.608-.423 4.522-.142.224-.622.289-.886.084-.367-2.219-.904-2.751-3.993-2.751h-1.63c-.735 0-.763.056-.763 1.241v12.27c0 3.002.254 3.095 1.611 3.235l1.017.112c.207.196.179.7-.047.821-1.658-.047-2.958-.084-4.22-.084-1.262 0-2.599.037-4.446.084-.226-.121-.263-.681-.056-.821l1.206-.14c1.346-.112 1.601-.205 1.601-3.207v-12.27h-.019Zm57.25 18.778c.386.158.348.97-.085 1.128a94.897 94.897 0 0 0-4.804-.121c-1.837 0-3.57.037-5.293.121-.311-.168-.481-.895-.095-1.128l1.055-.196c1.602-.233 1.705-.531 1.705-3.189V114h-.066c-1.092 2.135-1.639 3.31-2.373 4.858l-3.382 6.853c-1.309 2.723-3.278 7.067-3.993 8.886-.161.149-.754.149-1.027 0-.659-2.098-2.355-5.912-3.268-7.86l-3.495-7.478c-.753-1.641-1.818-4.084-2.27-5.259h-.085c-.075 1.911-.16 4.942-.235 6.583a305.421 305.421 0 0 0-.151 9.035c0 2.582.038 3.198 1.724 3.459l1.3.242c.273.233.273.97-.038 1.128a68.771 68.771 0 0 0-4.135-.121c-1.253 0-2.675.038-4.22.121-.339-.205-.339-.932-.113-1.128l.678-.074c1.894-.233 2.214-.811 2.44-3.208.292-2.433.386-4.969.584-9.035.16-2.638.405-5.865.405-8.261 0-1.827-.593-2.629-2.129-2.89l-1.328-.224c-.245-.261-.198-1.007.151-1.119 1.177.084 2.242.121 3.692.121 1.375 0 2.76 0 4.21-.121.151 2.34 1.187 4.364 2.167 6.462l4.314 9.007c.311.662 1.347 2.61 1.884 3.505a62.403 62.403 0 0 0 2.015-4.065l3.692-7.487c1.253-2.555 2.525-4.858 3.193-7.431a45.93 45.93 0 0 0 3.241.121c1.639 0 3.051-.037 4.153-.121.434.158.518.886.113 1.119l-1.299.195c-1.734.252-2.12.886-2.12 2.956 0 5.772.066 11.534.339 17.306.123 2.61.537 2.881 1.818 3.03l1.149.196-.018.009Zm26.493-5.818c0 2.452-.122 4.606-.687 5.995-.989 2.452-3.297 4.513-6.867 4.513-.744 0-1.667-.186-1.667-1.035 0-.587.528-1.855 1.441-1.855.443 0 .914.27 1.404.587.81.494 1.092.559 1.375.559.744 0 1.008-1.799 1.074-2.442.066-.532.282-2.788.282-6.089v-11.944c0-3.329-.282-3.422-1.761-3.608l-.942-.103c-.217-.177-.188-.793.075-.904 1.639.055 3.033.093 4.465.093a70.13 70.13 0 0 0 3.871-.093c.254.111.283.736.057.904l-.452.056c-1.394.242-1.677.336-1.677 3.664v11.721l.009-.019Zm22.1-4.672c0 4.942-3.795 8.634-8.891 8.634-5.727 0-9.024-4-9.024-8.456 0-5.119 3.749-8.914 9.071-8.914 5.84 0 8.835 4.158 8.835 8.746m-14.477-.56c0 3.46 1.469 8.178 5.83 8.178 2.873 0 5.209-2.126 5.209-7.171 0-3.785-1.714-8.186-5.755-8.186-2.543 0-5.284 1.827-5.284 7.179Zm18.018-6.834c-.292-3.637-.367-4.093-2.166-4.131l-1.055-.028c-.283-.251-.339-.848-.048-1.053 2.44-.438 5.661-.811 8.77-1.073 2.985-.251 5.623-.102 7.365.672 2.044.858 3.627 2.536 3.853 5.249.282 3.497-2.28 5.455-4.107 6.369-.217.121-.113.419.056.643 3.495 4.858 5.708 7.897 7.602 9.231 1.13.829 2.279.969 2.74.969.198.131.236.55.142.746-.452.14-1.178.317-2.506.429-3.664.308-5.802-1.007-8.43-4.326-1.139-1.492-2.402-3.478-3.447-4.886-.763-1.091-1.196-1.193-2.477-1.1-1.159.093-1.196.13-1.121.942l.414 4.839c.349 4.009.697 4.102 2.515 4.168l.848.065c.282.224.292.923.009 1.091-1.686.056-3.419.168-5.076.298-1.677.14-3.401.308-5.143.541-.311-.131-.471-.802-.16-1.082l.828-.186c1.752-.382 2.092-.522 1.752-4.541l-1.158-13.827v-.019Zm4.87 5.081c.103 1.203.113 1.269 1.959 1.119 3.758-.307 5.303-2.256 5.001-5.855-.245-3.002-2.421-5.427-5.745-5.166-1.988.159-2.007.28-1.875 2.024l.66 7.878Zm-213.652.187H24.782c-.584.019-.65.345-.64.513.075 2.405.725 4.289 1.95 5.678 1.309 1.501 2.854 2.247 4.624 2.247 1.187 0 2.195-.307 3.09-.942.829-.606 1.544-1.659 2.119-3.132.358-.056.584.093.64.401-.291 1.734-1.092 3.319-2.364 4.708-1.328 1.473-2.976 2.201-4.973 2.201-2.157 0-4.012-.83-5.557-2.509-1.545-1.659-2.308-3.906-2.308-6.731 0-3.049.791-5.418 2.374-7.124 1.573-1.706 3.55-2.555 5.953-2.555 2.006 0 3.664.653 4.963 1.958 1.046 1.054 1.668 2.406 1.875 4.028.047.392.085.504-.019.877-.104.373-.98.363-.98.363m-11.293-1.902c-.038.215-.047.681.415.681h5.058c2.797-.056 2.74-.438 2.684-1.212a3.083 3.083 0 0 0-.292-1.119 3.823 3.823 0 0 0-1.47-1.697c-.65-.42-1.328-.625-2.034-.625-1.111 0-2.091.42-2.939 1.24-.716.7-1.196 1.567-1.413 2.732m76.493.662h-9.919c-.546.019-.612.317-.612.476.076 2.209.678 3.962 1.818 5.24 1.215 1.38 2.628 2.079 4.267 2.079 1.102 0 2.025-.298 2.844-.876.763-.56 1.432-1.53 1.969-2.882.33-.055.537.084.593.355-.273 1.613-1.007 3.058-2.185 4.363-1.215 1.343-2.74 2.014-4.596 2.014-1.978 0-3.702-.764-5.124-2.293-1.432-1.548-2.129-3.618-2.129-6.229 0-2.806.735-4.997 2.185-6.573 1.45-1.585 3.287-2.378 5.51-2.378 1.856 0 3.372.616 4.569 1.818.97.979 1.554 2.22 1.742 3.73.047.364.085.466-.019.802-.094.354-.904.345-.904.345m-10.436-1.753c-.038.196-.047.625.386.625h4.672c2.58-.056 2.524-.401 2.477-1.138-.028-.475-.16-.764-.273-1.016a3.491 3.491 0 0 0-1.356-1.576c-.603-.382-1.234-.578-1.884-.578-1.017 0-1.922.382-2.713 1.156-.66.634-1.102 1.427-1.31 2.518"/><path d="M204.608 127.986c0-.103-.066-.168-.132-.168-.056 0-.094.019-.207.093-1.799 1.334-2.91 2.126-3.381 2.35a5.663 5.663 0 0 1-2.393.522c-1.309 0-2.392-.457-3.259-1.352-.847-.895-1.271-2.07-1.271-3.534 0-.932.207-1.715.631-2.396.565-.923 1.554-1.818 2.957-2.657 1.253-.746 3.288-1.641 6.047-2.667.349-.121.669-.224.839-.485.15-.27.169-.615.169-.615 0-1.874-.311-3.17-.942-3.87-.602-.717-1.469-1.072-2.609-1.072-.866 0-1.563.224-2.072.709-.508.466-.772 1.016-.772 1.613l.047 1.203c0 .643-.16 1.137-.49 1.473a1.733 1.733 0 0 1-1.29.531c-.528 0-.961-.186-1.281-.55-.321-.354-.499-.839-.499-1.464 0-1.184.612-2.256 1.836-3.263 1.206-.998 2.92-1.492 5.124-1.492 1.667 0 3.108.299 4.182.839.81.429 1.413 1.091 1.79 2.005.235.606.367 1.799.367 3.636v6.415c0 1.79.038 2.891.104 3.32.066.391.188.671.348.811.17.13.358.196.565.196.226 0 .405-.056.584-.14.226-.149.65-.494 1.206-1.054.226-.121.509.075.575.56a1.996 1.996 0 0 1-.104.139c-1.554 2.052-3.052 3.105-4.455 3.105-.678 0-1.215-.223-1.62-.69-.368-.419-.556-1.1-.603-2.042m-1.922-.438c.575-.373 1.912-1.827 1.912-3.935v-3.524c0-.858-.64-.625-.857-.55-.64.186-1.77.578-3.212 1.333-1.13.588-1.883 1.24-2.345 1.893-.48.671-.716 1.371-.716 2.163 0 .988.302 1.79.895 2.443.593.662 1.262.979 2.063.979.631 0 1.413-.261 2.27-.802m-39.06-65.455c0-.083-.075-.12-.16-.083-2.939 1.305-8.129 6.648-12.292 13.948 0 0-.019.047-.019.075 0 .046.019.084.057.112 1.441 1.11 1.177 1.063 2.298 2.219 0 0 .047.037.094.028.057 0 .076-.028.076-.028 3.89-3.46 7.497-4.802 9.014-9.128.028-.094-.057-.13-.057-.13l-2.411-1.138s-.076-.038-.066-.094c0-.065.103-.084.103-.084l2.807-.447s.104-.019.113-.103c.302-1.398.471-3.058.443-5.137M124.943 81.72c-2.308-1.846-4.992-2.834-12.264 5.203-.037.037-.066.019-.047-.037 3.071-7.105 6.914-10.06 8.449-9.893 1.3.14 2.845 2.396 3.881 4.7.009.027 0 .037-.019.027Zm26.09-4.429c-1.752-1.753-2.882-2.424-4.295-2.35-1.224.066-4.662 2.266-7.036 9.306-2.307 6.881-3.014 13.828-5.34 13.697h-.49c-2.326.13-3.042-6.816-5.341-13.697-2.373-7.04-5.811-9.24-7.026-9.305-1.413-.075-2.543.596-4.295 2.35-1.988 1.995-5.35 5.696-6.961 11.337-.028.15 0 .233.066.299 8.035 6.47 15.221 5.762 22.361 9.64.216.103.565.252.961.327.16.047.32.056.489.056.16 0 .33-.01.49-.056.386-.084.735-.233.951-.326 7.14-3.888 14.327-3.17 22.361-9.641.066-.066.094-.14.066-.299-1.601-5.65-4.973-9.352-6.961-11.338Z"/><path d="M132.6 93.87c.01.046.01.027.113.242 0 0 1.215 2.722 2.835 0 .038-.075.104-.205.113-.252 1.3-7.99 3.212-14.797 5.774-17.874.038-.056 0-.13-.038-.15-7.554-3.421-14.58 0-14.58 0-.047.02-.075.094-.038.15 2.572 3.077 4.521 9.883 5.821 17.874"/></g><defs><clipPath id="a"><path fill="#fff" transform="translate(.5)" d="M0 0h268v200H0z"/></clipPath></defs></svg>