<svg width="269" height="200" fill="none" xmlns="http://www.w3.org/2000/svg"><path d="M96.99 61.566H47.175v4.425h49.813v-4.425Zm-.004 39.821H8.504v4.425h88.482v-4.425Zm0-9.957H8.504v4.42h88.482v-4.42Zm.004-9.953H47.175v4.415h49.813v-4.415Zm0-9.933H47.175v4.425h49.813v-4.425ZM27.373 83.707a2.778 2.778 0 0 1-2.776 2.776c-1.53 0-2.796-1.242-2.796-2.776a2.786 2.786 0 0 1 2.796-2.781 2.763 2.763 0 0 1 2.776 2.78Zm0-9.953a2.783 2.783 0 0 1-2.776 2.786 2.8 2.8 0 0 1-2.796-2.786 2.779 2.779 0 0 1 2.796-2.776 2.765 2.765 0 0 1 2.776 2.776Zm0-9.978a2.782 2.782 0 0 1-2.776 2.782c-1.53 0-2.796-1.252-2.796-2.782A2.785 2.785 0 0 1 24.597 61a2.765 2.765 0 0 1 2.776 2.776Zm-13.32 19.931a2.768 2.768 0 0 1-2.777 2.776A2.768 2.768 0 0 1 8.5 83.707a2.776 2.776 0 0 1 2.776-2.781 2.77 2.77 0 0 1 2.777 2.78Zm0-9.953a2.774 2.774 0 0 1-2.777 2.786A2.774 2.774 0 0 1 8.5 73.754a2.768 2.768 0 0 1 2.776-2.776 2.771 2.771 0 0 1 2.777 2.776Zm0-9.978a2.772 2.772 0 0 1-2.777 2.782A2.772 2.772 0 0 1 8.5 63.776 2.771 2.771 0 0 1 11.276 61a2.771 2.771 0 0 1 2.777 2.776Zm26.506 19.931a2.779 2.779 0 0 1-2.782 2.776 2.779 2.779 0 1 1 0-5.558 2.777 2.777 0 0 1 2.782 2.782Zm0-9.953a2.784 2.784 0 0 1-2.782 2.786 2.784 2.784 0 0 1-2.78-2.786 2.776 2.776 0 0 1 2.78-2.776 2.779 2.779 0 0 1 2.782 2.776Zm0-9.978a2.783 2.783 0 0 1-2.782 2.782 2.786 2.786 0 0 1-2.78-2.782 2.782 2.782 0 0 1 5.562 0Zm78.613 22.091h6.655l4.619 13.042h.059l4.624-13.042h6.64v20.01h-4.41V90.526h-.06l-5.259 15.351h-3.352l-5.066-15.351h-.05v15.351h-4.4v-20.01Zm35.62 5.811-2.418 6.223h4.882l-2.464-6.223Zm-1.693-5.816h3.64l8.711 20.01h-4.981l-1.718-4.246h-7.773l-1.659 4.246h-4.862l8.642-20.01Zm-24.396-7.912c3.77 0 6.218-2.716 6.218-6.441 0-3.725-2.448-6.442-6.218-6.442-3.769 0-6.218 2.717-6.218 6.442s2.464 6.442 6.218 6.442Zm0-16.95c6.248 0 10.797 4.092 10.797 10.509 0 6.417-4.549 10.524-10.797 10.524-6.247 0-10.797-4.107-10.797-10.524 0-6.417 4.545-10.509 10.797-10.509Zm18.878 8.79h2.593c1.609 0 3.7-.059 3.7-2.234 0-2.012-1.808-2.325-3.417-2.325h-2.881v4.555l.005.005Zm-4.42-8.288h7.753c4.087 0 7.539 1.415 7.539 6.079 0 2.8-1.49 4.976-4.326 5.483l5.091 8.448h-5.285l-4.186-7.996h-2.171v7.996h-4.42v-20.01h.005Zm23.352 0h-4.415v20.01h4.415v-20.01Zm22.796 18.594c-2.602 1.36-5.453 1.937-8.388 1.937-6.248 0-10.792-4.107-10.792-10.524 0-6.417 4.549-10.509 10.792-10.509 3.164 0 5.955.705 7.971 2.573l-3.109 3.387c-1.192-1.252-2.632-1.892-4.862-1.892-3.76 0-6.228 2.716-6.228 6.441 0 3.725 2.468 6.442 6.228 6.442 1.922 0 3.333-.532 4.147-.994v-3.253h-3.586v-4.057h7.827v10.449Zm8.903-18.594h-4.415v20.01h4.415v-20.01Zm4.679 0h5.994l8.518 13.9h.049v-13.9h4.415v20.01h-5.766l-8.741-14.25h-.054v14.25h-4.415v-20.01Zm31.993 5.815-2.423 6.228h4.892l-2.469-6.228Zm-1.693-5.815h3.645l8.696 20.01h-4.966l-1.724-4.232h-7.777l-1.664 4.232h-4.862l8.652-20.01Zm15.2 0h4.4v15.947h8.18v4.063h-12.58v-20.01Zm-75.854 32.639h2.593c1.619 0 3.704-.05 3.704-2.23 0-1.996-1.807-2.314-3.416-2.314h-2.886v4.55l.005-.006Zm-4.4-8.274h7.742c4.108 0 7.54 1.4 7.54 6.074 0 2.796-1.5 4.972-4.311 5.483l5.08 8.453h-5.279l-4.187-8h-2.185v8h-4.4v-20.01Zm23.334 0h-4.401v20.01h4.401v-20.01Zm4.693 0h5.995l8.502 13.906h.04V85.867h4.425v20.01h-5.766l-8.726-14.249h-.06v14.249h-4.41v-20.01Zm23.883 0h13.588v4.068h-9.193v3.725h8.677v4.072h-8.677v4.068h9.7v4.077h-14.095v-20.01Zm28.198 4.883c-.706-.9-2.121-1.332-3.199-1.332-1.246 0-2.965.566-2.965 2.076 0 3.63 9.198 1.296 9.198 8.3 0 4.464-3.581 6.58-7.703 6.58-2.568 0-4.827-.755-6.724-2.503l3.138-3.452a4.927 4.927 0 0 0 3.839 1.892c1.461 0 3.05-.68 3.05-2.101 0-3.66-9.382-1.688-9.382-8.353 0-4.272 3.7-6.506 7.639-6.506 2.254 0 4.415.6 6.118 2.095l-3.009 3.303Zm3.11 43.471h1.609v-4.714c0-2.215.909-3.72 2.995-3.72 1.504 0 2.215 1.004 2.215 2.628v5.806h1.614v-5.98c0-2.329-1.138-3.943-3.675-3.943-1.59 0-2.792.893-3.229 1.842h-.044c0-.541-.04-1.073-.04-1.594h-1.525c0 .641.085 1.395.085 2.289v7.381l-.005.005Zm-22.399-4.838c0-2.021 1.391-3.596 3.412-3.596s3.447 1.466 3.447 3.556c0 1.848-1.232 3.512-3.447 3.512-1.882 0-3.412-1.51-3.412-3.472Zm8.468-4.837h-1.609v1.644h-.035c-.641-1.267-2.121-1.892-3.412-1.892-3.084 0-5.145 1.927-5.145 5.085 0 2.851 2.11 4.962 5.145 4.962 1.281 0 2.637-.557 3.412-1.793h.035v1.236c0 2.047-.755 3.909-3.651 3.909-1.495 0-2.582-.581-3.605-1.684l-1.143 1.321c1.356 1.346 2.861 1.843 4.748 1.843 3.387 0 5.26-1.907 5.26-5.394v-9.237Zm-25.786-3.785c0 .691.507 1.187 1.172 1.187.7 0 1.192-.496 1.192-1.187a1.18 1.18 0 0 0-1.192-1.167c-.665 0-1.172.532-1.172 1.167Zm.382 13.455h1.609v-9.67h-1.609v9.67Zm-20.978-1.55c.949 1.366 2.141 1.788 3.77 1.788 1.917 0 3.859-.844 3.859-3.03 0-1.946-1.446-2.567-3.159-2.905-1.282-.228-2.444-.591-2.444-1.396 0-.898 1.023-1.341 1.907-1.341.949 0 1.639.477 2.047 1.168l1.341-.904c-.661-1.242-1.922-1.753-3.283-1.753-1.798 0-3.621.973-3.621 2.85 0 2.007 1.585 2.399 3.412 2.816 1.033.224 2.066.492 2.066 1.525s-1.117 1.49-2.12 1.49c-1.138 0-1.843-.512-2.484-1.296l-1.281.988h-.01Zm-20.174-4.157c.199-1.619 1.366-2.727 3.159-2.727 1.793 0 2.856 1.103 2.9 2.727h-6.059Zm6.228 3c-.76.963-1.693 1.46-3.074 1.46-1.758 0-3.035-1.42-3.159-3.094h7.798v-.512c0-3.203-1.853-5.07-4.574-5.07-2.722 0-4.967 2.09-4.967 5.085 0 2.811 1.862 5.076 4.897 5.076 1.798 0 3.164-.531 4.291-1.992l-1.222-.948.01-.005Zm-22.955-2.131c0 2.022-1.336 3.591-3.422 3.591-2.086 0-3.427-1.574-3.427-3.591 0-2.016 1.341-3.596 3.427-3.596 2.086 0 3.422 1.575 3.422 3.596Zm0 4.838h1.614v-15.625h-1.614v7.35h-.03c-.908-1.023-2.076-1.648-3.471-1.648-3.035 0-5.091 2.155-5.091 5.085s2.136 5.076 4.843 5.076c1.728 0 3.114-.864 3.719-1.962h.03v1.724Zm-31.353 0h3.089v-5.002c0-1.301.243-2.557 1.863-2.557 1.619 0 1.609 1.485 1.609 2.632v4.927h3.094v-5.538c0-2.682-.566-4.753-3.715-4.753-1.505 0-2.508.824-2.935 1.614h-.045v-1.371h-2.97v10.048h.01Zm-15.833-4.401v.656c0 1.241-1.132 1.882-2.354 1.882-.676 0-1.455-.343-1.455-1.092 0-1.371 2.09-1.441 3.049-1.441h.76v-.005Zm0 4.401h2.856v-5.106c0-3.352-.974-5.185-4.584-5.185-1.634 0-3.283.531-4.421 1.614l1.649 1.684c.661-.74 1.505-1.197 2.528-1.197 1.023 0 1.972.715 1.972 1.808-2.578 0-6.784.059-6.784 3.531 0 2.016 1.693 3.089 3.561 3.089 1.261 0 2.503-.427 3.188-1.5h.035v1.267-.005ZM84.06 121.015c0 .988.8 1.788 1.782 1.788.984 0 1.803-.805 1.803-1.788 0-.984-.804-1.803-1.802-1.803-.999 0-1.784.809-1.784 1.803Zm.228 13.201h3.104v-10.048h-3.104v10.048Zm-16.394 0h3.094v-15.625h-3.094v15.625Zm-15.863-4.401v.656c0 1.241-1.147 1.882-2.36 1.882-.69 0-1.464-.343-1.464-1.092 0-1.371 2.096-1.441 3.054-1.441h.77v-.005Zm0 4.401h2.846v-5.106c0-3.352-.979-5.185-4.59-5.185-1.628 0-3.282.531-4.415 1.614l1.664 1.684c.646-.74 1.495-1.197 2.508-1.197s1.982.715 1.982 1.808c-2.588 0-6.8.059-6.8 3.531 0 2.016 1.7 3.089 3.577 3.089 1.256 0 2.498-.427 3.168-1.5h.055v1.267l.005-.005Zm-18.913-10.048h-2.721v-2.965h-3.104v2.965H25.31v2.489h1.982v4.767c0 2.186 1.594 3.03 3.66 3.03.715 0 1.49-.06 2.165-.308v-2.578c-.253.254-.923.284-1.261.284-1.331 0-1.46-.785-1.46-1.858v-3.342h2.721v-2.489.005ZM9.672 121.02c0 .988.804 1.788 1.798 1.788.993 0 1.798-.805 1.798-1.788 0-.984-.81-1.803-1.798-1.803-.989 0-1.798.809-1.798 1.803Zm.253 13.201h3.094v-10.048H9.92v10.048h.005Z" fill="#fff"/></svg>