<svg width="268" height="200" fill="none" xmlns="http://www.w3.org/2000/svg"><path d="M96.487 61.566H46.674v4.425h49.813v-4.425Zm0 39.822H8.005v4.425h88.482v-4.425Zm0-9.958H8.005v4.42h88.482v-4.42Zm0-9.953H46.674v4.415h49.813v-4.415Zm0-9.933H46.674v4.425h49.813v-4.425Z" fill="#E12A27"/><path d="M26.872 83.707a2.778 2.778 0 0 1-2.776 2.776c-1.53 0-2.796-1.241-2.796-2.776a2.786 2.786 0 0 1 2.796-2.781 2.763 2.763 0 0 1 2.776 2.781Zm0-9.953a2.783 2.783 0 0 1-2.776 2.786c-1.53 0-2.796-1.247-2.796-2.786a2.779 2.779 0 0 1 2.796-2.776 2.765 2.765 0 0 1 2.776 2.776Zm0-9.978a2.782 2.782 0 0 1-2.776 2.782c-1.53 0-2.796-1.252-2.796-2.782A2.785 2.785 0 0 1 24.096 61a2.765 2.765 0 0 1 2.776 2.776ZM13.553 83.707a2.768 2.768 0 0 1-2.777 2.776A2.768 2.768 0 0 1 8 83.707a2.776 2.776 0 0 1 2.776-2.781 2.77 2.77 0 0 1 2.777 2.781Zm0-9.953a2.774 2.774 0 0 1-2.777 2.786A2.774 2.774 0 0 1 8 73.754a2.768 2.768 0 0 1 2.776-2.776 2.771 2.771 0 0 1 2.777 2.776Zm0-9.978a2.772 2.772 0 0 1-2.777 2.782A2.772 2.772 0 0 1 8 63.776 2.771 2.771 0 0 1 10.776 61a2.771 2.771 0 0 1 2.777 2.776Zm26.506 19.931a2.779 2.779 0 0 1-2.782 2.776 2.779 2.779 0 1 1 0-5.557 2.777 2.777 0 0 1 2.782 2.781Zm0-9.953a2.784 2.784 0 0 1-2.782 2.786 2.784 2.784 0 0 1-2.78-2.786 2.776 2.776 0 0 1 2.78-2.776 2.779 2.779 0 0 1 2.782 2.776Zm0-9.978a2.783 2.783 0 0 1-2.782 2.782 2.786 2.786 0 0 1-2.78-2.782 2.782 2.782 0 0 1 5.562 0Zm78.614 22.091h6.655l4.618 13.042h.06l4.624-13.042h6.64v20.01h-4.41V90.526h-.06l-5.259 15.351h-3.353l-5.065-15.351h-.05v15.351h-4.4v-20.01Zm35.619 5.811-2.419 6.223h4.882l-2.463-6.223Zm-1.694-5.816h3.641l8.711 20.01h-4.981l-1.719-4.246h-7.772l-1.659 4.246h-4.862l8.641-20.01Zm-24.395-7.912c3.77 0 6.218-2.716 6.218-6.441 0-3.725-2.448-6.442-6.218-6.442-3.769 0-6.218 2.717-6.218 6.442s2.464 6.442 6.218 6.442Zm0-16.95C134.451 61 139 65.092 139 71.509c0 6.417-4.549 10.524-10.797 10.524s-10.797-4.107-10.797-10.524c0-6.417 4.545-10.509 10.797-10.509Zm18.878 8.791h2.592c1.609 0 3.7-.06 3.7-2.235 0-2.011-1.808-2.324-3.417-2.324h-2.88v4.554l.005.005Zm-4.42-8.289h7.752c4.088 0 7.539 1.415 7.539 6.079 0 2.801-1.49 4.976-4.325 5.483l5.09 8.448h-5.284l-4.187-7.996h-2.17v7.996h-4.42v-20.01h.005Zm23.352 0h-4.415v20.01h4.415v-20.01Zm22.796 18.594c-2.603 1.36-5.453 1.937-8.388 1.937-6.248 0-10.793-4.107-10.793-10.524 0-6.417 4.55-10.509 10.793-10.509 3.163 0 5.954.705 7.971 2.573l-3.109 3.387c-1.192-1.252-2.633-1.892-4.862-1.892-3.76 0-6.228 2.716-6.228 6.441 0 3.725 2.468 6.442 6.228 6.442 1.922 0 3.332-.532 4.147-.994v-3.253h-3.586v-4.057h7.827v10.449Zm8.905-18.594h-4.415v20.01h4.415v-20.01Zm4.678 0h5.995l8.517 13.901h.05V61.502h4.415v20.01h-5.766l-8.741-14.249h-.055v14.249h-4.415v-20.01Zm31.994 5.816-2.423 6.228h4.891l-2.468-6.228Zm-1.693-5.816h3.645l8.696 20.01h-4.966l-1.724-4.232h-7.777l-1.664 4.232h-4.862l8.652-20.01Zm15.197 0h4.4v15.947h8.18v4.063h-12.58v-20.01Zm-75.853 32.639h2.593c1.619 0 3.705-.05 3.705-2.23 0-1.996-1.808-2.314-3.417-2.314h-2.886v4.55l.005-.006Zm-4.4-8.274h7.743c4.107 0 7.539 1.4 7.539 6.074 0 2.796-1.5 4.972-4.311 5.483l5.08 8.453h-5.279l-4.187-8h-2.185v8h-4.4v-20.01Zm23.332 0h-4.4v20.01h4.4v-20.01Zm4.694 0h5.994l8.503 13.906h.039V85.867h4.426v20.01h-5.766l-8.727-14.249h-.059v14.249h-4.41v-20.01Zm23.883 0h13.589v4.068h-9.193v3.725h8.676v4.072h-8.676v4.068h9.699v4.077h-14.095v-20.01Zm28.2 4.883c-.705-.9-2.121-1.332-3.198-1.332-1.247 0-2.965.566-2.965 2.076 0 3.63 9.197 1.296 9.197 8.3 0 4.464-3.58 6.58-7.703 6.58-2.567 0-4.827-.755-6.724-2.503l3.139-3.452a4.927 4.927 0 0 0 3.839 1.892c1.46 0 3.049-.68 3.049-2.101 0-3.66-9.381-1.688-9.381-8.353 0-4.272 3.7-6.506 7.638-6.506 2.255 0 4.415.6 6.119 2.095l-3.01 3.303Zm3.109 43.47h1.609v-4.713c0-2.215.909-3.72 2.995-3.72 1.505 0 2.215 1.003 2.215 2.627v5.806h1.614v-5.979c0-2.33-1.137-3.944-3.675-3.944-1.59 0-2.791.894-3.228 1.843h-.045c0-.542-.04-1.073-.04-1.594h-1.525c0 .64.085 1.395.085 2.289v7.38l-.005.005Zm-22.399-4.837c0-2.021 1.391-3.596 3.412-3.596s3.447 1.465 3.447 3.556c0 1.848-1.232 3.511-3.447 3.511-1.882 0-3.412-1.509-3.412-3.471Zm8.468-4.837h-1.609v1.644h-.035c-.641-1.267-2.121-1.893-3.412-1.893-3.084 0-5.145 1.927-5.145 5.086 0 2.851 2.111 4.961 5.145 4.961 1.281 0 2.637-.556 3.412-1.792h.035v1.236c0 2.046-.755 3.909-3.651 3.909-1.494 0-2.582-.581-3.605-1.684l-1.142 1.321c1.355 1.346 2.86 1.843 4.747 1.843 3.388 0 5.26-1.907 5.26-5.394v-9.237Zm-25.786-3.785c0 .691.507 1.187 1.172 1.187.7 0 1.192-.496 1.192-1.187a1.18 1.18 0 0 0-1.192-1.167c-.665 0-1.172.531-1.172 1.167Zm.383 13.454h1.609v-9.669h-1.609v9.669Zm-20.979-1.549c.949 1.366 2.141 1.788 3.77 1.788 1.917 0 3.859-.845 3.859-3.03 0-1.947-1.446-2.568-3.159-2.905-1.281-.229-2.443-.591-2.443-1.396 0-.899 1.023-1.341 1.907-1.341.948 0 1.639.477 2.046 1.167l1.341-.904c-.661-1.241-1.922-1.753-3.283-1.753-1.798 0-3.621.974-3.621 2.851 0 2.007 1.585 2.399 3.412 2.816 1.033.224 2.066.492 2.066 1.525s-1.117 1.49-2.12 1.49c-1.138 0-1.843-.512-2.484-1.297l-1.281.989h-.01Zm-20.174-4.157c.199-1.619 1.366-2.727 3.159-2.727 1.793 0 2.856 1.103 2.901 2.727h-6.06Zm6.228 3c-.759.963-1.693 1.46-3.074 1.46-1.758 0-3.034-1.421-3.159-3.094h7.798v-.512c0-3.203-1.853-5.071-4.574-5.071-2.722 0-4.967 2.091-4.967 5.086 0 2.811 1.863 5.076 4.897 5.076 1.798 0 3.164-.532 4.291-1.992l-1.222-.948.01-.005Zm-22.955-2.131c0 2.021-1.336 3.591-3.421 3.591-2.086 0-3.427-1.575-3.427-3.591s1.341-3.596 3.427-3.596c2.085 0 3.421 1.575 3.421 3.596Zm0 4.837h1.615v-15.624h-1.615v7.35h-.029c-.909-1.023-2.076-1.649-3.472-1.649-3.034 0-5.091 2.156-5.091 5.086s2.136 5.076 4.843 5.076c1.728 0 3.114-.864 3.72-1.962h.029v1.723Zm-31.353 0h3.089v-5.001c0-1.301.244-2.558 1.863-2.558s1.609 1.485 1.609 2.633v4.926h3.094v-5.537c0-2.682-.566-4.753-3.715-4.753-1.505 0-2.508.824-2.935 1.614h-.045v-1.371h-2.97v10.047h.01Zm-15.833-4.4v.656c0 1.241-1.132 1.882-2.354 1.882-.675 0-1.455-.343-1.455-1.093 0-1.37 2.091-1.44 3.049-1.44h.76v-.005Zm0 4.4h2.856v-5.105c0-3.353-.974-5.185-4.584-5.185-1.634 0-3.283.531-4.42 1.614l1.648 1.684c.661-.74 1.505-1.197 2.528-1.197 1.023 0 1.972.715 1.972 1.807-2.578 0-6.784.06-6.784 3.532 0 2.016 1.693 3.089 3.561 3.089 1.261 0 2.503-.427 3.188-1.5h.035v1.266-.005ZM83.56 121.014c0 .989.8 1.788 1.783 1.788.983 0 1.802-.804 1.802-1.788 0-.983-.804-1.802-1.802-1.802-.999 0-1.783.809-1.783 1.802Zm.228 13.201h3.104v-10.047h-3.104v10.047Zm-16.394 0h3.094v-15.624h-3.094v15.624Zm-15.863-4.4v.656c0 1.241-1.147 1.882-2.36 1.882-.69 0-1.464-.343-1.464-1.093 0-1.37 2.096-1.44 3.054-1.44h.77v-.005Zm0 4.4h2.846v-5.105c0-3.353-.979-5.185-4.59-5.185-1.628 0-3.282.531-4.414 1.614l1.663 1.684c.646-.74 1.495-1.197 2.508-1.197 1.014 0 1.982.715 1.982 1.807-2.588 0-6.8.06-6.8 3.532 0 2.016 1.7 3.089 3.577 3.089 1.256 0 2.498-.427 3.168-1.5h.055v1.266l.005-.005Zm-18.912-10.047h-2.722v-2.965h-3.104v2.965h-1.982v2.488h1.982v4.768c0 2.185 1.594 3.03 3.66 3.03.716 0 1.49-.06 2.166-.308v-2.578c-.254.253-.924.283-1.262.283-1.33 0-1.46-.784-1.46-1.857v-3.343h2.722v-2.488.005Zm-23.447-3.149c0 .989.805 1.788 1.798 1.788s1.798-.804 1.798-1.788a1.81 1.81 0 0 0-1.798-1.802c-.988 0-1.798.809-1.798 1.802Zm.253 13.201h3.095v-10.047h-3.1v10.047h.005Z" fill="#1A4884"/></svg>