<svg width="268" height="200" fill="none" xmlns="http://www.w3.org/2000/svg"><g clip-path="url(#a)" fill="#2F1136"><path d="M1.224 133.851c-.744-.839-1.271-3.664-1.224-6.182.235-.401.932-.447 1.253-.149.744 2.07 2.967 6.415 6.989 6.415 3.117 0 4.879-1.874 4.879-4.345 0-2.322-1.102-4.196-4.182-5.893l-1.771-.988c-3.08-1.706-5.793-4.187-5.793-7.86 0-4.028 3.052-7.441 9.042-7.441 2.12 0 3.693.485 5.624.858.452.886.857 3.562.857 5.492-.217.354-.952.401-1.31.121-.612-2.135-2.072-4.848-5.547-4.848-3.278 0-4.635 2.125-4.635 4.279 0 1.697 1.187 3.525 3.91 4.951l2.533 1.334c2.675 1.389 5.623 3.916 5.623 8.037 0 4.625-3.55 7.907-9.522 7.907-3.777 0-5.906-1.222-6.726-1.707m39.202-18.704c0-2.983-.037-3.356-1.507-3.524l-.82-.075c-.225-.224-.225-.727.039-.886 1.977-.186 4.634-.27 7.214-.27 2.45 0 4.578.308 5.963 1.054 1.6.839 2.75 2.293 2.75 4.54 0 2.872-2.213 4.289-3.758 4.905-.189.093-.113.326 0 .522 2.515 4.205 4.078 6.844 5.548 8.047.885.736 1.79.932 2.175.951.151.14.151.475.057.634-.367.084-.96.177-2.063.177-3.005 0-4.643-1.212-6.565-4.093-.848-1.296-1.733-3.021-2.477-4.215-.565-.932-.914-1.053-1.96-1.053-.932 0-.96.028-.96.69v3.962c0 3.31.273 3.394 1.752 3.571l.678.094c.226.214.18.783-.056.895-1.376-.038-2.788-.094-4.154-.094s-2.807.056-4.239.094c-.245-.112-.339-.681-.066-.895l.688-.094c1.47-.186 1.761-.261 1.761-3.571v-11.366Zm3.655 4.476c0 1.007 0 1.053 1.497 1.053 3.08 0 4.493-1.501 4.493-4.447 0-2.452-1.6-4.606-4.342-4.606-1.63 0-1.657.102-1.657 1.538v6.462h.009Zm37.704 10.228c0 1.296.188 2.266.895 2.592.113.15.113.457-.029.56-.414 0-1.092.102-1.798.298-2.318.522-5.115.989-7.253.989-4.465 0-8.684-1.175-11.472-4.066-2.214-2.247-3.288-5.361-3.288-8.447 0-3.087 1.074-6.285 3.429-8.7 2.647-2.759 6.716-4.354 11.896-4.354 1.77 0 3.664.298 4.964.56.866.195 1.95.317 2.402.317.028 1.118.282 2.993.47 5.892-.178.364-.998.392-1.177.075-.829-3.59-3.466-5.361-7.186-5.361-6.547 0-9.73 4.69-9.73 10.965 0 2.965.668 6.144 2.694 8.503 2.006 2.378 5.01 3.142 7.186 3.142 1.8 0 2.892-.289 3.335-.839.235-.335.348-.997.348-2.321v-1.343c0-2.62-.047-2.835-2.553-3.245l-1.337-.224c-.254-.251-.254-.876.028-1.063 1.45.066 3.25.103 5.821.103 1.696 0 2.967-.037 4.55-.103.376.187.414.821.084 1.063l-.668.112c-1.385.187-1.602.522-1.602 2.779v2.135l-.009-.019Zm40.473-3.384c0 .941 0 4.755.085 5.482-.254.336-.687.448-1.074.42-.508-.644-1.403-1.716-3.673-4.243l-7.337-8.307c-2.063-2.275-3.052-3.45-3.589-3.926-.085 0-.085.355-.085 2.005v6.051c0 2.341.028 5.184.556 6.126.283.466.81.653 1.611.774l.678.093c.292.224.254.821-.047.914a76.696 76.696 0 0 0-3.58-.093 57.53 57.53 0 0 0-3.277.093c-.236-.149-.302-.69-.057-.914l.688-.149c.603-.093 1.168-.214 1.375-.718.414-.97.414-3.664.414-6.126v-7.356c0-2.434.019-2.919-1.036-3.842-.339-.27-1.224-.513-1.658-.615l-.47-.075c-.227-.205-.189-.82.122-.904 1.177.112 2.92.093 3.702.093.65 0 1.403-.028 2.157-.093.546 1.314 3.965 5.23 5.058 6.424l3.136 3.357c1.319 1.435 4.229 4.708 4.54 4.913.104-.102.104-.233.104-.736v-6.08c0-2.312-.038-5.193-.594-6.107-.292-.475-.781-.662-1.563-.783l-.735-.075c-.273-.233-.245-.82.085-.904a77.11 77.11 0 0 0 3.598.093c1.347 0 2.176-.028 3.297-.093.254.14.31.671.056.904l-.706.14c-.594.084-1.131.215-1.347.718-.443.97-.443 3.674-.443 6.107v7.432h.009Zm12.17-11.916c0-1.184-.028-1.24-.772-1.24h-1.602c-2.628 0-3.409.307-4.464 2.61-.198.159-.82.075-.933-.205.481-1.538.933-3.3 1.131-4.289.056-.084.169-.102.301-.102.113 0 .235.018.301.102.142.718.537.755 2.487.755h11.708c1.413 0 1.836-.102 2.176-.755.122-.046.235-.102.348-.102.179 0 .311.056.367.13-.273 1.175-.499 3.609-.423 4.522-.142.224-.622.289-.886.084-.367-2.219-.904-2.75-3.994-2.75h-1.629c-.735 0-.763.056-.763 1.24v12.27c0 3.002.254 3.096 1.611 3.236l1.017.111c.207.196.179.7-.047.821-1.658-.047-2.958-.084-4.22-.084-1.262 0-2.599.037-4.446.084-.226-.121-.263-.681-.056-.821l1.205-.139c1.347-.112 1.602-.206 1.602-3.208v-12.27h-.019Zm57.248 18.778c.386.159.349.97-.084 1.128a96.08 96.08 0 0 0-4.804-.121c-1.837 0-3.57.038-5.294.121-.31-.167-.48-.895-.094-1.128l1.055-.196c1.601-.233 1.705-.531 1.705-3.188V114h-.066c-1.093 2.135-1.639 3.31-2.374 4.858l-3.381 6.853c-1.309 2.723-3.278 7.068-3.994 8.886-.16.149-.753.149-1.026 0-.66-2.098-2.355-5.911-3.269-7.86l-3.494-7.478c-.754-1.641-1.818-4.084-2.27-5.259h-.085c-.075 1.912-.16 4.942-.235 6.583a302.077 302.077 0 0 0-.151 9.035c0 2.583.038 3.198 1.724 3.459l1.299.243c.274.233.274.969-.037 1.128a67.953 67.953 0 0 0-4.135-.121c-1.253 0-2.675.037-4.22.121-.339-.205-.339-.933-.113-1.128l.678-.075c1.893-.233 2.214-.811 2.44-3.208.292-2.433.386-4.969.584-9.034.16-2.639.405-5.865.405-8.262 0-1.827-.594-2.629-2.129-2.89l-1.328-.224c-.245-.261-.198-1.007.151-1.119 1.177.084 2.241.122 3.692.122 1.375 0 2.76 0 4.21-.122.151 2.341 1.187 4.364 2.167 6.462l4.313 9.007a59.285 59.285 0 0 0 1.884 3.506 62.144 62.144 0 0 0 2.016-4.066l3.692-7.487c1.253-2.555 2.524-4.858 3.193-7.431 1.083.084 2.364.121 3.24.121 1.639 0 3.052-.037 4.154-.121.433.159.518.886.113 1.119l-1.3.196c-1.733.251-2.119.885-2.119 2.955 0 5.772.066 11.534.339 17.306.123 2.611.537 2.881 1.818 3.03l1.149.196-.019.009Zm26.496-5.819c0 2.453-.123 4.606-.688 5.996-.989 2.452-3.296 4.513-6.866 4.513-.744 0-1.667-.187-1.667-1.035 0-.588.527-1.856 1.441-1.856.442 0 .913.27 1.403.588.81.494 1.093.559 1.375.559.744 0 1.008-1.8 1.074-2.443.066-.531.283-2.788.283-6.089V115.78c0-3.328-.283-3.421-1.762-3.608l-.942-.103c-.216-.177-.188-.792.076-.904 1.639.056 3.033.093 4.464.093 1.432 0 2.694-.028 3.872-.093.254.112.282.737.056.904l-.452.056c-1.394.243-1.677.336-1.677 3.665v11.72l.01-.019Zm22.097-4.67c0 4.941-3.796 8.634-8.892 8.634-5.726 0-9.023-4-9.023-8.457 0-5.119 3.749-8.914 9.07-8.914 5.84 0 8.835 4.158 8.835 8.746m-14.476-.56c0 3.46 1.469 8.178 5.83 8.178 2.873 0 5.209-2.126 5.209-7.171 0-3.785-1.715-8.186-5.755-8.186-2.544 0-5.284 1.827-5.284 7.179Zm18.018-6.834c-.292-3.637-.367-4.093-2.166-4.131l-1.055-.028c-.283-.251-.339-.848-.047-1.053 2.439-.438 5.66-.811 8.769-1.073 2.986-.251 5.623-.102 7.365.672 2.044.858 3.627 2.536 3.853 5.249.282 3.497-2.28 5.455-4.107 6.369-.217.121-.113.419.057.643 3.494 4.858 5.707 7.897 7.601 9.231 1.13.829 2.279.969 2.741.969.197.131.235.55.141.746-.452.14-1.177.317-2.506.429-3.664.308-5.802-1.007-8.43-4.326-1.139-1.492-2.401-3.478-3.447-4.886-.763-1.091-1.196-1.193-2.477-1.1-1.159.093-1.196.13-1.121.942l.414 4.839c.349 4.009.697 4.102 2.515 4.168l.848.065c.283.224.292.923.009 1.091-1.686.056-3.419.168-5.076.298-1.677.14-3.401.308-5.143.541-.311-.131-.471-.802-.16-1.082l.829-.186c1.752-.382 2.091-.522 1.752-4.541l-1.159-13.827v-.019Zm4.87 5.081c.103 1.203.113 1.269 1.959 1.119 3.758-.307 5.303-2.256 5.001-5.855-.245-3.002-2.42-5.427-5.745-5.166-1.988.159-2.007.28-1.875 2.024l.66 7.878Zm-213.651.187H24.282c-.584.018-.65.345-.64.513.075 2.405.725 4.289 1.95 5.678 1.309 1.501 2.853 2.247 4.624 2.247 1.187 0 2.195-.308 3.09-.942.828-.606 1.544-1.659 2.119-3.133.358-.056.584.094.64.401-.292 1.735-1.092 3.32-2.364 4.709-1.328 1.473-2.976 2.2-4.973 2.2-2.157 0-4.013-.829-5.557-2.508-1.545-1.659-2.308-3.907-2.308-6.732 0-3.049.791-5.417 2.374-7.123 1.573-1.707 3.55-2.555 5.952-2.555 2.007 0 3.664.653 4.964 1.958 1.046 1.054 1.667 2.406 1.875 4.028.047.392.084.503-.02.876-.103.373-.979.364-.979.364m-11.293-1.902c-.038.214-.047.681.414.681h5.058c2.798-.056 2.741-.439 2.685-1.212a3.073 3.073 0 0 0-.292-1.119 3.824 3.824 0 0 0-1.47-1.697c-.65-.42-1.328-.625-2.034-.625-1.112 0-2.091.42-2.939 1.24-.716.699-1.196 1.566-1.413 2.732m76.492.662h-9.918c-.547.019-.612.317-.612.476.075 2.209.678 3.962 1.817 5.24 1.215 1.38 2.628 2.079 4.267 2.079 1.102 0 2.025-.298 2.845-.876.763-.56 1.431-1.53 1.968-2.882.33-.055.537.084.594.355-.274 1.613-1.008 3.058-2.186 4.363-1.215 1.343-2.74 2.014-4.596 2.014-1.978 0-3.702-.764-5.124-2.293-1.432-1.548-2.129-3.618-2.129-6.229 0-2.806.735-4.997 2.186-6.573 1.45-1.585 3.287-2.378 5.51-2.378 1.855 0 3.372.616 4.568 1.818.97.979 1.554 2.22 1.742 3.73.047.364.085.466-.018.802-.095.354-.905.345-.905.345m-10.436-1.753c-.038.196-.047.625.386.625h4.672c2.58-.056 2.524-.401 2.477-1.138-.028-.475-.16-.764-.273-1.016a3.491 3.491 0 0 0-1.356-1.576c-.603-.382-1.234-.578-1.884-.578-1.017 0-1.921.382-2.713 1.156-.659.634-1.102 1.427-1.309 2.518"/><path d="M204.11 127.986c0-.102-.066-.167-.132-.167-.057 0-.095.018-.208.093-1.799 1.333-2.91 2.126-3.381 2.349a5.663 5.663 0 0 1-2.392.523c-1.31 0-2.393-.457-3.259-1.352-.848-.895-1.272-2.07-1.272-3.534 0-.933.207-1.716.631-2.396.565-.924 1.554-1.819 2.958-2.658 1.252-.746 3.287-1.641 6.047-2.666.348-.122.668-.224.838-.485.151-.271.17-.616.17-.616 0-1.874-.311-3.17-.942-3.869-.603-.718-1.47-1.072-2.609-1.072-.867 0-1.564.223-2.073.708-.508.466-.772 1.017-.772 1.613l.047 1.203c0 .643-.16 1.138-.49 1.473a1.734 1.734 0 0 1-1.29.532c-.528 0-.961-.187-1.281-.55-.32-.355-.499-.84-.499-1.464 0-1.184.612-2.257 1.836-3.264 1.206-.997 2.92-1.491 5.124-1.491 1.668 0 3.109.298 4.182.839.81.429 1.413 1.091 1.79 2.004.235.606.367 1.8.367 3.637v6.415c0 1.79.038 2.89.104 3.319.066.392.188.671.348.811.17.131.358.196.566.196.226 0 .405-.056.584-.14.226-.149.649-.494 1.205-1.054.226-.121.509.075.575.56-.057.084-.104.14-.104.14-1.554 2.051-3.052 3.105-4.455 3.105-.678 0-1.215-.224-1.62-.69-.367-.42-.556-1.101-.603-2.042m-1.921-.438c.574-.373 1.912-1.828 1.912-3.935v-3.525c0-.858-.641-.624-.857-.55-.641.187-1.771.578-3.212 1.334-1.131.587-1.884 1.24-2.346 1.892-.48.672-.715 1.371-.715 2.163 0 .989.301 1.791.894 2.443.594.662 1.262.979 2.063.979.631 0 1.413-.261 2.27-.801m-39.061-65.456c0-.084-.075-.12-.16-.084-2.938 1.306-8.128 6.648-12.291 13.95 0 0-.019.046-.019.074 0 .046.019.084.056.112 1.441 1.11 1.178 1.063 2.298 2.219 0 0 .048.037.095.028.056 0 .075-.028.075-.028 3.89-3.46 7.498-4.802 9.014-9.129.028-.093-.057-.13-.057-.13l-2.411-1.138s-.075-.037-.066-.093c0-.065.104-.084.104-.084l2.807-.447s.103-.019.113-.103c.301-1.398.471-3.058.442-5.137M124.444 81.72c-2.308-1.846-4.993-2.834-12.264 5.203-.038.038-.066.02-.047-.037 3.071-7.105 6.913-10.06 8.449-9.893 1.3.14 2.844 2.397 3.88 4.7.01.028 0 .037-.018.028Zm26.09-4.428c-1.752-1.753-2.882-2.424-4.295-2.35-1.224.065-4.662 2.266-7.036 9.305-2.308 6.882-3.014 13.828-5.34 13.697h-.49c-2.327.13-3.043-6.815-5.341-13.697-2.373-7.04-5.811-9.24-7.026-9.305-1.413-.074-2.544.597-4.295 2.35-1.988 1.995-5.35 5.697-6.961 11.338-.028.149 0 .233.066.298 8.034 6.471 15.221 5.762 22.361 9.641.216.103.565.252.96.326.16.047.321.056.49.056.16 0 .33-.009.49-.055.386-.085.735-.234.951-.327 7.14-3.888 14.326-3.17 22.361-9.64.066-.066.094-.14.066-.3-1.601-5.65-4.973-9.351-6.961-11.337Z"/><path d="M132.101 93.87c.01.046.01.028.113.242 0 0 1.215 2.723 2.835 0 .038-.074.104-.205.113-.251 1.3-7.991 3.212-14.798 5.774-17.875.038-.056 0-.13-.037-.149-7.554-3.422-14.581 0-14.581 0-.047.019-.075.093-.038.15 2.572 3.076 4.522 9.883 5.821 17.874"/></g><defs><clipPath id="a"><path fill="#fff" d="M0 0h268v200H0z"/></clipPath></defs></svg>