<svg width="210" height="157" fill="none" xmlns="http://www.w3.org/2000/svg"><path d="M131.681 72.001v20.432c0 1 .786 1.774 1.806 1.774s1.758-.773 1.758-1.774V72c0-1-.787-1.775-1.804-1.775-1.016 0-1.758.819-1.758 1.775M22.887 82.287c0 5.69-3.802 9.058-8.44 9.058-4.637 0-8.67-3.642-8.67-9.106v-.09c0-5.37 4.217-9.06 8.67-9.06s8.44 3.552 8.44 9.105v.093Zm3.656-.045v-.09c0-7.74-5.697-12.195-11.446-12.195-4.404 0-7.233 2.408-9.181 5.229v-12.88c0-1-.787-1.774-1.804-1.774s-1.76.774-1.76 1.775v30.126c0 .956.786 1.774 1.803 1.774s1.758-.818 1.758-1.774v-2.96c1.855 2.643 4.732 5.006 9.182 5.006 5.796 0 11.445-4.547 11.445-12.24m25.687.093c0 4.962-3.615 9.06-8.81 9.06-5.194 0-8.857-4.098-8.857-9.15v-.09c0-4.962 3.57-9.105 8.764-9.105 5.194 0 8.903 4.143 8.903 9.198v.092-.005Zm3.656-.093v-.09c0-6.646-5.28-12.195-12.468-12.195S30.902 75.593 30.902 82.24v.093c0 6.647 5.232 12.195 12.42 12.195 7.187 0 12.558-5.638 12.558-12.285m25.872.045c0 5.69-3.803 9.058-8.44 9.058-4.638 0-8.67-3.642-8.67-9.106v-.09c0-5.37 4.22-9.06 8.67-9.06s8.44 3.552 8.44 9.105v.093Zm3.655-.045v-.09c0-7.74-5.697-12.195-11.445-12.195-4.405 0-7.236 2.408-9.182 5.229v-12.88c0-1-.786-1.774-1.806-1.774s-1.758.774-1.758 1.775v30.126c0 .956.787 1.774 1.806 1.774 1.02 0 1.758-.818 1.758-1.774v-2.96c1.855 2.643 4.729 5.006 9.182 5.006 5.796 0 11.445-4.547 11.445-12.24m25.5.093c0 4.962-3.618 9.06-8.81 9.06-5.191 0-8.857-4.098-8.857-9.15v-.09c0-4.962 3.57-9.105 8.764-9.105 5.194 0 8.903 4.143 8.903 9.198v.092-.005Zm3.655-.093v-.09c0-6.646-5.277-12.195-12.465-12.195-7.187 0-12.513 5.639-12.513 12.285v.093c0 6.647 5.235 12.195 12.42 12.195s12.558-5.638 12.558-12.285m9.409 10.193V62.301c0-.956-.787-1.774-1.804-1.774-1.016 0-1.758.818-1.758 1.774v30.132c0 1 .787 1.774 1.807 1.774 1.019 0 1.758-.773 1.758-1.774m11.587-28.764v-.591c0-1.136-.926-1.865-2.128-1.865-1.201 0-2.084.727-2.084 1.865v.591c0 1.09.926 1.865 2.084 1.865 1.159 0 2.128-.774 2.128-1.865Zm61.361 20.184c.453-1.711.694-3.504.694-5.353 0-11.707-9.618-21.195-21.478-21.195-11.86 0-21.478 9.488-21.478 21.195s9.615 21.195 21.478 21.195a21.543 21.543 0 0 0 15.277-6.3 8.078 8.078 0 0 1-.211-1.813c0-3.62 2.403-6.683 5.721-7.73" fill="#fff"/><path d="M207.651 91.58c0-4.481-3.679-8.115-8.221-8.115-4.541 0-8.223 3.633-8.223 8.115 0 4.481 3.682 8.115 8.223 8.115 4.542 0 8.221-3.634 8.221-8.115Z" fill="#fff"/></svg>