<svg width="268" height="200" fill="none" xmlns="http://www.w3.org/2000/svg"><path d="M168.049 91.721v26.028c0 1.275 1.004 2.26 2.305 2.26 1.301 0 2.244-.985 2.244-2.26V91.721c0-1.275-1.005-2.26-2.302-2.26-1.298 0-2.244 1.042-2.244 2.26M29.208 104.824c0 7.25-4.853 11.539-10.772 11.539-5.918 0-11.065-4.639-11.065-11.6v-.114c0-6.842 5.383-11.542 11.065-11.542 5.683 0 10.771 4.525 10.771 11.599v.118Zm4.665-.057v-.115c0-9.86-7.271-15.535-14.607-15.535-5.621 0-9.23 3.068-11.717 6.661V79.371c0-1.274-1.004-2.26-2.302-2.26S3 78.097 3 79.37v38.378c0 1.218 1.004 2.26 2.302 2.26s2.244-1.042 2.244-2.26v-3.771c2.366 3.367 6.037 6.378 11.717 6.378 7.397 0 14.606-5.793 14.606-15.593m32.782.118c0 6.321-4.614 11.542-11.243 11.542-6.629 0-11.304-5.221-11.304-11.656v-.115c0-6.32 4.556-11.599 11.185-11.599 6.628 0 11.362 5.278 11.362 11.717v.118-.007Zm4.665-.118v-.114c0-8.467-6.738-15.535-15.911-15.535-9.173 0-15.97 7.182-15.97 15.649v.118c0 8.468 6.677 15.535 15.85 15.535s16.027-7.182 16.027-15.649m33.018.057c0 7.25-4.853 11.539-10.772 11.539-5.918 0-11.065-4.639-11.065-11.6v-.114c0-6.842 5.386-11.542 11.065-11.542 5.68 0 10.772 4.525 10.772 11.599v.118Zm4.665-.057v-.115c0-9.86-7.271-15.535-14.607-15.535-5.621 0-9.234 3.068-11.717 6.661V79.371c0-1.274-1.004-2.26-2.305-2.26-1.301 0-2.244.986-2.244 2.26v38.378c0 1.218 1.004 2.26 2.305 2.26 1.301 0 2.244-1.042 2.244-2.26v-3.771c2.367 3.367 6.034 6.378 11.717 6.378 7.397 0 14.607-5.793 14.607-15.593m32.542.118c0 6.321-4.617 11.542-11.242 11.542-6.626 0-11.304-5.221-11.304-11.656v-.115c0-6.32 4.555-11.599 11.184-11.599s11.362 5.278 11.362 11.717v.118-.007Zm4.665-.118v-.114c0-8.467-6.734-15.535-15.907-15.535s-15.969 7.182-15.969 15.649v.118c0 8.468 6.68 15.535 15.849 15.535 9.17 0 16.027-7.182 16.027-15.649m12.008 12.985V79.365c0-1.218-1.004-2.26-2.302-2.26s-2.244 1.042-2.244 2.26v38.384c0 1.275 1.004 2.26 2.305 2.26 1.302 0 2.244-.985 2.244-2.26m14.788-36.642v-.753c0-1.447-1.182-2.375-2.716-2.375-1.533 0-2.66.925-2.66 2.375v.753c0 1.39 1.182 2.375 2.66 2.375 1.479 0 2.716-.985 2.716-2.375Zm78.313 25.712c.577-2.18.884-4.464.884-6.819 0-14.913-12.274-27-27.409-27-15.136 0-27.41 12.087-27.41 27s12.27 27 27.41 27c7.629 0 14.531-3.071 19.496-8.027a10.321 10.321 0 0 1-.269-2.307c0-4.613 3.066-8.515 7.301-9.847" fill="#E30613"/><path d="M265.001 116.662c0-5.709-4.695-10.338-10.491-10.338-5.795 0-10.494 4.629-10.494 10.338S248.715 127 254.51 127c5.796 0 10.491-4.629 10.491-10.338Z" fill="#5BBDB5"/></svg>