<svg width="269" height="200" fill="none" xmlns="http://www.w3.org/2000/svg"><path d="M193.513 133.772c-.659-.021-1.521-.31-2.187-.563-.273-.754-1.023-1.691-1.198-2.36-.301-1-.07-2.275-.596-3.148-.469-.74-.932-1.296-1.331-2.219-.617-1.43-.358-2.705-.813-3.902-.778-2.008-2.033-3.726-2.495-4.191-.512-.514-1.472-4.804-5.866-4.959-3.995-.141-10.295 5.367-12.334 8.269-.33-2.542-.582-5.113-1.325-7.339-1.451-4.374-1.219-2.796-2.642-4.008-.925-.781-1.528-1.239-2.698-1.542-1.927-.493-3.161.211-5.004.958-1.563.627-2.495 1.697-3.679 2.261-.736.711-1.514 1.451-2.474 1.937-.407-1.261-.449-2.628-.68-3.564-.231-.93-1.325-1.733-1.892-2.994-.274-.613-.267-1.035-.596-1.62-1.163-2.064-3.091-2.317-5.424-2.676-3.308-.514-5.291.824-8.228 2.437-2.376 1.303-4.611 2.416-5.438 4.331-.659 1.522-2.075 2.839-2.775 4.135-.989 1.852-1.83 4.008-2.58 6.001-1.226 3.212-1.871 6.466-2.754 9.417-.056 1.521.449 1.317 1.009 2.374 1.346.436 2.923 1.282 3.582 1.303.651.021 1.254-.493 1.997-.86.42-.986.561-2.07.813-2.824.287-.81 1.31-1.711 1.5-2.43.406-1.43.574-3.367 1.114-4.86.589-1.599 1.759-3.24 2.88-4.98.105-.169.028-.789.204-.958 1.275-1.246 2.466-2.747 3.707-3.726.406-.317 1.114-.204 1.24-.394.435-.669 2.783-1.613 3.133-1.085a16.441 16.441 0 0 1 1.577 2.895c.301.712.07 1.648.343 2.282.211.5.694.465.673 1.12-.028.662.75 16.242 1.016 17.898.112.725.414 1.415.414 2.014 1.668.761 3.069 1.747 4.905 1.81 1.017.028.841-.648 2.404-1.563 0 0-.07-3.085.168-5.044.414-3.38 2.383-7.726 2.411-8.388.028-.853 1.647-5.882 3.743-5.804.651.021 1.212.549 1.499.775.127 1.535.141 3.261.631 4.402.568 1.401.456 3.684.848 5.543.196.965.897 2.31.876 2.965l-.126 3.762c-.028.655.217 1.31.28 1.676.68.852 1.514 2.458 2.327 2.888.771.387 2.159.732 3.014 1.768l1.464.056c.056-.373.456.035.456.035.119-.387.841-.176.869-.535.063-.62.49-1 .49-1 .947-5.255 1.255-8.136 3.757-12.608.497-.902.813-1.395 1.387-2.254.743-1.127 1.816-2.493 2.012-2.824 1.394 2.106 2.768 3.81 4.289 6.409 1.913 3.289 3.104 6.17 4.233 8.804.385.895 1.619 1.789 2.873 2.649 2.152 1.472 3.82 2.19 6.279 2.275 2.72.098 3.694-6.015 1.493-8.826-1.002.416-2.13.634-2.782.606m-76.844-1.186c-1.25-.309-3.122-.856-4.358-1.798-.417-.765-.975-1.362-1.088-1.741-1.179-2.845-1.165-3.329-1.165-5.535 0-.653.466-2.106.261-8.146-.035-1.321-.537-2.929-.904-4.095-.438-.702-2.218-.983-2.91-1.278-2.155.253-2.303.295-2.621 0-.918.063-2.041 1.896-2.465 2.627-.714-.26-1.208-.773-1.76-1.145-2.14-.436-2.74-1.124-4.583-1.306-1.936-.197-3.716.105-4.966.414-6.244 1.545-12.58 9.931-11.19 19.004.064.492-.31.963-.564 1.377-.813.702-5.849 3.034-5.849 4.909 0 .66.805 1.11 1.06 1.559-.227.19.727 2.781 3.037 2.781 1.519 0 5.926-4.27 6.873-4.993 1.702 1.384 3.793 2.226 5.305 2.781 1.194.422 2.84.365 4.238.892.332-.302.487-.26 2.882 0 3.885-.4 7.459-.864 9.239-4.733.149.955.961 1.79 1.682 2.753 1.186.646 2.698 1.861 3.623 2.387 1.42.752 7.007 1.693 7.664 1.693 4.896 0 1.201-7.754-1.455-8.407m-15.611-7.437c-.551.569-.494 1.742-1.165 2.655-1.144 1.573-2.472 2.479-4.231 2.675-2.903.33-4.267-.533-5.574-.744-.374-.639-1.977-1.622-1.977-2.276 0-2.528 1.06-7.556 4.958-8.357.664-.4 3.9-.183 4.564-.183.663 0 2.034.794 3.418 1.37v4.86h.007Zm10.064-64.682c.936 0 1.815-.05 5.568-.057v34.159c-3.753-.007-4.632-.064-5.568-.064-.936 0-1.601.814-1.601 1.776 0 1.019.7 1.712 1.601 1.712 1.179 0 2.473-.304 8.348-.304h2.287c5.754 0 7.176.304 8.348.304.894 0 1.601-.693 1.601-1.712 0-.955-.65-1.776-1.601-1.776-1.043 0-2.258.057-5.632.064V81.473h3.588c9.185 0 15.46-4.811 15.46-12.17 0-7.357-6.283-12.126-15.46-12.126-4.081 0-6.432.127-8.591.127-5.875 0-7.169-.304-8.348-.304-.922 0-1.601.778-1.601 1.705s.658 1.776 1.601 1.776m13.351.311h3.588c5.747 0 7.677 1.953 7.677 8.511 0 6.56-1.93 8.625-7.677 8.625h-3.588V60.785v.007Z" fill="#fff"/><path d="M82.833 97.696c4.994 0 7.008.24 9.629.24 9.248 0 18.038-8.299 18.038-20.44 0-12.14-8.797-20.376-18.038-20.376-2.677 0-4.875.184-9.629.184h-1.521c-5.79 0-7.072-.304-8.227-.304-.909 0-1.585.778-1.585 1.705s.648 1.776 1.585 1.776c.937 0 1.789-.057 5.487-.064v34.159c-3.698 0-4.565-.064-5.487-.064-.923 0-1.585.814-1.585 1.776 0 1.019.697 1.712 1.585 1.712 1.155 0 2.43-.304 8.227-.304h1.521Zm3.41-36.812c1.056-.035 3.338-.092 6.219-.092 6.332 0 9.565 3.665 9.565 16.704 0 13.04-3.24 16.712-9.566 16.712-3.07 0-5.219-.064-6.219-.092V60.884ZM155.5 93c0 3.316-2.464 6-5.5 6s-5.5-2.684-5.5-6 2.464-6 5.5-6 5.5 2.684 5.5 6Zm18 0a6 6 0 0 1-5.996 6 6.007 6.007 0 0 1-6.004-6c0-3.316 2.683-6 6.004-6a5.991 5.991 0 0 1 5.996 6Zm17 0c0 3.316-2.464 6-5.5 6s-5.5-2.684-5.5-6 2.464-6 5.5-6 5.5 2.684 5.5 6Zm3.013 40.772c-.659-.021-1.521-.31-2.187-.563-.273-.754-1.023-1.691-1.198-2.36-.301-1-.07-2.275-.596-3.148-.469-.74-.932-1.296-1.331-2.219-.617-1.43-.358-2.705-.813-3.902-.778-2.008-2.033-3.726-2.495-4.191-.512-.514-1.472-4.804-5.866-4.959-3.995-.141-10.295 5.367-12.334 8.269-.33-2.542-.582-5.113-1.325-7.339-1.451-4.374-1.219-2.796-2.642-4.008-.925-.781-1.528-1.239-2.698-1.542-1.927-.493-3.161.211-5.004.958-1.563.627-2.495 1.697-3.679 2.261-.736.711-1.514 1.451-2.474 1.937-.407-1.261-.449-2.628-.68-3.564-.231-.93-1.325-1.733-1.892-2.994-.274-.613-.267-1.035-.596-1.62-1.163-2.064-3.091-2.317-5.424-2.676-3.308-.514-5.291.824-8.228 2.437-2.376 1.303-4.611 2.416-5.438 4.331-.659 1.522-2.075 2.839-2.775 4.135-.989 1.852-1.83 4.008-2.58 6.001-1.226 3.212-1.871 6.466-2.754 9.417-.056 1.521.449 1.317 1.009 2.374 1.346.436 2.923 1.282 3.582 1.303.651.021 1.254-.493 1.997-.86.42-.986.561-2.07.813-2.824.287-.81 1.31-1.711 1.5-2.43.406-1.43.574-3.367 1.114-4.86.589-1.599 1.759-3.24 2.88-4.98.105-.169.028-.789.204-.958 1.275-1.246 2.466-2.747 3.707-3.726.406-.317 1.114-.204 1.24-.394.435-.669 2.783-1.613 3.133-1.085a16.441 16.441 0 0 1 1.577 2.895c.301.712.07 1.648.343 2.282.211.5.694.465.673 1.12-.028.662.75 16.242 1.016 17.898.112.725.414 1.415.414 2.014 1.668.761 3.069 1.747 4.905 1.81 1.017.028.841-.648 2.404-1.563 0 0-.07-3.085.168-5.044.414-3.38 2.383-7.726 2.411-8.388.028-.853 1.647-5.882 3.743-5.804.651.021 1.212.549 1.499.775.127 1.535.141 3.261.631 4.402.568 1.401.456 3.684.848 5.543.196.965.897 2.31.876 2.965l-.126 3.762c-.028.655.217 1.31.28 1.676.68.852 1.514 2.458 2.327 2.888.771.387 2.159.732 3.014 1.768l1.464.056c.056-.373.456.035.456.035.119-.387.841-.176.869-.535.063-.62.49-1 .49-1 .947-5.255 1.255-8.136 3.757-12.608.497-.902.813-1.395 1.387-2.254.743-1.127 1.816-2.493 2.012-2.824 1.394 2.106 2.768 3.81 4.289 6.409 1.913 3.289 3.104 6.17 4.233 8.804.385.895 1.619 1.789 2.873 2.649 2.152 1.472 3.82 2.19 6.279 2.275 2.72.098 3.694-6.015 1.493-8.826-1.002.416-2.13.634-2.782.606m-76.844-1.186c-1.25-.309-3.122-.856-4.358-1.798-.417-.765-.975-1.362-1.088-1.741-1.179-2.845-1.165-3.329-1.165-5.535 0-.653.466-2.106.261-8.146-.035-1.321-.537-2.929-.904-4.095-.438-.702-2.218-.983-2.91-1.278-2.155.253-2.303.295-2.621 0-.918.063-2.041 1.896-2.465 2.627-.714-.26-1.208-.773-1.76-1.145-2.14-.436-2.74-1.124-4.583-1.306-1.936-.197-3.716.105-4.966.414-6.244 1.545-12.58 9.931-11.19 19.004.064.492-.31.963-.564 1.377-.813.702-5.849 3.034-5.849 4.909 0 .66.805 1.11 1.06 1.559-.227.19.727 2.781 3.037 2.781 1.519 0 5.926-4.27 6.873-4.993 1.702 1.384 3.793 2.226 5.305 2.781 1.194.422 2.84.365 4.238.892.332-.302.487-.26 2.882 0 3.885-.4 7.459-.864 9.239-4.733.149.955.961 1.79 1.682 2.753 1.186.646 2.698 1.861 3.623 2.387 1.42.752 7.007 1.693 7.664 1.693 4.896 0 1.201-7.754-1.455-8.407m-15.611-7.437c-.551.569-.494 1.742-1.165 2.655-1.144 1.573-2.472 2.479-4.231 2.675-2.903.33-4.267-.533-5.574-.744-.374-.639-1.977-1.622-1.977-2.276 0-2.528 1.06-7.556 4.958-8.357.664-.4 3.9-.183 4.564-.183.663 0 2.034.794 3.418 1.37v4.86h.007Z" fill="#fff"/><path d="M111.101 60.474c.936 0 1.815-.05 5.568-.057v34.159c-3.753-.007-4.632-.064-5.568-.064-.936 0-1.601.814-1.601 1.776 0 1.019.7 1.712 1.601 1.712 1.179 0 2.473-.304 8.348-.304h2.287c5.754 0 7.176.304 8.348.304.894 0 1.601-.693 1.601-1.712 0-.955-.65-1.776-1.601-1.776-1.043 0-2.258.057-5.632.064V81.473h3.588c9.185 0 15.46-4.811 15.46-12.17 0-7.357-6.283-12.126-15.46-12.126-4.081 0-6.432.127-8.591.127-5.875 0-7.169-.304-8.348-.304-.922 0-1.601.778-1.601 1.705s.658 1.776 1.601 1.776m13.351.311h3.588c5.747 0 7.677 1.953 7.677 8.511 0 6.56-1.93 8.625-7.677 8.625h-3.588V60.785v.007Z" fill="#fff"/><path d="M82.833 97.696c4.994 0 7.008.24 9.629.24 9.248 0 18.038-8.299 18.038-20.44 0-12.14-8.797-20.376-18.038-20.376-2.677 0-4.875.184-9.629.184h-1.521c-5.79 0-7.072-.304-8.227-.304-.909 0-1.585.778-1.585 1.705s.648 1.776 1.585 1.776c.937 0 1.789-.057 5.487-.064v34.159c-3.698 0-4.565-.064-5.487-.064-.923 0-1.585.814-1.585 1.776 0 1.019.697 1.712 1.585 1.712 1.155 0 2.43-.304 8.227-.304h1.521Zm3.41-36.812c1.056-.035 3.338-.092 6.219-.092 6.332 0 9.565 3.665 9.565 16.704 0 13.04-3.24 16.712-9.566 16.712-3.07 0-5.219-.064-6.219-.092V60.884ZM155.5 93c0 3.316-2.464 6-5.5 6s-5.5-2.684-5.5-6 2.464-6 5.5-6 5.5 2.684 5.5 6Zm18 0a6 6 0 0 1-5.996 6 6.007 6.007 0 0 1-6.004-6c0-3.316 2.683-6 6.004-6a5.991 5.991 0 0 1 5.996 6Zm17 0c0 3.316-2.464 6-5.5 6s-5.5-2.684-5.5-6 2.464-6 5.5-6 5.5 2.684 5.5 6Zm3.013 40.772c-.659-.021-1.521-.31-2.187-.563-.273-.754-1.023-1.691-1.198-2.36-.301-1-.07-2.275-.596-3.148-.469-.74-.932-1.296-1.331-2.219-.617-1.43-.358-2.705-.813-3.902-.778-2.008-2.033-3.726-2.495-4.191-.512-.514-1.472-4.804-5.866-4.959-3.995-.141-10.295 5.367-12.334 8.269-.33-2.542-.582-5.113-1.325-7.339-1.451-4.374-1.219-2.796-2.642-4.008-.925-.781-1.528-1.239-2.698-1.542-1.927-.493-3.161.211-5.004.958-1.563.627-2.495 1.697-3.679 2.261-.736.711-1.514 1.451-2.474 1.937-.407-1.261-.449-2.628-.68-3.564-.231-.93-1.325-1.733-1.892-2.994-.274-.613-.267-1.035-.596-1.62-1.163-2.064-3.091-2.317-5.424-2.676-3.308-.514-5.291.824-8.228 2.437-2.376 1.303-4.611 2.416-5.438 4.331-.659 1.522-2.075 2.839-2.775 4.135-.989 1.852-1.83 4.008-2.58 6.001-1.226 3.212-1.871 6.466-2.754 9.417-.056 1.521.449 1.317 1.009 2.374 1.346.436 2.923 1.282 3.582 1.303.651.021 1.254-.493 1.997-.86.42-.986.561-2.07.813-2.824.287-.81 1.31-1.711 1.5-2.43.406-1.43.574-3.367 1.114-4.86.589-1.599 1.759-3.24 2.88-4.98.105-.169.028-.789.204-.958 1.275-1.246 2.466-2.747 3.707-3.726.406-.317 1.114-.204 1.24-.394.435-.669 2.783-1.613 3.133-1.085a16.441 16.441 0 0 1 1.577 2.895c.301.712.07 1.648.343 2.282.211.5.694.465.673 1.12-.028.662.75 16.242 1.016 17.898.112.725.414 1.415.414 2.014 1.668.761 3.069 1.747 4.905 1.81 1.017.028.841-.648 2.404-1.563 0 0-.07-3.085.168-5.044.414-3.38 2.383-7.726 2.411-8.388.028-.853 1.647-5.882 3.743-5.804.651.021 1.212.549 1.499.775.127 1.535.141 3.261.631 4.402.568 1.401.456 3.684.848 5.543.196.965.897 2.31.876 2.965l-.126 3.762c-.028.655.217 1.31.28 1.676.68.852 1.514 2.458 2.327 2.888.771.387 2.159.732 3.014 1.768l1.464.056c.056-.373.456.035.456.035.119-.387.841-.176.869-.535.063-.62.49-1 .49-1 .947-5.255 1.255-8.136 3.757-12.608.497-.902.813-1.395 1.387-2.254.743-1.127 1.816-2.493 2.012-2.824 1.394 2.106 2.768 3.81 4.289 6.409 1.913 3.289 3.104 6.17 4.233 8.804.385.895 1.619 1.789 2.873 2.649 2.152 1.472 3.82 2.19 6.279 2.275 2.72.098 3.694-6.015 1.493-8.826-1.002.416-2.13.634-2.782.606m-76.844-1.186c-1.25-.309-3.122-.856-4.358-1.798-.417-.765-.975-1.362-1.088-1.741-1.179-2.845-1.165-3.329-1.165-5.535 0-.653.466-2.106.261-8.146-.035-1.321-.537-2.929-.904-4.095-.438-.702-2.218-.983-2.91-1.278-2.155.253-2.303.295-2.621 0-.918.063-2.041 1.896-2.465 2.627-.714-.26-1.208-.773-1.76-1.145-2.14-.436-2.74-1.124-4.583-1.306-1.936-.197-3.716.105-4.966.414-6.244 1.545-12.58 9.931-11.19 19.004.064.492-.31.963-.564 1.377-.813.702-5.849 3.034-5.849 4.909 0 .66.805 1.11 1.06 1.559-.227.19.727 2.781 3.037 2.781 1.519 0 5.926-4.27 6.873-4.993 1.702 1.384 3.793 2.226 5.305 2.781 1.194.422 2.84.365 4.238.892.332-.302.487-.26 2.882 0 3.885-.4 7.459-.864 9.239-4.733.149.955.961 1.79 1.682 2.753 1.186.646 2.698 1.861 3.623 2.387 1.42.752 7.007 1.693 7.664 1.693 4.896 0 1.201-7.754-1.455-8.407m-15.611-7.437c-.551.569-.494 1.742-1.165 2.655-1.144 1.573-2.472 2.479-4.231 2.675-2.903.33-4.267-.533-5.574-.744-.374-.639-1.977-1.622-1.977-2.276 0-2.528 1.06-7.556 4.958-8.357.664-.4 3.9-.183 4.564-.183.663 0 2.034.794 3.418 1.37v4.86h.007Z" fill="#fff"/><path d="M111.101 60.474c.936 0 1.815-.05 5.568-.057v34.159c-3.753-.007-4.632-.064-5.568-.064-.936 0-1.601.814-1.601 1.776 0 1.019.7 1.712 1.601 1.712 1.179 0 2.473-.304 8.348-.304h2.287c5.754 0 7.176.304 8.348.304.894 0 1.601-.693 1.601-1.712 0-.955-.65-1.776-1.601-1.776-1.043 0-2.258.057-5.632.064V81.473h3.588c9.185 0 15.46-4.811 15.46-12.17 0-7.357-6.283-12.126-15.46-12.126-4.081 0-6.432.127-8.591.127-5.875 0-7.169-.304-8.348-.304-.922 0-1.601.778-1.601 1.705s.658 1.776 1.601 1.776m13.351.311h3.588c5.747 0 7.677 1.953 7.677 8.511 0 6.56-1.93 8.625-7.677 8.625h-3.588V60.785v.007Z" fill="#fff"/><path d="M82.833 97.696c4.994 0 7.008.24 9.629.24 9.248 0 18.038-8.299 18.038-20.44 0-12.14-8.797-20.376-18.038-20.376-2.677 0-4.875.184-9.629.184h-1.521c-5.79 0-7.072-.304-8.227-.304-.909 0-1.585.778-1.585 1.705s.648 1.776 1.585 1.776c.937 0 1.789-.057 5.487-.064v34.159c-3.698 0-4.565-.064-5.487-.064-.923 0-1.585.814-1.585 1.776 0 1.019.697 1.712 1.585 1.712 1.155 0 2.43-.304 8.227-.304h1.521Zm3.41-36.812c1.056-.035 3.338-.092 6.219-.092 6.332 0 9.565 3.665 9.565 16.704 0 13.04-3.24 16.712-9.566 16.712-3.07 0-5.219-.064-6.219-.092V60.884ZM155.5 93c0 3.316-2.464 6-5.5 6s-5.5-2.684-5.5-6 2.464-6 5.5-6 5.5 2.684 5.5 6Zm18 0a6 6 0 0 1-5.996 6 6.007 6.007 0 0 1-6.004-6c0-3.316 2.683-6 6.004-6a5.991 5.991 0 0 1 5.996 6Zm17 0c0 3.316-2.464 6-5.5 6s-5.5-2.684-5.5-6 2.464-6 5.5-6 5.5 2.684 5.5 6Z" fill="#fff"/></svg>