<svg width="230" height="67" viewBox="0 0 230 67" fill="none" xmlns="http://www.w3.org/2000/svg">
<g clip-path="url(#clip0_584_1310)">
<g clip-path="url(#clip1_584_1310)">
<g clip-path="url(#clip2_584_1310)">
<g clip-path="url(#clip3_584_1310)">
<path d="M0.0078125 64.4891V0.153076H229.827V64.4891H79.4097V62.4104H227.743V2.23176H2.09168V62.4104H14.3056V64.4891H0.0078125Z" fill="#1E1E1E"/>
<path d="M22.9826 60.0059C23.7418 60.0059 24.417 60.2552 25.0089 60.7546L24.5334 61.4159C24.2663 61.2331 24.0163 61.0956 23.7829 61.0039C23.5494 60.9123 23.3031 60.8664 23.0451 60.867C22.7032 60.867 22.4349 60.9477 22.2394 61.1091C22.0427 61.2723 21.9441 61.4953 21.9441 61.7777C21.9441 62.0521 22.0384 62.2685 22.2272 62.4268C22.414 62.5851 22.77 62.7471 23.2951 62.9133C23.9538 63.1211 24.4336 63.3748 24.7338 63.6743C25.034 63.9738 25.1842 64.3857 25.1842 64.9095C25.1842 65.525 24.9593 66.0091 24.5083 66.3623C24.058 66.7168 23.4949 66.8941 22.8197 66.8941C21.9275 66.8941 21.1727 66.5989 20.5557 66.0078L21.131 65.3838C21.6561 65.808 22.2112 66.02 22.7945 66.02C23.1616 66.02 23.4575 65.9284 23.683 65.7456C23.9079 65.5629 24.0206 65.3086 24.0206 64.9847C24.0206 64.7518 23.9814 64.5648 23.903 64.423C23.8227 64.2818 23.6812 64.1541 23.4777 64.041C23.2725 63.9298 22.9741 63.8112 22.5819 63.6871C21.9563 63.4793 21.506 63.2293 21.2309 62.9384C20.9558 62.6475 20.8179 62.2771 20.8185 61.8278C20.8185 61.4782 20.9104 61.1665 21.0936 60.8915C21.2768 60.6171 21.5317 60.4007 21.8565 60.243C22.1818 60.0847 22.5568 60.0059 22.9826 60.0059ZM29.5627 60.0059C30.0878 60.0059 30.4989 60.1807 30.7961 60.5297C31.0914 60.8793 31.2391 61.3529 31.2384 61.9525V66.7315H30.1129V62.0894C30.1129 61.6653 30.0406 61.359 29.8954 61.1714C29.7483 60.985 29.5332 60.8921 29.2496 60.8915C28.6993 60.8915 28.1987 61.2827 27.7484 62.065V66.7315H26.6228V57.5226L27.7484 57.3979V61.1036C27.9904 60.746 28.257 60.4728 28.5492 60.2852C28.8409 60.0988 29.1791 60.0059 29.5627 60.0059ZM35.5042 60.0059C36.3467 60.0059 37.0011 60.3011 37.4686 60.8915C37.9355 61.4819 38.1689 62.3309 38.1689 63.4371C38.1689 64.5018 37.9312 65.3441 37.4557 65.9626C36.9803 66.583 36.3259 66.8935 35.492 66.8941C34.6495 66.8941 33.9932 66.5903 33.5227 65.9828C33.0509 65.3752 32.8144 64.5312 32.815 63.45C32.815 62.3602 33.0527 61.5131 33.5282 60.9092C34.0037 60.3072 34.6623 60.0059 35.5042 60.0059ZM35.5042 60.9043C35.0122 60.9043 34.6366 61.1097 34.3786 61.5204C34.1201 61.933 33.9908 62.576 33.9908 63.45C33.9908 65.1552 34.4914 66.0078 35.492 66.0078C36.4925 66.0078 36.9931 65.1509 36.9931 63.4371C36.9931 62.5637 36.8681 61.9232 36.6175 61.5155C36.3675 61.1078 35.9962 60.9043 35.5042 60.9043ZM45.6748 60.1678H46.7378L45.3868 66.7315H43.961L42.885 61.191L41.8214 66.7315H40.3956L39.0194 60.1678H40.1327L41.1584 65.8831L42.3097 60.1678H43.5229L44.6362 65.8954L45.6748 60.1678ZM50.6905 60.0181C50.9074 60.0181 51.0949 60.0431 51.2536 60.0933L51.0661 61.1787C50.9074 61.1286 50.7364 61.1042 50.5532 61.1036C50.1862 61.1036 49.8878 61.249 49.6574 61.5406C49.4289 61.8315 49.2481 62.2771 49.1146 62.876V66.7315H47.989V60.1678H48.9645L49.0521 61.466C49.3774 60.5009 49.9234 60.0187 50.6905 60.0181ZM54.6438 60.0059C55.4863 60.0059 56.1406 60.3011 56.6075 60.8915C57.0744 61.4819 57.3079 62.3309 57.3085 63.4371C57.3085 64.5018 57.0707 65.3441 56.5953 65.9626C56.1198 66.583 55.4654 66.8935 54.6309 66.8941C53.7884 66.8941 53.1316 66.5903 52.6598 65.9828C52.1892 65.3752 51.9545 64.5312 51.9539 63.45C51.9539 62.3602 52.1917 61.5131 52.6671 60.9092C53.1426 60.3072 53.8013 60.0059 54.6438 60.0059ZM54.6438 60.9043C54.1517 60.9043 53.7761 61.1097 53.5176 61.5204C53.259 61.933 53.1297 62.576 53.1303 63.45C53.1303 65.1552 53.6309 66.0078 54.6309 66.0078C55.6315 66.0078 56.1321 65.1509 56.1321 63.4371C56.1321 62.5637 56.0071 61.9232 55.7571 61.5155C55.5071 61.1078 55.1358 60.9043 54.6438 60.9043ZM61.2238 60.0059C62.0663 60.0059 62.7206 60.3011 63.1875 60.8915C63.6544 61.4819 63.8879 62.3309 63.8879 63.4371C63.8879 64.5018 63.6501 65.3441 63.1753 65.9626C62.6998 66.583 62.0454 66.8935 61.2109 66.8941C60.3684 66.8941 59.7122 66.5903 59.2422 65.9828C58.7704 65.3752 58.5339 64.5312 58.5339 63.45C58.5339 62.3602 58.7717 61.5131 59.2471 60.9092C59.7226 60.3072 60.3813 60.0059 61.2238 60.0059ZM61.2238 60.9043C60.7318 60.9043 60.3562 61.1097 60.0976 61.5204C59.839 61.933 59.7097 62.576 59.7097 63.45C59.7097 65.1552 60.2103 66.0078 61.2109 66.0078C62.2115 66.0078 62.7121 65.1509 62.7121 63.4371C62.7121 62.5637 62.5871 61.9232 62.3371 61.5155C62.0871 61.1078 61.7158 60.9043 61.2238 60.9043ZM71.5941 60.0059C72.0695 60.0059 72.4488 60.1825 72.7325 60.5345C73.0162 60.889 73.1577 61.3615 73.1577 61.9525V66.7315H72.0444V62.0772C72.0444 61.2784 71.7858 60.8793 71.2687 60.8793C70.7681 60.8793 70.3098 61.2619 69.8925 62.0271V66.7315H68.7792V62.0772C68.7792 61.2784 68.5207 60.8793 68.0035 60.8793C67.495 60.8793 67.036 61.2619 66.628 62.0271V66.7315H65.5147V60.1678H66.4901L66.5777 61.1286C67.0612 60.3799 67.6451 60.0059 68.3289 60.0059C68.6873 60.0059 68.9918 60.1098 69.2424 60.3176C69.4924 60.5254 69.672 60.8206 69.7798 61.2038C70.2884 60.405 70.8931 60.0059 71.5941 60.0059Z" fill="#1E1E1E"/>
<g clip-path="url(#clip4_584_1310)">
<g clip-path="url(#clip5_584_1310)">
<g clip-path="url(#clip6_584_1310)">
<g clip-path="url(#clip7_584_1310)">
<g clip-path="url(#clip8_584_1310)">
<g clip-path="url(#clip9_584_1310)">
<path d="M36.7333 39.1862H34.7828V32.1768C34.7828 31.0361 34.5094 30.1697 33.9626 29.5776C33.4191 28.9823 32.6839 28.6846 31.757 28.6846C30.6734 28.6846 29.8449 29.102 29.2714 29.9368C28.6946 30.7716 28.4062 31.9257 28.4062 33.3991H27.506C27.506 32.3248 27.6126 31.3853 27.826 30.5804C28.0394 29.7722 28.3495 29.1004 28.7563 28.5649C29.1664 28.0294 29.6632 27.6287 30.2467 27.3626C30.8301 27.0965 31.492 26.9635 32.2322 26.9635C33.1757 26.9635 33.9826 27.173 34.6528 27.5921C35.323 28.0111 35.8381 28.6115 36.1982 29.3931C36.5549 30.1746 36.7333 31.1026 36.7333 32.1768V39.1862ZM19.929 39.1862H17.9785V27.2628H19.6539L19.879 29.6575C20.2558 28.7927 20.7826 28.1275 21.4594 27.6619C22.1396 27.1963 22.9548 26.9635 23.905 26.9635C24.8486 26.9635 25.6555 27.173 26.3257 27.5921C26.9958 28.0111 27.511 28.6115 27.871 29.3931C28.2278 30.1746 28.4062 31.1026 28.4062 32.1768V39.1862H26.4807V32.1768C26.4807 31.0361 26.2073 30.1697 25.6605 29.5776C25.117 28.9823 24.3735 28.6846 23.4299 28.6846C22.7131 28.6846 22.0929 28.8792 21.5694 29.2683C21.0426 29.6608 20.6375 30.2212 20.3541 30.9496C20.0707 31.6746 19.929 32.541 19.929 33.5488V39.1862ZM45.6956 39.4855C44.622 39.4855 43.6668 39.2477 42.8299 38.7721C41.9897 38.2998 41.3278 37.5981 40.8444 36.6668C40.3609 35.7356 40.1192 34.5881 40.1192 33.2245C40.1192 31.8542 40.3609 30.7051 40.8444 29.7772C41.3278 28.8493 41.9897 28.1475 42.8299 27.6719C43.6668 27.1996 44.622 26.9635 45.6956 26.9635C46.7625 26.9635 47.7161 27.1996 48.5563 27.6719C49.3932 28.1475 50.0517 28.8493 50.5318 29.7772C51.0086 30.7051 51.247 31.8542 51.247 33.2245C51.247 34.5881 51.0086 35.7356 50.5318 36.6668C50.0517 37.5981 49.3932 38.2998 48.5563 38.7721C47.7161 39.2477 46.7625 39.4855 45.6956 39.4855ZM45.6456 37.7893C46.4225 37.7893 47.081 37.6047 47.6211 37.2355C48.1646 36.863 48.5763 36.3359 48.8564 35.6541C49.1332 34.9723 49.2715 34.1624 49.2715 33.2245C49.2715 31.801 48.9764 30.6802 48.3863 29.862C47.7928 29.0438 46.9126 28.6348 45.7456 28.6348C44.9621 28.6348 44.3019 28.8193 43.7651 29.1885C43.2283 29.5577 42.8199 30.0865 42.5398 30.775C42.2597 31.4601 42.1197 32.2766 42.1197 33.2245C42.1197 34.628 42.4181 35.7405 43.0149 36.562C43.6117 37.3802 44.4886 37.7893 45.6456 37.7893ZM59.3141 39.4855C58.3472 39.4855 57.4586 39.2261 56.6484 38.7072C55.8415 38.1851 55.1964 37.4534 54.7129 36.5122C54.2295 35.5676 53.9877 34.4551 53.9877 33.1746C53.9877 31.9008 54.2245 30.7983 54.6979 29.867C55.1747 28.9357 55.8065 28.219 56.5934 27.7168C57.3803 27.2146 58.2455 26.9635 59.1891 26.9635C60.0626 26.9635 60.8311 27.1747 61.4946 27.5971C62.1581 28.0228 62.6733 28.6348 63.04 29.433C63.4068 30.2312 63.5902 31.1957 63.5902 32.3265H62.84C62.84 31.5349 62.6833 30.8698 62.3699 30.331C62.0565 29.7888 61.6497 29.3798 61.1496 29.1037C60.6494 28.8243 60.1126 28.6846 59.5391 28.6846C58.889 28.6846 58.2938 28.8659 57.7537 29.2284C57.2169 29.5876 56.7884 30.1031 56.4684 30.775C56.1483 31.4435 55.9882 32.2434 55.9882 33.1746C55.9882 34.1225 56.1483 34.9373 56.4684 35.6191C56.7884 36.301 57.2169 36.8248 57.7537 37.1906C58.2938 37.5565 58.889 37.7394 59.5391 37.7394C60.0793 37.7394 60.6011 37.5981 61.1045 37.3154C61.6113 37.0327 62.0264 36.6186 62.3499 36.0731C62.6766 35.5277 62.84 34.8692 62.84 34.0975H63.5902C63.5902 35.2516 63.4001 36.2311 63.02 37.036C62.6399 37.8375 62.1265 38.4462 61.4796 38.8619C60.8361 39.2776 60.1143 39.4855 59.3141 39.4855ZM64.7905 39.1862H63.1651L62.84 36.3924V22.1742H64.7905V39.1862ZM78.9541 39.1862H77.2537L77.0036 36.567V31.4535C77.0036 30.3792 76.7736 29.6076 76.3134 29.1386C75.8567 28.6697 75.1698 28.4352 74.2529 28.4352C73.7361 28.4352 73.2677 28.51 72.8475 28.6597C72.4241 28.8094 72.0907 29.0405 71.8473 29.3531C71.6006 29.6625 71.4772 30.0632 71.4772 30.5555H69.3016C69.3016 29.6907 69.5134 28.9939 69.9368 28.4651C70.3636 27.9363 70.9504 27.5538 71.6973 27.3177C72.4408 27.0816 73.2927 26.9635 74.2529 26.9635C75.1698 26.9635 75.9817 27.1165 76.6885 27.4225C77.3987 27.7318 77.9538 28.2207 78.354 28.8892C78.7541 29.5577 78.9541 30.4291 78.9541 31.5033V39.1862ZM73.1776 39.4855C72.194 39.4855 71.3805 39.3109 70.737 38.9617C70.0968 38.6125 69.6184 38.1585 69.3016 37.5997C68.9849 37.0443 68.8265 36.4589 68.8265 35.8436C68.8265 35.0354 69.0282 34.3786 69.4317 33.873C69.8351 33.3642 70.3869 32.9917 71.0871 32.7555C71.7873 32.5194 72.5758 32.4013 73.4527 32.4013C74.0762 32.4013 74.703 32.4629 75.3332 32.5859C75.9633 32.7123 76.5785 32.8836 77.1787 33.0998V34.322C76.6785 34.1225 76.1134 33.9645 75.4832 33.8481C74.8531 33.7317 74.2762 33.6735 73.7528 33.6735C72.9526 33.6735 72.2774 33.8381 71.7273 34.1674C71.1771 34.4933 70.9021 35.0521 70.9021 35.8436C70.9021 36.4257 71.1121 36.9246 71.5322 37.3403C71.9523 37.756 72.6258 37.9639 73.5527 37.9639C74.2029 37.9639 74.788 37.8126 75.3082 37.5099C75.8283 37.2039 76.2417 36.8231 76.5485 36.3675C76.8519 35.9085 77.0036 35.4512 77.0036 34.9955H77.4787C77.4787 35.7938 77.3054 36.5338 76.9586 37.2156C76.6118 37.8974 76.1184 38.4462 75.4782 38.8619C74.8347 39.2776 74.0679 39.4855 73.1776 39.4855ZM89.0417 39.4855C88.1681 39.4855 87.4079 39.286 86.7611 38.8868C86.1143 38.4877 85.6158 37.904 85.2657 37.1358C84.9156 36.3641 84.7406 35.4262 84.7406 34.322H85.5658C85.5658 35.0604 85.7208 35.684 86.0309 36.1929C86.3377 36.6984 86.7394 37.0825 87.2362 37.3453C87.733 37.608 88.2598 37.7394 88.8166 37.7394C89.4168 37.7394 89.9919 37.5665 90.5421 37.2206C91.0922 36.8747 91.5423 36.3658 91.8924 35.694C92.2425 35.0188 92.4175 34.1873 92.4175 33.1996C92.4175 32.2517 92.2575 31.4402 91.9374 30.765C91.6173 30.0932 91.1856 29.5776 90.6421 29.2184C90.102 28.8626 89.5018 28.6846 88.8416 28.6846C88.2748 28.6846 87.7414 28.821 87.2412 29.0937C86.7411 29.3698 86.3377 29.7722 86.0309 30.301C85.7208 30.8265 85.5658 31.4767 85.5658 32.2517H84.7406C84.7406 31.0943 84.9323 30.1231 85.3157 29.3382C85.6992 28.5533 86.2193 27.9613 86.8761 27.5621C87.5363 27.163 88.2748 26.9635 89.0917 26.9635C90.0253 26.9635 90.8972 27.2129 91.7074 27.7118C92.5142 28.2107 93.1677 28.9258 93.6679 29.857C94.168 30.7883 94.4181 31.9024 94.4181 33.1996C94.4181 34.5133 94.1663 35.6391 93.6629 36.577C93.1594 37.5182 92.4992 38.2383 91.6824 38.7372C90.8655 39.2361 89.9853 39.4855 89.0417 39.4855ZM85.5658 45.0481H83.6153V27.2628H85.2407L85.5658 30.0566V45.0481ZM102.38 39.4855C101.347 39.4855 100.425 39.2211 99.6144 38.6923C98.8008 38.1635 98.159 37.4301 97.6889 36.4922C97.2154 35.5543 96.9787 34.4734 96.9787 33.2494C96.9787 31.9424 97.2121 30.8199 97.6789 29.882C98.1457 28.9407 98.7859 28.219 99.5994 27.7168C100.413 27.2146 101.34 26.9635 102.38 26.9635C103.29 26.9635 104.066 27.1464 104.706 27.5123C105.349 27.8781 105.866 28.372 106.256 28.9939C106.65 29.6192 106.923 30.3243 107.076 31.1092C107.23 31.8941 107.273 32.7073 107.206 33.5488H98.5541V32.3514H105.921L105.346 32.7256C105.369 32.2334 105.343 31.7428 105.266 31.2539C105.186 30.7617 105.037 30.311 104.821 29.9019C104.604 29.4895 104.299 29.1586 103.905 28.9091C103.515 28.6597 103.015 28.535 102.405 28.535C101.638 28.535 100.996 28.7295 100.48 29.1187C99.9628 29.5111 99.576 30.025 99.3193 30.6602C99.0592 31.2955 98.9292 31.9839 98.9292 32.7256V33.5238C98.9292 34.3553 99.0576 35.0986 99.3143 35.7538C99.5677 36.4124 99.9478 36.9329 100.455 37.3154C100.965 37.6978 101.607 37.8891 102.38 37.8891C103.157 37.8891 103.795 37.7012 104.296 37.3253C104.796 36.9528 105.099 36.4007 105.206 35.669H107.231C107.108 36.4606 106.825 37.1407 106.381 37.7095C105.941 38.2782 105.379 38.7156 104.696 39.0215C104.012 39.3309 103.24 39.4855 102.38 39.4855ZM113.023 39.1862H111.072V27.2379H113.023V39.1862ZM113.023 33.7982H112.423C112.423 32.2849 112.568 31.0277 112.858 30.0266C113.151 29.0222 113.578 28.2739 114.138 27.7817C114.702 27.2861 115.388 27.0383 116.199 27.0383C116.465 27.0383 116.709 27.0566 116.929 27.0932C117.149 27.1298 117.372 27.1863 117.599 27.2628L117.474 29.1835C117.241 29.107 116.986 29.0422 116.709 28.989C116.435 28.9357 116.19 28.9091 115.974 28.9091C115.263 28.9091 114.692 29.1104 114.258 29.5128C113.825 29.9152 113.51 30.4823 113.313 31.214C113.12 31.9457 113.023 32.8071 113.023 33.7982ZM125.586 39.4855C124.786 39.4855 124.062 39.2776 123.415 38.8619C122.769 38.4462 122.257 37.8375 121.88 37.036C121.5 36.2311 121.31 35.2516 121.31 34.0975H122.06C122.06 34.8692 122.22 35.5277 122.54 36.0731C122.86 36.6186 123.275 37.0327 123.786 37.3154C124.292 37.5981 124.826 37.7394 125.386 37.7394C126.026 37.7394 126.613 37.5565 127.146 37.1906C127.68 36.8248 128.108 36.301 128.432 35.6191C128.752 34.9373 128.912 34.1225 128.912 33.1746C128.912 32.2434 128.754 31.4435 128.437 30.775C128.12 30.1031 127.692 29.5876 127.151 29.2284C126.615 28.8659 126.018 28.6846 125.361 28.6846C124.794 28.6846 124.259 28.8243 123.756 29.1037C123.249 29.3798 122.839 29.7888 122.525 30.331C122.215 30.8698 122.06 31.5349 122.06 32.3265H121.31C121.31 31.1957 121.495 30.2312 121.865 29.433C122.235 28.6348 122.75 28.0228 123.41 27.5971C124.067 27.1747 124.834 26.9635 125.711 26.9635C126.651 26.9635 127.517 27.2146 128.307 27.7168C129.094 28.219 129.724 28.9357 130.197 29.867C130.674 30.7983 130.912 31.9008 130.912 33.1746C130.912 34.4551 130.671 35.5676 130.187 36.5122C129.704 37.4534 129.057 38.1851 128.247 38.7072C127.44 39.2261 126.553 39.4855 125.586 39.4855ZM121.485 39.1862H120.11V22.1742H122.06V36.3924L121.485 39.1862ZM144.026 39.1862H142.325L142.075 36.567V31.4535C142.075 30.3792 141.847 29.6076 141.39 29.1386C140.93 28.6697 140.241 28.4352 139.325 28.4352C138.808 28.4352 138.339 28.51 137.919 28.6597C137.499 28.8094 137.166 29.0405 136.919 29.3531C136.672 29.6625 136.549 30.0632 136.549 30.5555H134.373C134.373 29.6907 134.587 28.9939 135.013 28.4651C135.437 27.9363 136.022 27.5538 136.769 27.3177C137.516 27.0816 138.368 26.9635 139.325 26.9635C140.241 26.9635 141.055 27.1165 141.765 27.4225C142.472 27.7318 143.025 28.2207 143.426 28.8892C143.826 29.5577 144.026 30.4291 144.026 31.5033V39.1862ZM138.249 39.4855C137.266 39.4855 136.454 39.3109 135.814 38.9617C135.17 38.6125 134.69 38.1585 134.373 37.5997C134.057 37.0443 133.898 36.4589 133.898 35.8436C133.898 35.0354 134.1 34.3786 134.503 33.873C134.91 33.3642 135.464 32.9917 136.164 32.7555C136.864 32.5194 137.651 32.4013 138.524 32.4013C139.151 32.4013 139.778 32.4629 140.405 32.5859C141.035 32.7123 141.65 32.8836 142.25 33.0998V34.322C141.75 34.1225 141.185 33.9645 140.555 33.8481C139.928 33.7317 139.351 33.6735 138.824 33.6735C138.024 33.6735 137.349 33.8381 136.799 34.1674C136.249 34.4933 135.974 35.0521 135.974 35.8436C135.974 36.4257 136.184 36.9246 136.604 37.3403C137.027 37.756 137.701 37.9639 138.624 37.9639C139.275 37.9639 139.86 37.8126 140.38 37.5099C140.903 37.2039 141.317 36.8231 141.62 36.3675C141.924 35.9085 142.075 35.4512 142.075 34.9955H142.55C142.55 35.7938 142.377 36.5338 142.03 37.2156C141.687 37.8974 141.193 38.4462 140.55 38.8619C139.91 39.2776 139.143 39.4855 138.249 39.4855ZM167.442 39.1862H165.491V32.1768C165.491 31.0361 165.22 30.1697 164.676 29.5776C164.129 28.9823 163.392 28.6846 162.465 28.6846C161.382 28.6846 160.553 29.102 159.98 29.9368C159.403 30.7716 159.115 31.9257 159.115 33.3991H158.214C158.214 32.3248 158.321 31.3853 158.534 30.5804C158.748 29.7722 159.058 29.1004 159.465 28.5649C159.875 28.0294 160.372 27.6287 160.955 27.3626C161.539 27.0965 162.2 26.9635 162.941 26.9635C163.884 26.9635 164.691 27.173 165.361 27.5921C166.031 28.0111 166.547 28.6115 166.907 29.3931C167.263 30.1746 167.442 31.1026 167.442 32.1768V39.1862ZM150.637 39.1862H148.687V27.2628H150.362L150.587 29.6575C150.964 28.7927 151.493 28.1275 152.173 27.6619C152.85 27.1963 153.663 26.9635 154.613 26.9635C155.557 26.9635 156.364 27.173 157.034 27.5921C157.704 28.0111 158.219 28.6115 158.579 29.3931C158.936 30.1746 159.115 31.1026 159.115 32.1768V39.1862H157.189V32.1768C157.189 31.0361 156.917 30.1697 156.374 29.5776C155.827 28.9823 155.082 28.6846 154.138 28.6846C153.421 28.6846 152.801 28.8792 152.278 29.2683C151.751 29.6608 151.346 30.2212 151.063 30.9496C150.779 31.6746 150.637 32.541 150.637 33.5488V39.1862ZM177.559 39.4855C176.759 39.4855 176.036 39.2776 175.389 38.8619C174.742 38.4462 174.228 37.8375 173.848 37.036C173.472 36.2311 173.283 35.2516 173.283 34.0975H174.033C174.033 34.8692 174.193 35.5277 174.514 36.0731C174.834 36.6186 175.249 37.0327 175.759 37.3154C176.266 37.5981 176.799 37.7394 177.359 37.7394C177.999 37.7394 178.586 37.5565 179.12 37.1906C179.653 36.8248 180.08 36.301 180.4 35.6191C180.723 34.9373 180.885 34.1225 180.885 33.1746C180.885 32.2434 180.727 31.4435 180.41 30.775C180.093 30.1031 179.665 29.5876 179.125 29.2284C178.588 28.8659 177.991 28.6846 177.334 28.6846C176.767 28.6846 176.231 28.8243 175.724 29.1037C175.22 29.3798 174.812 29.7888 174.499 30.331C174.188 30.8698 174.033 31.5349 174.033 32.3265H173.283C173.283 31.1957 173.468 30.2312 173.838 29.433C174.208 28.6348 174.724 28.0228 175.384 27.5971C176.041 27.1747 176.807 26.9635 177.684 26.9635C178.625 26.9635 179.488 27.2146 180.275 27.7168C181.065 28.219 181.697 28.9357 182.171 29.867C182.647 30.7983 182.886 31.9008 182.886 33.1746C182.886 34.4551 182.644 35.5676 182.161 36.5122C181.677 37.4534 181.03 38.1851 180.22 38.7072C179.413 39.2261 178.526 39.4855 177.559 39.4855ZM173.458 39.1862H172.083V22.1742H174.033V36.3924L173.458 39.1862ZM187.997 24.4441C187.597 24.4441 187.28 24.3294 187.047 24.0999C186.813 23.8704 186.697 23.5694 186.697 23.1969C186.697 22.831 186.813 22.54 187.047 22.3238C187.28 22.1077 187.597 21.9996 187.997 21.9996C188.397 21.9996 188.714 22.1077 188.947 22.3238C189.181 22.54 189.297 22.831 189.297 23.1969C189.297 23.5694 189.181 23.8704 188.947 24.0999C188.714 24.3294 188.397 24.4441 187.997 24.4441ZM188.972 39.1862H187.022V27.2379H188.972V39.1862ZM204.776 39.1862H202.851V32.1768C202.851 31.0361 202.577 30.1697 202.031 29.5776C201.484 28.9823 200.74 28.6846 199.8 28.6846C199.083 28.6846 198.461 28.8792 197.935 29.2683C197.411 29.6608 197.008 30.2212 196.724 30.9496C196.441 31.6746 196.299 32.541 196.299 33.5488H195.549C195.549 32.1585 195.732 30.9729 196.099 29.9917C196.466 29.0106 197.001 28.2606 197.704 27.7417C198.408 27.2229 199.265 26.9635 200.275 26.9635C201.215 26.9635 202.021 27.173 202.691 27.5921C203.364 28.0111 203.879 28.6115 204.236 29.3931C204.596 30.1746 204.776 31.1026 204.776 32.1768V39.1862ZM196.299 39.1862H194.349V27.2628H196.024L196.299 30.0067V39.1862ZM210.538 24.4441C210.138 24.4441 209.821 24.3294 209.588 24.0999C209.354 23.8704 209.237 23.5694 209.237 23.1969C209.237 22.831 209.354 22.54 209.588 22.3238C209.821 22.1077 210.138 21.9996 210.538 21.9996C210.938 21.9996 211.255 22.1077 211.488 22.3238C211.721 22.54 211.838 22.831 211.838 23.1969C211.838 23.5694 211.721 23.8704 211.488 24.0999C211.255 24.3294 210.938 24.4441 210.538 24.4441ZM211.513 39.1862H209.563V27.2379H211.513V39.1862Z" fill="#1E1E1E"/>
</g>
</g>
</g>
</g>
</g>
</g>
</g>
</g>
</g>
</g>
<defs>
<clipPath id="clip0_584_1310">
<rect width="230" height="67" fill="white"/>
</clipPath>
<clipPath id="clip1_584_1310">
<rect width="229.77" height="66.6206" fill="white" transform="translate(0.0273438 0.212952)"/>
</clipPath>
<clipPath id="clip2_584_1310">
<rect width="229.819" height="66.7408" fill="white" transform="translate(0.00292969 0.152771)"/>
</clipPath>
<clipPath id="clip3_584_1310">
<rect width="229.819" height="66.7408" fill="white" transform="translate(0.00585938 0.152817)"/>
</clipPath>
<clipPath id="clip4_584_1310">
<rect width="193.875" height="23.0485" fill="white" transform="translate(17.9805 21.999)"/>
</clipPath>
<clipPath id="clip5_584_1310">
<rect width="193.875" height="23.0485" fill="white" transform="translate(17.9785 21.9991)"/>
</clipPath>
<clipPath id="clip6_584_1310">
<rect width="193.875" height="23.0485" fill="white" transform="translate(17.9766 21.9992)"/>
</clipPath>
<clipPath id="clip7_584_1310">
<rect width="193.875" height="23.0485" fill="white" transform="translate(17.9746 21.9993)"/>
</clipPath>
<clipPath id="clip8_584_1310">
<rect width="193.875" height="23.0485" fill="white" transform="translate(17.9727 21.9993)"/>
</clipPath>
<clipPath id="clip9_584_1310">
<rect width="193.875" height="23.0485" fill="white" transform="translate(17.9707 21.9995)"/>
</clipPath>
</defs>
</svg>
