<svg width="206" height="88" viewBox="0 0 206 88" fill="none" xmlns="http://www.w3.org/2000/svg">
<g filter="url(#filter0_d_584_3870)">
<rect x="139" y="40" width="32.5269" height="32.5269" rx="3" transform="rotate(-45 139 40)" fill="#1C1C1C"/>
</g>
<ellipse cx="162.051" cy="40" rx="13.1723" ry="13.1724" fill="white"/>
<rect x="153.818" y="31.7671" width="16.5823" height="16.5823" rx="3" fill="#1C1C1C"/>
<ellipse cx="162.029" cy="39.9776" rx="5.74005" ry="5.73976" fill="white"/>
<rect width="3.72065" height="3.72065" rx="1" transform="matrix(0.707081 -0.707132 0.707081 0.707132 159.582 40)" fill="#1C1C1C"/>
<path d="M10.764 53.998H8.082L5.544 49.624H3.654V53.998H1.17V41.398H6.21C7.374 41.398 8.364 41.806 9.18 42.622C9.996 43.438 10.404 44.422 10.404 45.574C10.404 46.354 10.182 47.08 9.738 47.752C9.294 48.412 8.706 48.91 7.974 49.246L10.764 53.998ZM6.21 43.72H3.654V47.446H6.21C6.678 47.446 7.08 47.266 7.416 46.906C7.752 46.534 7.92 46.09 7.92 45.574C7.92 45.058 7.752 44.62 7.416 44.26C7.08 43.9 6.678 43.72 6.21 43.72ZM20.4096 50.452H13.6236C13.9236 51.58 14.7696 52.144 16.1616 52.144C17.0496 52.144 17.7216 51.844 18.1776 51.244L20.0496 52.324C19.1616 53.608 17.8536 54.25 16.1256 54.25C14.6376 54.25 13.4436 53.8 12.5436 52.9C11.6436 52 11.1936 50.866 11.1936 49.498C11.1936 48.154 11.6376 47.026 12.5256 46.114C13.4016 45.202 14.5416 44.746 15.9456 44.746C17.2776 44.746 18.3636 45.202 19.2036 46.114C20.0676 47.026 20.4996 48.154 20.4996 49.498C20.4996 49.75 20.4696 50.068 20.4096 50.452ZM13.5876 48.652H18.1776C18.0456 48.064 17.7756 47.614 17.3676 47.302C16.9716 46.99 16.4976 46.834 15.9456 46.834C15.3216 46.834 14.8056 46.996 14.3976 47.32C13.9896 47.632 13.7196 48.076 13.5876 48.652ZM28.8723 46.06V44.998H31.1943V57.598H28.8723V52.936C28.1883 53.812 27.2163 54.25 25.9563 54.25C24.7443 54.25 23.7063 53.794 22.8423 52.882C21.9903 51.958 21.5643 50.83 21.5643 49.498C21.5643 48.178 21.9903 47.056 22.8423 46.132C23.7063 45.208 24.7443 44.746 25.9563 44.746C27.2163 44.746 28.1883 45.184 28.8723 46.06ZM24.5883 51.334C25.0803 51.802 25.6803 52.036 26.3883 52.036C27.1083 52.036 27.7023 51.802 28.1703 51.334C28.6383 50.854 28.8723 50.242 28.8723 49.498C28.8723 48.754 28.6383 48.148 28.1703 47.68C27.7023 47.2 27.1083 46.96 26.3883 46.96C25.6683 46.96 25.0683 47.2 24.5883 47.68C24.1203 48.148 23.8863 48.754 23.8863 49.498C23.8863 50.242 24.1203 50.854 24.5883 51.334ZM39.2579 49.858V44.998H41.5799V53.998H39.2579V52.99C38.7059 53.83 37.8119 54.25 36.5759 54.25C35.5919 54.25 34.7759 53.92 34.1279 53.26C33.4919 52.588 33.1739 51.676 33.1739 50.524V44.998H35.4959V50.236C35.4959 50.824 35.6519 51.28 35.9639 51.604C36.2879 51.928 36.7259 52.09 37.2779 52.09C37.8899 52.09 38.3699 51.904 38.7179 51.532C39.0779 51.148 39.2579 50.59 39.2579 49.858ZM52.4545 50.452H45.6685C45.9685 51.58 46.8145 52.144 48.2065 52.144C49.0945 52.144 49.7665 51.844 50.2225 51.244L52.0945 52.324C51.2065 53.608 49.8985 54.25 48.1705 54.25C46.6825 54.25 45.4885 53.8 44.5885 52.9C43.6885 52 43.2385 50.866 43.2385 49.498C43.2385 48.154 43.6825 47.026 44.5705 46.114C45.4465 45.202 46.5865 44.746 47.9905 44.746C49.3225 44.746 50.4085 45.202 51.2485 46.114C52.1125 47.026 52.5445 48.154 52.5445 49.498C52.5445 49.75 52.5145 50.068 52.4545 50.452ZM45.6325 48.652H50.2225C50.0905 48.064 49.8205 47.614 49.4125 47.302C49.0165 46.99 48.5425 46.834 47.9905 46.834C47.3665 46.834 46.8505 46.996 46.4425 47.32C46.0345 47.632 45.7645 48.076 45.6325 48.652ZM55.956 47.554C55.956 47.938 56.502 48.268 57.594 48.544C57.978 48.628 58.326 48.73 58.638 48.85C58.95 48.958 59.262 49.12 59.574 49.336C59.898 49.54 60.15 49.816 60.33 50.164C60.51 50.512 60.6 50.914 60.6 51.37C60.6 52.294 60.252 53.008 59.556 53.512C58.86 54.004 58.002 54.25 56.982 54.25C55.134 54.25 53.874 53.536 53.202 52.108L55.218 50.974C55.494 51.754 56.082 52.144 56.982 52.144C57.81 52.144 58.224 51.886 58.224 51.37C58.224 50.986 57.678 50.656 56.586 50.38C56.178 50.272 55.83 50.164 55.542 50.056C55.254 49.948 54.942 49.792 54.606 49.588C54.27 49.372 54.012 49.102 53.832 48.778C53.664 48.442 53.58 48.052 53.58 47.608C53.58 46.72 53.904 46.024 54.552 45.52C55.212 45.004 56.028 44.746 57 44.746C57.732 44.746 58.398 44.914 58.998 45.25C59.598 45.574 60.072 46.042 60.42 46.654L58.44 47.734C58.152 47.122 57.672 46.816 57 46.816C56.7 46.816 56.448 46.888 56.244 47.032C56.052 47.164 55.956 47.338 55.956 47.554ZM66.9776 44.998V47.23H64.9436V50.974C64.9436 51.286 65.0216 51.514 65.1776 51.658C65.3336 51.802 65.5616 51.886 65.8616 51.91C66.1616 51.922 66.5336 51.916 66.9776 51.892V53.998C65.4056 54.178 64.2836 54.034 63.6116 53.566C62.9516 53.086 62.6216 52.222 62.6216 50.974V47.23H61.0556V44.998H62.6216V43.18L64.9436 42.478V44.998H66.9776ZM73.6334 41.398H78.4934C80.2094 41.398 81.6254 42.01 82.7414 43.234C83.8694 44.434 84.4334 45.922 84.4334 47.698C84.4334 49.474 83.8694 50.968 82.7414 52.18C81.6254 53.392 80.2094 53.998 78.4934 53.998H73.6334V41.398ZM74.8934 52.81H78.4934C79.8734 52.81 81.0014 52.318 81.8774 51.334C82.7654 50.338 83.2094 49.126 83.2094 47.698C83.2094 46.27 82.7654 45.058 81.8774 44.062C81.0014 43.078 79.8734 42.586 78.4934 42.586H74.8934V52.81ZM90.5664 44.782C91.9104 44.782 92.9844 45.256 93.7884 46.204C94.6164 47.14 95.0304 48.25 95.0304 49.534C95.0304 49.594 95.0184 49.78 94.9944 50.092H87.0924C87.2124 50.992 87.5964 51.712 88.2444 52.252C88.8924 52.792 89.7024 53.062 90.6744 53.062C92.0424 53.062 93.0084 52.552 93.5724 51.532L94.6164 52.144C94.2204 52.792 93.6744 53.302 92.9784 53.674C92.2944 54.034 91.5204 54.214 90.6564 54.214C89.2404 54.214 88.0884 53.77 87.2004 52.882C86.3124 51.994 85.8684 50.866 85.8684 49.498C85.8684 48.142 86.3064 47.02 87.1824 46.132C88.0584 45.232 89.1864 44.782 90.5664 44.782ZM90.5664 45.934C89.6304 45.934 88.8444 46.21 88.2084 46.762C87.5844 47.314 87.2124 48.04 87.0924 48.94H93.8064C93.6744 47.98 93.3084 47.242 92.7084 46.726C92.0844 46.198 91.3704 45.934 90.5664 45.934ZM97.5046 47.356C97.5046 48.052 98.1226 48.562 99.3586 48.886C99.7066 48.97 99.9346 49.03 100.043 49.066C100.151 49.09 100.361 49.156 100.673 49.264C100.997 49.36 101.219 49.444 101.339 49.516C101.471 49.588 101.651 49.702 101.879 49.858C102.107 50.002 102.269 50.152 102.365 50.308C102.461 50.452 102.551 50.644 102.635 50.884C102.719 51.112 102.761 51.358 102.761 51.622C102.761 52.39 102.455 53.014 101.843 53.494C101.255 53.974 100.475 54.214 99.5026 54.214C98.6626 54.214 97.9366 54.028 97.3246 53.656C96.7126 53.272 96.2806 52.768 96.0286 52.144L97.0366 51.55C97.2046 52.018 97.5046 52.39 97.9366 52.666C98.3806 52.93 98.9026 53.062 99.5026 53.062C100.115 53.062 100.613 52.942 100.997 52.702C101.381 52.462 101.573 52.102 101.573 51.622C101.573 50.926 100.955 50.416 99.7186 50.092C99.3706 50.008 99.1426 49.954 99.0346 49.93C98.9266 49.894 98.7106 49.828 98.3866 49.732C98.0746 49.624 97.8526 49.534 97.7206 49.462C97.6006 49.39 97.4266 49.282 97.1986 49.138C96.9706 48.982 96.8086 48.832 96.7126 48.688C96.6166 48.532 96.5266 48.34 96.4426 48.112C96.3586 47.872 96.3166 47.62 96.3166 47.356C96.3166 46.624 96.6046 46.012 97.1806 45.52C97.7806 45.028 98.5186 44.782 99.3946 44.782C100.115 44.782 100.751 44.944 101.303 45.268C101.867 45.592 102.281 46.042 102.545 46.618L101.555 47.194C101.219 46.354 100.499 45.934 99.3946 45.934C98.8546 45.934 98.4046 46.06 98.0446 46.312C97.6846 46.564 97.5046 46.912 97.5046 47.356ZM106.113 42.226C106.113 42.466 106.029 42.67 105.861 42.838C105.693 43.006 105.489 43.09 105.249 43.09C105.009 43.09 104.805 43.006 104.637 42.838C104.469 42.67 104.385 42.466 104.385 42.226C104.385 41.986 104.469 41.782 104.637 41.614C104.805 41.446 105.009 41.362 105.249 41.362C105.489 41.362 105.693 41.446 105.861 41.614C106.029 41.782 106.113 41.986 106.113 42.226ZM105.843 53.998H104.655V44.998H105.843V53.998ZM116.104 46.762V44.998H117.292V53.638C117.292 54.934 116.848 55.954 115.96 56.698C115.072 57.442 114.01 57.814 112.774 57.814C110.674 57.814 109.252 57.082 108.508 55.618L109.552 55.024C110.092 56.116 111.166 56.662 112.774 56.662C113.806 56.662 114.616 56.392 115.204 55.852C115.804 55.312 116.104 54.574 116.104 53.638V52.234C115.276 53.554 114.064 54.214 112.468 54.214C111.184 54.214 110.086 53.758 109.174 52.846C108.274 51.934 107.824 50.818 107.824 49.498C107.824 48.178 108.274 47.062 109.174 46.15C110.086 45.238 111.184 44.782 112.468 44.782C114.064 44.782 115.276 45.442 116.104 46.762ZM110.038 52.036C110.722 52.72 111.562 53.062 112.558 53.062C113.554 53.062 114.394 52.72 115.078 52.036C115.762 51.328 116.104 50.482 116.104 49.498C116.104 48.502 115.762 47.662 115.078 46.978C114.394 46.282 113.554 45.934 112.558 45.934C111.562 45.934 110.722 46.282 110.038 46.978C109.354 47.662 109.012 48.502 109.012 49.498C109.012 50.482 109.354 51.328 110.038 52.036ZM124.019 44.782C125.099 44.782 125.957 45.118 126.593 45.79C127.229 46.45 127.547 47.344 127.547 48.472V53.998H126.359V48.472C126.359 47.668 126.143 47.044 125.711 46.6C125.291 46.156 124.691 45.934 123.911 45.934C123.011 45.934 122.297 46.216 121.769 46.78C121.253 47.344 120.995 48.178 120.995 49.282V53.998H119.807V44.998H120.995V46.402C121.667 45.322 122.675 44.782 124.019 44.782Z" fill="#21252C"/>
<path d="M35.125 22.5H38.935C39.895 22.5 40.7 22.825 41.35 23.475C42 24.125 42.325 24.925 42.325 25.875C42.325 26.825 42 27.625 41.35 28.275C40.7 28.925 39.895 29.25 38.935 29.25H36.52V33H35.125V22.5ZM36.52 27.945H38.935C39.525 27.945 40.005 27.75 40.375 27.36C40.755 26.95 40.945 26.455 40.945 25.875C40.945 25.275 40.755 24.78 40.375 24.39C39.995 24 39.515 23.805 38.935 23.805H36.52V27.945ZM49.4764 26.79V25.5H50.7814V33H49.4764V31.71C48.8364 32.7 47.8914 33.195 46.6414 33.195C45.5814 33.195 44.6864 32.815 43.9564 32.055C43.2164 31.285 42.8464 30.35 42.8464 29.25C42.8464 28.16 43.2164 27.23 43.9564 26.46C44.6964 25.69 45.5914 25.305 46.6414 25.305C47.8914 25.305 48.8364 25.8 49.4764 26.79ZM46.8064 31.935C47.5664 31.935 48.2014 31.68 48.7114 31.17C49.2214 30.64 49.4764 30 49.4764 29.25C49.4764 28.49 49.2214 27.855 48.7114 27.345C48.2014 26.825 47.5664 26.565 46.8064 26.565C46.0564 26.565 45.4264 26.825 44.9164 27.345C44.4064 27.855 44.1514 28.49 44.1514 29.25C44.1514 30 44.4064 30.64 44.9164 31.17C45.4264 31.68 46.0564 31.935 46.8064 31.935ZM56.8086 29.16C57.6386 29.51 58.0536 30.105 58.0536 30.945C58.0536 31.595 57.7986 32.135 57.2886 32.565C56.7786 32.985 56.0736 33.195 55.1736 33.195C53.6736 33.195 52.6686 32.595 52.1586 31.395L53.2536 30.75C53.5336 31.57 54.1786 31.98 55.1886 31.98C55.6786 31.98 56.0636 31.875 56.3436 31.665C56.6236 31.455 56.7636 31.175 56.7636 30.825C56.7636 30.525 56.6486 30.28 56.4186 30.09C56.1986 29.9 55.8986 29.805 55.5186 29.805H54.4236V28.62H55.2336C55.6136 28.62 55.9086 28.53 56.1186 28.35C56.3286 28.16 56.4336 27.905 56.4336 27.585C56.4336 27.255 56.3086 26.995 56.0586 26.805C55.8086 26.605 55.4736 26.505 55.0536 26.505C54.2136 26.505 53.6436 26.86 53.3436 27.57L52.2786 26.955C52.8086 25.855 53.7336 25.305 55.0536 25.305C55.8536 25.305 56.4936 25.515 56.9736 25.935C57.4636 26.345 57.7086 26.86 57.7086 27.48C57.7086 28.24 57.4086 28.8 56.8086 29.16ZM63.6075 25.305C64.6575 25.305 65.5525 25.69 66.2925 26.46C67.0325 27.23 67.4025 28.16 67.4025 29.25C67.4025 30.35 67.0325 31.285 66.2925 32.055C65.5625 32.815 64.6675 33.195 63.6075 33.195C62.3675 33.195 61.4225 32.7 60.7725 31.71V36H59.4675V25.5H60.7725V26.79C61.4225 25.8 62.3675 25.305 63.6075 25.305ZM63.4425 31.935C64.1925 31.935 64.8225 31.68 65.3325 31.17C65.8425 30.64 66.0975 30 66.0975 29.25C66.0975 28.49 65.8425 27.855 65.3325 27.345C64.8225 26.825 64.1925 26.565 63.4425 26.565C62.6825 26.565 62.0475 26.825 61.5375 27.345C61.0275 27.855 60.7725 28.49 60.7725 29.25C60.7725 30 61.0275 30.64 61.5375 31.17C62.0475 31.68 62.6825 31.935 63.4425 31.935ZM75.1697 26.79V25.5H76.4747V33H75.1697V31.71C74.5297 32.7 73.5847 33.195 72.3347 33.195C71.2747 33.195 70.3797 32.815 69.6497 32.055C68.9097 31.285 68.5397 30.35 68.5397 29.25C68.5397 28.16 68.9097 27.23 69.6497 26.46C70.3897 25.69 71.2847 25.305 72.3347 25.305C73.5847 25.305 74.5297 25.8 75.1697 26.79ZM72.4997 31.935C73.2597 31.935 73.8947 31.68 74.4047 31.17C74.9147 30.64 75.1697 30 75.1697 29.25C75.1697 28.49 74.9147 27.855 74.4047 27.345C73.8947 26.825 73.2597 26.565 72.4997 26.565C71.7497 26.565 71.1197 26.825 70.6097 27.345C70.0997 27.855 69.8447 28.49 69.8447 29.25C69.8447 30 70.0997 30.64 70.6097 31.17C71.1197 31.68 71.7497 31.935 72.4997 31.935ZM81.8569 33.195C80.7469 33.195 79.8319 32.83 79.1119 32.1C78.3919 31.36 78.0319 30.42 78.0319 29.28C78.0319 27.99 78.2169 27.005 78.5869 26.325C78.9669 25.635 79.7369 25.01 80.8969 24.45C80.9569 24.42 81.0269 24.385 81.1069 24.345C81.1969 24.305 81.3019 24.26 81.4219 24.21C81.5519 24.15 81.6619 24.1 81.7519 24.06L82.5619 23.7C83.3619 23.3 83.7869 22.82 83.8369 22.26L84.8869 22.86C84.8169 23.21 84.7019 23.49 84.5419 23.7C84.5319 23.72 84.5019 23.765 84.4519 23.835C84.4019 23.895 84.3669 23.94 84.3469 23.97C84.3269 23.99 84.2919 24.025 84.2419 24.075C84.2019 24.115 84.1569 24.155 84.1069 24.195C84.0669 24.235 84.0119 24.275 83.9419 24.315C83.5719 24.545 83.3069 24.695 83.1469 24.765C83.0869 24.795 83.0219 24.825 82.9519 24.855C82.8919 24.885 82.8419 24.91 82.8019 24.93C82.7619 24.95 82.7319 24.965 82.7119 24.975L82.2169 25.185L81.7369 25.38C81.0669 25.67 80.5719 25.965 80.2519 26.265C79.9319 26.565 79.7019 26.945 79.5619 27.405C79.8719 27.025 80.2619 26.735 80.7319 26.535C81.2119 26.335 81.7019 26.235 82.2019 26.235C83.1519 26.235 83.9469 26.555 84.5869 27.195C85.2469 27.845 85.5769 28.67 85.5769 29.67C85.5769 30.69 85.2269 31.535 84.5269 32.205C83.8169 32.865 82.9269 33.195 81.8569 33.195ZM84.2719 29.67C84.2719 29 84.0519 28.455 83.6119 28.035C83.1819 27.605 82.6119 27.39 81.9019 27.39C81.2719 27.39 80.6919 27.595 80.1619 28.005C79.6519 28.415 79.3969 28.945 79.3969 29.595C79.3969 30.275 79.6319 30.835 80.1019 31.275C80.5719 31.715 81.1569 31.935 81.8569 31.935C82.5669 31.935 83.1419 31.72 83.5819 31.29C84.0419 30.86 84.2719 30.32 84.2719 29.67ZM93.2927 32.055C92.5327 32.815 91.5977 33.195 90.4877 33.195C89.3777 33.195 88.4427 32.815 87.6827 32.055C86.9227 31.295 86.5427 30.36 86.5427 29.25C86.5427 28.14 86.9227 27.205 87.6827 26.445C88.4427 25.685 89.3777 25.305 90.4877 25.305C91.5977 25.305 92.5327 25.685 93.2927 26.445C94.0627 27.215 94.4477 28.15 94.4477 29.25C94.4477 30.35 94.0627 31.285 93.2927 32.055ZM90.4877 31.92C91.2377 31.92 91.8677 31.665 92.3777 31.155C92.8877 30.645 93.1427 30.01 93.1427 29.25C93.1427 28.49 92.8877 27.855 92.3777 27.345C91.8677 26.835 91.2377 26.58 90.4877 26.58C89.7477 26.58 89.1227 26.835 88.6127 27.345C88.1027 27.855 87.8477 28.49 87.8477 29.25C87.8477 30.01 88.1027 30.645 88.6127 31.155C89.1227 31.665 89.7477 31.92 90.4877 31.92ZM94.8531 25.5H101.273V26.76H98.7231V33H97.4181V26.76H94.8531V25.5ZM108.334 26.79V25.5H109.639V33H108.334V31.71C107.694 32.7 106.749 33.195 105.499 33.195C104.439 33.195 103.544 32.815 102.814 32.055C102.074 31.285 101.704 30.35 101.704 29.25C101.704 28.16 102.074 27.23 102.814 26.46C103.554 25.69 104.449 25.305 105.499 25.305C106.749 25.305 107.694 25.8 108.334 26.79ZM105.664 31.935C106.424 31.935 107.059 31.68 107.569 31.17C108.079 30.64 108.334 30 108.334 29.25C108.334 28.49 108.079 27.855 107.569 27.345C107.059 26.825 106.424 26.565 105.664 26.565C104.914 26.565 104.284 26.825 103.774 27.345C103.264 27.855 103.009 28.49 103.009 29.25C103.009 30 103.264 30.64 103.774 31.17C104.284 31.68 104.914 31.935 105.664 31.935ZM116.806 28.62V25.5H118.111V33H116.806V29.865H112.921V33H111.616V25.5H112.921V28.62H116.806ZM126.427 32.055C125.667 32.815 124.732 33.195 123.622 33.195C122.512 33.195 121.577 32.815 120.817 32.055C120.057 31.295 119.677 30.36 119.677 29.25C119.677 28.14 120.057 27.205 120.817 26.445C121.577 25.685 122.512 25.305 123.622 25.305C124.732 25.305 125.667 25.685 126.427 26.445C127.197 27.215 127.582 28.15 127.582 29.25C127.582 30.35 127.197 31.285 126.427 32.055ZM123.622 31.92C124.372 31.92 125.002 31.665 125.512 31.155C126.022 30.645 126.277 30.01 126.277 29.25C126.277 28.49 126.022 27.855 125.512 27.345C125.002 26.835 124.372 26.58 123.622 26.58C122.882 26.58 122.257 26.835 121.747 27.345C121.237 27.855 120.982 28.49 120.982 29.25C120.982 30.01 121.237 30.645 121.747 31.155C122.257 31.665 122.882 31.92 123.622 31.92Z" fill="#909090"/>
<defs>
<filter id="filter0_d_584_3870" x="118.242" y="0.242676" width="87.5156" height="87.5146" filterUnits="userSpaceOnUse" color-interpolation-filters="sRGB">
<feFlood flood-opacity="0" result="BackgroundImageFix"/>
<feColorMatrix in="SourceAlpha" type="matrix" values="0 0 0 0 0 0 0 0 0 0 0 0 0 0 0 0 0 0 127 0" result="hardAlpha"/>
<feMorphology radius="2" operator="dilate" in="SourceAlpha" result="effect1_dropShadow_584_3870"/>
<feOffset dy="4"/>
<feGaussianBlur stdDeviation="10"/>
<feColorMatrix type="matrix" values="0 0 0 0 0.279167 0 0 0 0 0.279167 0 0 0 0 0.279167 0 0 0 0.25 0"/>
<feBlend mode="normal" in2="BackgroundImageFix" result="effect1_dropShadow_584_3870"/>
<feBlend mode="normal" in="SourceGraphic" in2="effect1_dropShadow_584_3870" result="shape"/>
</filter>
</defs>
</svg>
