<svg width="230" height="67" fill="none" xmlns="http://www.w3.org/2000/svg"><g clip-path="url(#a)"><g clip-path="url(#b)"><g clip-path="url(#c)"><g clip-path="url(#d)"><path d="M.008 64.49V.152h229.819V64.49H79.41v-2.08h148.333V2.232H2.092V62.41h12.214v2.08H.008Z" fill="#1E1E1E"/><path d="M22.983 60.006c.759 0 1.434.25 2.026.749l-.476.66a3.835 3.835 0 0 0-.75-.411 1.99 1.99 0 0 0-.738-.137c-.342 0-.61.08-.806.242-.196.163-.295.386-.295.669 0 .274.094.49.283.649.187.158.543.32 1.068.486.659.208 1.139.462 1.439.761.3.3.45.712.45 1.235 0 .616-.225 1.1-.676 1.453-.45.355-1.013.532-1.688.532-.893 0-1.647-.295-2.264-.886l.575-.624c.525.424 1.08.636 1.663.636.368 0 .663-.092.889-.274.225-.183.338-.437.338-.761 0-.233-.04-.42-.118-.562-.08-.141-.222-.269-.425-.382a5.358 5.358 0 0 0-.896-.354c-.626-.208-1.076-.458-1.351-.749-.275-.29-.413-.66-.413-1.11 0-.35.092-.662.276-.937.183-.274.438-.49.762-.648.326-.158.7-.237 1.127-.237Zm6.58 0c.525 0 .936.175 1.233.524.295.35.443.823.442 1.422v4.78h-1.125v-4.643c0-.424-.072-.73-.218-.918-.147-.186-.362-.279-.645-.28-.55 0-1.051.392-1.502 1.174v4.666h-1.125v-9.208l1.125-.125v3.706c.242-.358.509-.631.801-.819.292-.186.63-.28 1.014-.28Zm5.941 0c.843 0 1.497.295 1.965.886.466.59.7 1.439.7 2.545 0 1.065-.238 1.907-.713 2.526-.476.62-1.13.93-1.964.931-.842 0-1.499-.304-1.97-.911-.471-.608-.708-1.452-.707-2.533 0-1.09.238-1.937.713-2.54.476-.603 1.134-.904 1.976-.904Zm0 .898c-.492 0-.867.206-1.125.616-.259.413-.388 1.056-.388 1.93 0 1.705.5 2.558 1.501 2.558 1 0 1.501-.857 1.501-2.57 0-.874-.125-1.515-.376-1.922-.25-.408-.62-.612-1.113-.612Zm10.17-.736h1.064l-1.351 6.563H43.96l-1.076-5.54-1.064 5.54h-1.425l-1.377-6.563h1.114l1.025 5.715 1.152-5.715h1.213l1.113 5.727 1.039-5.727Zm5.017-.15c.216 0 .404.025.563.075l-.188 1.086a1.714 1.714 0 0 0-.513-.075c-.367 0-.665.145-.896.437-.228.29-.409.736-.542 1.335v3.855h-1.126v-6.563h.976l.087 1.298c.325-.965.871-1.447 1.639-1.448Zm3.953-.012c.842 0 1.497.295 1.964.886.466.59.7 1.439.7 2.545 0 1.065-.237 1.907-.713 2.526-.475.62-1.13.93-1.964.931-.843 0-1.5-.304-1.971-.911-.47-.608-.705-1.452-.706-2.533 0-1.09.238-1.937.713-2.54.476-.603 1.134-.904 1.977-.904Zm0 .898c-.492 0-.868.206-1.126.616-.259.413-.388 1.056-.388 1.93 0 1.705.5 2.558 1.5 2.558 1.002 0 1.502-.857 1.502-2.57 0-.874-.125-1.515-.375-1.922-.25-.408-.621-.612-1.113-.612Zm6.58-.898c.842 0 1.497.295 1.964.886.466.59.7 1.439.7 2.545 0 1.065-.238 1.907-.713 2.526-.475.62-1.13.93-1.964.931-.843 0-1.499-.304-1.969-.911-.472-.608-.708-1.452-.708-2.533 0-1.09.238-1.937.713-2.54.476-.603 1.134-.904 1.977-.904Zm0 .898c-.492 0-.868.206-1.126.616-.259.413-.388 1.056-.388 1.93 0 1.705.5 2.558 1.5 2.558 1.002 0 1.502-.857 1.502-2.57 0-.874-.125-1.515-.375-1.922-.25-.408-.621-.612-1.113-.612Zm10.37-.898c.476 0 .855.176 1.139.529.283.354.425.827.425 1.418v4.778h-1.114v-4.654c0-.799-.258-1.198-.775-1.198-.5 0-.96.383-1.377 1.148v4.704H68.78v-4.654c0-.799-.258-1.198-.775-1.198-.509 0-.968.383-1.376 1.148v4.704h-1.113v-6.563h.975l.088.96c.483-.748 1.067-1.122 1.75-1.122.36 0 .664.104.914.312.25.207.43.503.538.886.508-.799 1.113-1.198 1.814-1.198Z" fill="#1E1E1E"/><g clip-path="url(#e)"><g clip-path="url(#f)"><g clip-path="url(#g)"><g clip-path="url(#h)"><g clip-path="url(#i)"><g clip-path="url(#j)"><path d="M36.733 39.186h-1.95v-7.01c0-1.14-.274-2.006-.82-2.598-.544-.596-1.28-.893-2.206-.893-1.084 0-1.912.417-2.486 1.252-.576.835-.865 1.989-.865 3.462h-.9c0-1.074.107-2.014.32-2.819.213-.808.523-1.48.93-2.015.41-.536.907-.936 1.49-1.202.584-.267 1.246-.4 1.986-.4.944 0 1.75.21 2.42.63.671.418 1.186 1.018 1.546 1.8.357.782.535 1.71.535 2.784v7.01Zm-16.804 0h-1.95V27.263h1.675l.225 2.394c.377-.864.904-1.53 1.58-1.995.68-.466 1.496-.698 2.446-.698.944 0 1.75.209 2.42.628.67.42 1.186 1.02 1.546 1.801.357.782.535 1.71.535 2.784v7.01h-1.925v-7.01c0-1.14-.274-2.007-.82-2.6-.544-.595-1.288-.892-2.231-.892-.717 0-1.337.194-1.86.583-.527.393-.933.953-1.216 1.682-.283.725-.425 1.591-.425 2.599v5.637Zm25.767.3c-1.074 0-2.03-.238-2.866-.714-.84-.472-1.502-1.174-1.986-2.105-.483-.931-.725-2.079-.725-3.443 0-1.37.242-2.519.725-3.447.484-.928 1.146-1.63 1.986-2.105.837-.472 1.792-.709 2.866-.709 1.067 0 2.02.237 2.86.709.837.476 1.496 1.177 1.976 2.105.477.928.715 2.077.715 3.447 0 1.364-.238 2.512-.715 3.443-.48.931-1.139 1.633-1.976 2.105-.84.476-1.793.714-2.86.714Zm-.05-1.697c.776 0 1.435-.184 1.975-.553.544-.373.955-.9 1.235-1.582.277-.682.416-1.492.416-2.43 0-1.423-.296-2.544-.886-3.362-.593-.818-1.473-1.227-2.64-1.227-.784 0-1.444.184-1.98.553-.538.37-.946.899-1.226 1.587-.28.685-.42 1.502-.42 2.45 0 1.403.298 2.515.895 3.337.597.818 1.474 1.227 2.63 1.227Zm13.668 1.697c-.967 0-1.855-.26-2.666-.779-.806-.522-1.452-1.254-1.935-2.195-.483-.944-.725-2.057-.725-3.337 0-1.274.236-2.377.71-3.308.477-.931 1.108-1.648 1.895-2.15a4.728 4.728 0 0 1 2.596-.753c.874 0 1.642.21 2.306.633.663.426 1.178 1.038 1.545 1.836s.55 1.763.55 2.894h-.75c0-.792-.157-1.457-.47-1.996-.313-.542-.72-.951-1.22-1.227a3.25 3.25 0 0 0-1.61-.42 3.14 3.14 0 0 0-1.786.544c-.537.36-.966.875-1.286 1.547-.32.669-.48 1.468-.48 2.4 0 .948.16 1.762.48 2.444.32.682.749 1.206 1.286 1.572a3.147 3.147 0 0 0 3.351.124 3.327 3.327 0 0 0 1.245-1.242c.327-.545.49-1.204.49-1.976h.75c0 1.155-.19 2.134-.57 2.939-.38.801-.894 1.41-1.54 1.826a3.905 3.905 0 0 1-2.166.623Zm5.476-.3h-1.625l-.325-2.794V22.174h1.95v17.012Zm14.164 0h-1.7l-.25-2.619v-5.114c0-1.074-.23-1.845-.69-2.314-.457-.47-1.144-.704-2.061-.704-.517 0-.985.075-1.406.225-.423.15-.756.38-1 .693-.246.31-.37.71-.37 1.202h-2.175c0-.864.211-1.561.635-2.09.427-.529 1.013-.911 1.76-1.147.744-.236 1.596-.355 2.556-.355.917 0 1.729.153 2.436.46a3.55 3.55 0 0 1 1.665 1.466c.4.669.6 1.54.6 2.614v7.683Zm-5.776.3c-.984 0-1.797-.175-2.441-.524-.64-.35-1.119-.804-1.435-1.362a3.493 3.493 0 0 1-.476-1.756c0-.809.202-1.465.606-1.971.403-.509.955-.881 1.655-1.117.7-.237 1.489-.355 2.366-.355.623 0 1.25.062 1.88.185.63.126 1.246.298 1.846.514v1.222c-.5-.2-1.066-.358-1.696-.474a9.588 9.588 0 0 0-1.73-.175c-.8 0-1.476.165-2.026.494-.55.326-.825.885-.825 1.677 0 .582.21 1.08.63 1.496.42.416 1.094.624 2.02.624.65 0 1.236-.151 1.756-.454a3.77 3.77 0 0 0 1.24-1.142c.304-.46.456-.917.456-1.373h.475c0 .799-.174 1.539-.52 2.22a4.2 4.2 0 0 1-1.48 1.647c-.644.416-1.411.623-2.301.623Zm15.864 0c-.874 0-1.634-.2-2.28-.6-.648-.398-1.146-.982-1.496-1.75-.35-.772-.525-1.71-.525-2.814h.825c0 .738.155 1.362.465 1.87.307.506.708.89 1.205 1.153a3.333 3.333 0 0 0 1.58.394c.6 0 1.176-.172 1.726-.518.55-.346 1-.855 1.35-1.527.35-.675.526-1.507.526-2.494 0-.948-.16-1.76-.48-2.435-.32-.672-.752-1.187-1.296-1.547a3.203 3.203 0 0 0-1.8-.533c-.567 0-1.1.136-1.6.409-.5.276-.904.678-1.211 1.207-.31.526-.465 1.176-.465 1.95h-.825c0-1.157.191-2.128.575-2.913.383-.785.903-1.377 1.56-1.776a4.2 4.2 0 0 1 2.216-.599 4.9 4.9 0 0 1 2.615.749c.807.499 1.46 1.214 1.96 2.145.501.931.751 2.045.751 3.343 0 1.313-.252 2.44-.755 3.377-.504.941-1.164 1.661-1.98 2.16a4.977 4.977 0 0 1-2.641.748Zm-3.476 5.562h-1.95V27.263h1.625l.325 2.794v14.991Zm16.814-5.563c-1.033 0-1.955-.264-2.766-.793-.813-.529-1.455-1.262-1.925-2.2-.474-.938-.71-2.019-.71-3.243 0-1.307.233-2.43.7-3.367.467-.941 1.107-1.663 1.92-2.165.814-.502 1.741-.753 2.781-.753.91 0 1.686.182 2.326.548.643.366 1.16.86 1.55 1.482.394.625.667 1.33.82 2.115.154.785.197 1.598.13 2.44h-8.652V32.35h7.367l-.575.375a7.257 7.257 0 0 0-.08-1.472 4.38 4.38 0 0 0-.445-1.352 2.574 2.574 0 0 0-.916-.993c-.39-.25-.89-.374-1.5-.374-.767 0-1.409.195-1.925.584a3.57 3.57 0 0 0-1.16 1.541 5.398 5.398 0 0 0-.39 2.066v.798c0 .831.128 1.575.384 2.23.254.658.634 1.179 1.141 1.561.51.383 1.152.574 1.925.574.777 0 1.415-.188 1.916-.564.5-.372.803-.924.91-1.656h2.025c-.123.792-.406 1.472-.85 2.04a4.329 4.329 0 0 1-1.685 1.313c-.684.309-1.456.464-2.316.464Zm10.643-.299h-1.951V27.238h1.951v11.948Zm0-5.388h-.6c0-1.513.145-2.77.435-3.771.293-1.005.72-1.753 1.28-2.245.564-.496 1.25-.744 2.061-.744.266 0 .51.019.73.055.22.037.443.093.67.17l-.125 1.92a6.212 6.212 0 0 0-.765-.194 3.893 3.893 0 0 0-.735-.08c-.711 0-1.282.201-1.716.604-.433.402-.748.97-.945 1.701-.193.732-.29 1.593-.29 2.584Zm12.563 5.688a3.93 3.93 0 0 1-2.171-.624c-.646-.416-1.158-1.025-1.535-1.826-.38-.805-.57-1.784-.57-2.939h.75c0 .772.16 1.43.48 1.976.32.546.735.96 1.246 1.242.506.283 1.04.424 1.6.424.64 0 1.227-.182 1.76-.548.534-.366.962-.89 1.286-1.572.32-.682.48-1.496.48-2.444 0-.932-.158-1.731-.475-2.4-.317-.672-.745-1.187-1.286-1.547a3.125 3.125 0 0 0-1.79-.543 3.26 3.26 0 0 0-1.605.419 3.161 3.161 0 0 0-1.231 1.227c-.31.539-.465 1.204-.465 1.996h-.75c0-1.131.185-2.096.555-2.894.37-.798.885-1.41 1.545-1.836.657-.422 1.424-.634 2.301-.634.94 0 1.806.252 2.596.754.787.502 1.417 1.219 1.89 2.15.477.931.715 2.034.715 3.308 0 1.28-.241 2.393-.725 3.337-.483.941-1.13 1.673-1.94 2.195a4.82 4.82 0 0 1-2.661.779Zm-4.101-.3h-1.375V22.174h1.95v14.218l-.575 2.794Zm22.541 0h-1.701l-.25-2.619v-5.114c0-1.074-.228-1.845-.685-2.314-.46-.47-1.149-.704-2.065-.704a4.16 4.16 0 0 0-1.406.225c-.42.15-.753.38-1 .693-.247.31-.37.71-.37 1.202h-2.176c0-.864.214-1.561.64-2.09.424-.529 1.009-.911 1.756-1.147.747-.236 1.599-.355 2.556-.355.916 0 1.73.153 2.44.46.707.309 1.26.798 1.661 1.466.4.669.6 1.54.6 2.614v7.683Zm-5.777.3c-.983 0-1.795-.175-2.435-.524-.644-.35-1.124-.804-1.441-1.362a3.5 3.5 0 0 1-.475-1.756c0-.809.202-1.465.605-1.971.407-.509.961-.881 1.661-1.117.7-.237 1.487-.355 2.36-.355a9.75 9.75 0 0 1 1.881.185c.63.126 1.245.298 1.845.514v1.222a8.98 8.98 0 0 0-1.695-.474 9.536 9.536 0 0 0-1.731-.175c-.8 0-1.475.165-2.025.494-.55.326-.825.885-.825 1.677 0 .582.21 1.08.63 1.496.423.416 1.097.624 2.02.624.651 0 1.236-.151 1.756-.454a3.703 3.703 0 0 0 1.24-1.142c.304-.46.455-.917.455-1.373h.475c0 .799-.173 1.539-.52 2.22a4.149 4.149 0 0 1-1.48 1.647c-.64.416-1.407.623-2.301.623Zm29.193-.3h-1.951v-7.01c0-1.14-.271-2.006-.815-2.598-.547-.596-1.284-.893-2.211-.893-1.083 0-1.912.417-2.485 1.252-.577.835-.865 1.989-.865 3.462h-.901c0-1.074.107-2.014.32-2.819.214-.808.524-1.48.931-2.015.41-.536.907-.936 1.49-1.202.584-.267 1.245-.4 1.986-.4.943 0 1.75.21 2.42.63.67.418 1.186 1.018 1.546 1.8.356.782.535 1.71.535 2.784v7.01Zm-16.805 0h-1.95V27.263h1.675l.225 2.394c.377-.864.906-1.53 1.586-1.995.677-.466 1.49-.698 2.44-.698.944 0 1.751.209 2.421.628.67.42 1.185 1.02 1.545 1.801.357.782.536 1.71.536 2.784v7.01h-1.926v-7.01c0-1.14-.272-2.007-.815-2.6-.547-.595-1.292-.892-2.236-.892-.717 0-1.337.194-1.86.583-.527.393-.932.953-1.215 1.682-.284.725-.426 1.591-.426 2.599v5.637Zm26.922.3c-.8 0-1.523-.208-2.17-.624-.647-.416-1.161-1.025-1.541-1.826-.376-.805-.565-1.784-.565-2.939h.75c0 .772.16 1.43.481 1.976.32.546.735.96 1.245 1.242.507.283 1.04.424 1.6.424a3.05 3.05 0 0 0 1.761-.548c.533-.366.96-.89 1.28-1.572.323-.682.485-1.496.485-2.444 0-.932-.158-1.731-.475-2.4-.317-.672-.745-1.187-1.285-1.547a3.13 3.13 0 0 0-1.791-.543 3.29 3.29 0 0 0-1.61.419c-.504.276-.912.685-1.225 1.227-.311.539-.466 1.204-.466 1.996h-.75c0-1.131.185-2.096.555-2.894.37-.798.886-1.41 1.546-1.836.657-.422 1.423-.634 2.3-.634a4.72 4.72 0 0 1 2.591.754c.79.502 1.422 1.219 1.896 2.15.476.931.715 2.034.715 3.308 0 1.28-.242 2.393-.725 3.337-.484.941-1.131 1.673-1.941 2.195a4.82 4.82 0 0 1-2.661.779Zm-4.101-.3h-1.375V22.174h1.95v14.218l-.575 2.794Zm14.539-14.742c-.4 0-.717-.115-.95-.344-.234-.23-.35-.53-.35-.903 0-.366.116-.657.35-.873.233-.216.55-.324.95-.324.4 0 .717.108.95.324.234.216.35.507.35.873 0 .372-.116.673-.35.903-.233.23-.55.344-.95.344Zm.975 14.742h-1.95V27.238h1.95v11.948Zm15.804 0h-1.925v-7.01c0-1.14-.274-2.006-.82-2.598-.547-.596-1.291-.893-2.231-.893-.717 0-1.339.194-1.865.583-.524.393-.927.953-1.211 1.682-.283.725-.425 1.591-.425 2.599h-.75c0-1.39.183-2.576.55-3.557.367-.981.902-1.731 1.605-2.25.704-.52 1.561-.779 2.571-.779.94 0 1.746.21 2.416.63.673.418 1.188 1.018 1.545 1.8.36.782.54 1.71.54 2.784v7.01Zm-8.477 0h-1.95V27.263h1.675l.275 2.744v9.18Zm14.239-14.742c-.4 0-.717-.115-.95-.344-.234-.23-.351-.53-.351-.903 0-.366.117-.657.351-.873.233-.216.55-.324.95-.324.4 0 .717.108.95.324.233.216.35.507.35.873 0 .372-.117.673-.35.903-.233.23-.55.344-.95.344Zm.975 14.742h-1.95V27.238h1.95v11.948Z" fill="#1E1E1E"/></g></g></g></g></g></g></g></g></g></g><defs><clipPath id="a"><path fill="#fff" d="M0 0h230v67H0z"/></clipPath><clipPath id="b"><path fill="#fff" transform="translate(.027 .213)" d="M0 0h229.77v66.621H0z"/></clipPath><clipPath id="c"><path fill="#fff" transform="translate(.003 .153)" d="M0 0h229.819v66.741H0z"/></clipPath><clipPath id="d"><path fill="#fff" transform="translate(.006 .153)" d="M0 0h229.819v66.741H0z"/></clipPath><clipPath id="e"><path fill="#fff" transform="translate(17.98 21.999)" d="M0 0h193.875v23.049H0z"/></clipPath><clipPath id="f"><path fill="#fff" transform="translate(17.979 22)" d="M0 0h193.875v23.049H0z"/></clipPath><clipPath id="g"><path fill="#fff" transform="translate(17.977 22)" d="M0 0h193.875v23.049H0z"/></clipPath><clipPath id="h"><path fill="#fff" transform="translate(17.975 22)" d="M0 0h193.875v23.049H0z"/></clipPath><clipPath id="i"><path fill="#fff" transform="translate(17.973 22)" d="M0 0h193.875v23.049H0z"/></clipPath><clipPath id="j"><path fill="#fff" transform="translate(17.97 22)" d="M0 0h193.875v23.049H0z"/></clipPath></defs></svg>