<svg width="206" height="88" fill="none" xmlns="http://www.w3.org/2000/svg"><g filter="url(#a)"><rect x="139" y="40" width="32.527" height="32.527" rx="3" transform="rotate(-45 139 40)" fill="#1C1C1C"/></g><circle cx="162.051" cy="40" fill="#fff" r="13.172"/><rect x="153.818" y="31.767" width="16.582" height="16.582" rx="3" fill="#1C1C1C"/><circle cx="162.029" cy="39.978" fill="#fff" r="5.74"/><rect width="3.721" height="3.721" rx="1" transform="rotate(-45.002 128.073 -172.623)" fill="#1C1C1C"/><path d="M10.764 53.998H8.082l-2.538-4.374h-1.89v4.374H1.17v-12.6h5.04c1.164 0 2.154.408 2.97 1.224.816.816 1.224 1.8 1.224 2.952 0 .78-.222 1.506-.666 2.178a4.191 4.191 0 0 1-1.764 1.494l2.79 4.752ZM6.21 43.72H3.654v3.726H6.21c.468 0 .87-.18 1.206-.54a1.92 1.92 0 0 0 .504-1.332c0-.516-.168-.954-.504-1.314-.336-.36-.738-.54-1.206-.54Zm14.2 6.732h-6.786c.3 1.128 1.146 1.692 2.538 1.692.888 0 1.56-.3 2.016-.9l1.872 1.08c-.888 1.284-2.196 1.926-3.924 1.926-1.488 0-2.682-.45-3.582-1.35-.9-.9-1.35-2.034-1.35-3.402 0-1.344.444-2.472 1.332-3.384.876-.912 2.016-1.368 3.42-1.368 1.332 0 2.418.456 3.258 1.368.864.912 1.296 2.04 1.296 3.384 0 .252-.03.57-.09.954Zm-6.822-1.8h4.59c-.132-.588-.402-1.038-.81-1.35-.396-.312-.87-.468-1.422-.468-.624 0-1.14.162-1.548.486-.408.312-.678.756-.81 1.332Zm15.284-2.592v-1.062h2.322v12.6h-2.322v-4.662c-.684.876-1.656 1.314-2.916 1.314-1.212 0-2.25-.456-3.114-1.368-.852-.924-1.278-2.052-1.278-3.384 0-1.32.426-2.442 1.278-3.366.864-.924 1.902-1.386 3.114-1.386 1.26 0 2.232.438 2.916 1.314Zm-4.284 5.274c.492.468 1.092.702 1.8.702.72 0 1.314-.234 1.782-.702.468-.48.702-1.092.702-1.836s-.234-1.35-.702-1.818c-.468-.48-1.062-.72-1.782-.72s-1.32.24-1.8.72c-.468.468-.702 1.074-.702 1.818s.234 1.356.702 1.836Zm14.67-1.476v-4.86h2.322v9h-2.322V52.99c-.552.84-1.446 1.26-2.682 1.26-.984 0-1.8-.33-2.448-.99-.636-.672-.954-1.584-.954-2.736v-5.526h2.322v5.238c0 .588.156 1.044.468 1.368.324.324.762.486 1.314.486.612 0 1.092-.186 1.44-.558.36-.384.54-.942.54-1.674Zm13.197.594h-6.786c.3 1.128 1.146 1.692 2.538 1.692.887 0 1.56-.3 2.015-.9l1.872 1.08c-.888 1.284-2.196 1.926-3.924 1.926-1.488 0-2.681-.45-3.581-1.35-.9-.9-1.35-2.034-1.35-3.402 0-1.344.444-2.472 1.332-3.384.876-.912 2.016-1.368 3.42-1.368 1.331 0 2.417.456 3.258 1.368.863.912 1.295 2.04 1.295 3.384 0 .252-.03.57-.09.954Zm-6.822-1.8h4.59c-.133-.588-.402-1.038-.81-1.35-.396-.312-.87-.468-1.422-.468-.624 0-1.14.162-1.548.486-.408.312-.678.756-.81 1.332Zm10.323-1.098c0 .384.546.714 1.638.99.384.084.732.186 1.044.306.312.108.624.27.936.486.324.204.576.48.756.828.18.348.27.75.27 1.206 0 .924-.348 1.638-1.044 2.142-.696.492-1.554.738-2.574.738-1.848 0-3.108-.714-3.78-2.142l2.016-1.134c.276.78.864 1.17 1.764 1.17.828 0 1.242-.258 1.242-.774 0-.384-.546-.714-1.638-.99a11.136 11.136 0 0 1-1.044-.324 5.66 5.66 0 0 1-.936-.468 2.267 2.267 0 0 1-.774-.81 2.584 2.584 0 0 1-.252-1.17c0-.888.324-1.584.972-2.088.66-.516 1.476-.774 2.448-.774.732 0 1.398.168 1.998.504.6.324 1.074.792 1.422 1.404l-1.98 1.08c-.288-.612-.768-.918-1.44-.918-.3 0-.552.072-.756.216a.607.607 0 0 0-.288.522Zm11.022-2.556v2.232h-2.034v3.744c0 .312.078.54.234.684.156.144.384.228.684.252.3.012.672.006 1.116-.018v2.106c-1.572.18-2.694.036-3.366-.432-.66-.48-.99-1.344-.99-2.592V47.23h-1.566v-2.232h1.566V43.18l2.322-.702v2.52h2.034Zm6.655-3.6h4.86c1.716 0 3.132.612 4.248 1.836 1.128 1.2 1.692 2.688 1.692 4.464 0 1.776-.564 3.27-1.692 4.482-1.116 1.212-2.532 1.818-4.248 1.818h-4.86v-12.6Zm1.26 11.412h3.6c1.38 0 2.508-.492 3.384-1.476.888-.996 1.332-2.208 1.332-3.636s-.444-2.64-1.332-3.636c-.876-.984-2.004-1.476-3.384-1.476h-3.6V52.81Zm15.673-8.028c1.344 0 2.418.474 3.222 1.422.828.936 1.242 2.046 1.242 3.33 0 .06-.012.246-.036.558h-7.902c.12.9.504 1.62 1.152 2.16.648.54 1.458.81 2.43.81 1.368 0 2.334-.51 2.898-1.53l1.044.612a4.196 4.196 0 0 1-1.638 1.53c-.684.36-1.458.54-2.322.54-1.416 0-2.568-.444-3.456-1.332-.888-.888-1.332-2.016-1.332-3.384 0-1.356.438-2.478 1.314-3.366.876-.9 2.004-1.35 3.384-1.35Zm0 1.152c-.936 0-1.722.276-2.358.828-.624.552-.996 1.278-1.116 2.178h6.714c-.132-.96-.498-1.698-1.098-2.214a3.222 3.222 0 0 0-2.142-.792Zm6.939 1.422c0 .696.618 1.206 1.854 1.53.348.084.576.144.684.18.108.024.318.09.63.198.324.096.546.18.666.252a6.8 6.8 0 0 1 .54.342c.228.144.39.294.486.45a2.6 2.6 0 0 1 .27.576c.084.228.126.474.126.738 0 .768-.306 1.392-.918 1.872-.588.48-1.368.72-2.34.72-.84 0-1.566-.186-2.178-.558-.612-.384-1.044-.888-1.296-1.512l1.008-.594c.168.468.468.84.9 1.116.444.264.966.396 1.566.396.612 0 1.11-.12 1.494-.36.384-.24.576-.6.576-1.08 0-.696-.618-1.206-1.854-1.53a49.865 49.865 0 0 0-.684-.162 25.03 25.03 0 0 0-.648-.198 4.853 4.853 0 0 1-.666-.27c-.12-.072-.294-.18-.522-.324-.228-.156-.39-.306-.486-.45a3.248 3.248 0 0 1-.27-.576 2.272 2.272 0 0 1-.126-.756c0-.732.288-1.344.864-1.836.6-.492 1.338-.738 2.214-.738.72 0 1.356.162 1.908.486a2.94 2.94 0 0 1 1.242 1.35l-.99.576c-.336-.84-1.056-1.26-2.16-1.26-.54 0-.99.126-1.35.378-.36.252-.54.6-.54 1.044Zm8.608-5.13c0 .24-.084.444-.252.612a.833.833 0 0 1-.612.252.833.833 0 0 1-.612-.252.833.833 0 0 1-.252-.612c0-.24.084-.444.252-.612a.833.833 0 0 1 .612-.252c.24 0 .444.084.612.252a.833.833 0 0 1 .252.612Zm-.27 11.772h-1.188v-9h1.188v9Zm10.261-7.236v-1.764h1.188v8.64c0 1.296-.444 2.316-1.332 3.06-.888.744-1.95 1.116-3.186 1.116-2.1 0-3.522-.732-4.266-2.196l1.044-.594c.54 1.092 1.614 1.638 3.222 1.638 1.032 0 1.842-.27 2.43-.81.6-.54.9-1.278.9-2.214v-1.404c-.828 1.32-2.04 1.98-3.636 1.98-1.284 0-2.382-.456-3.294-1.368-.9-.912-1.35-2.028-1.35-3.348 0-1.32.45-2.436 1.35-3.348.912-.912 2.01-1.368 3.294-1.368 1.596 0 2.808.66 3.636 1.98Zm-6.066 5.274c.684.684 1.524 1.026 2.52 1.026s1.836-.342 2.52-1.026a3.525 3.525 0 0 0 1.026-2.538c0-.996-.342-1.836-1.026-2.52-.684-.696-1.524-1.044-2.52-1.044s-1.836.348-2.52 1.044c-.684.684-1.026 1.524-1.026 2.52 0 .984.342 1.83 1.026 2.538Zm13.981-7.254c1.08 0 1.938.336 2.574 1.008.636.66.954 1.554.954 2.682v5.526h-1.188v-5.526c0-.804-.216-1.428-.648-1.872-.42-.444-1.02-.666-1.8-.666-.9 0-1.614.282-2.142.846-.516.564-.774 1.398-.774 2.502v4.716h-1.188v-9h1.188v1.404c.672-1.08 1.68-1.62 3.024-1.62Z" fill="#21252C"/><path d="M35.125 22.5h3.81c.96 0 1.765.325 2.415.975.65.65.975 1.45.975 2.4s-.325 1.75-.975 2.4c-.65.65-1.455.975-2.415.975H36.52V33h-1.395V22.5Zm1.395 5.445h2.415c.59 0 1.07-.195 1.44-.585.38-.41.57-.905.57-1.485 0-.6-.19-1.095-.57-1.485-.38-.39-.86-.585-1.44-.585H36.52v4.14Zm12.956-1.155V25.5h1.305V33h-1.305v-1.29c-.64.99-1.585 1.485-2.835 1.485-1.06 0-1.955-.38-2.685-1.14-.74-.77-1.11-1.705-1.11-2.805 0-1.09.37-2.02 1.11-2.79.74-.77 1.635-1.155 2.685-1.155 1.25 0 2.195.495 2.835 1.485Zm-2.67 5.145c.76 0 1.395-.255 1.905-.765.51-.53.765-1.17.765-1.92 0-.76-.255-1.395-.765-1.905-.51-.52-1.145-.78-1.905-.78-.75 0-1.38.26-1.89.78-.51.51-.765 1.145-.765 1.905 0 .75.255 1.39.765 1.92.51.51 1.14.765 1.89.765ZM56.81 29.16c.83.35 1.245.945 1.245 1.785 0 .65-.255 1.19-.765 1.62-.51.42-1.215.63-2.115.63-1.5 0-2.505-.6-3.015-1.8l1.095-.645c.28.82.925 1.23 1.935 1.23.49 0 .875-.105 1.155-.315.28-.21.42-.49.42-.84a.91.91 0 0 0-.345-.735c-.22-.19-.52-.285-.9-.285h-1.095V28.62h.81c.38 0 .675-.09.885-.27.21-.19.315-.445.315-.765 0-.33-.125-.59-.375-.78-.25-.2-.585-.3-1.005-.3-.84 0-1.41.355-1.71 1.065l-1.065-.615c.53-1.1 1.455-1.65 2.775-1.65.8 0 1.44.21 1.92.63.49.41.735.925.735 1.545 0 .76-.3 1.32-.9 1.68Zm6.799-3.855c1.05 0 1.944.385 2.685 1.155.74.77 1.11 1.7 1.11 2.79 0 1.1-.37 2.035-1.11 2.805-.73.76-1.626 1.14-2.686 1.14-1.24 0-2.184-.495-2.834-1.485V36h-1.306V25.5h1.306v1.29c.65-.99 1.594-1.485 2.834-1.485Zm-.165 6.63c.75 0 1.38-.255 1.89-.765.51-.53.764-1.17.764-1.92 0-.76-.254-1.395-.764-1.905-.51-.52-1.14-.78-1.89-.78-.76 0-1.395.26-1.905.78-.51.51-.765 1.145-.765 1.905 0 .75.255 1.39.764 1.92.51.51 1.145.765 1.906.765ZM75.17 26.79V25.5h1.305V33H75.17v-1.29c-.64.99-1.585 1.485-2.835 1.485-1.06 0-1.955-.38-2.685-1.14-.74-.77-1.11-1.705-1.11-2.805 0-1.09.37-2.02 1.11-2.79.74-.77 1.635-1.155 2.685-1.155 1.25 0 2.195.495 2.835 1.485Zm-2.67 5.145c.76 0 1.395-.255 1.905-.765.51-.53.765-1.17.765-1.92 0-.76-.255-1.395-.765-1.905-.51-.52-1.145-.78-1.905-.78-.75 0-1.38.26-1.89.78-.51.51-.765 1.145-.765 1.905 0 .75.255 1.39.765 1.92.51.51 1.14.765 1.89.765Zm9.357 1.26c-1.11 0-2.025-.365-2.745-1.095-.72-.74-1.08-1.68-1.08-2.82 0-1.29.185-2.275.555-2.955.38-.69 1.15-1.315 2.31-1.875l.21-.105c.09-.04.195-.085.315-.135l.33-.15.81-.36c.8-.4 1.225-.88 1.275-1.44l1.05.6c-.07.35-.185.63-.345.84-.01.02-.04.065-.09.135a1.79 1.79 0 0 0-.105.135l-.105.105c-.04.04-.085.08-.135.12a.783.783 0 0 1-.165.12 7.42 7.42 0 0 1-.99.54l-.15.075-.09.045-.495.21-.48.195c-.67.29-1.165.585-1.485.885-.32.3-.55.68-.69 1.14.31-.38.7-.67 1.17-.87.48-.2.97-.3 1.47-.3.95 0 1.745.32 2.385.96.66.65.99 1.475.99 2.475 0 1.02-.35 1.865-1.05 2.535-.71.66-1.6.99-2.67.99Zm2.415-3.525c0-.67-.22-1.215-.66-1.635-.43-.43-1-.645-1.71-.645-.63 0-1.21.205-1.74.615-.51.41-.765.94-.765 1.59 0 .68.235 1.24.705 1.68.47.44 1.055.66 1.755.66.71 0 1.285-.215 1.725-.645.46-.43.69-.97.69-1.62Zm9.02 2.385c-.76.76-1.694 1.14-2.804 1.14-1.11 0-2.045-.38-2.805-1.14-.76-.76-1.14-1.695-1.14-2.805s.38-2.045 1.14-2.805c.76-.76 1.695-1.14 2.805-1.14s2.045.38 2.805 1.14c.77.77 1.155 1.705 1.155 2.805s-.385 2.035-1.155 2.805Zm-2.804-.135c.75 0 1.38-.255 1.89-.765s.765-1.145.765-1.905-.255-1.395-.765-1.905-1.14-.765-1.89-.765c-.74 0-1.365.255-1.875.765s-.765 1.145-.765 1.905.255 1.395.765 1.905 1.135.765 1.875.765Zm4.365-6.42h6.42v1.26h-2.55V33h-1.305v-6.24h-2.565V25.5Zm13.481 1.29V25.5h1.305V33h-1.305v-1.29c-.64.99-1.585 1.485-2.835 1.485-1.06 0-1.955-.38-2.685-1.14-.74-.77-1.11-1.705-1.11-2.805 0-1.09.37-2.02 1.11-2.79.74-.77 1.635-1.155 2.685-1.155 1.25 0 2.195.495 2.835 1.485Zm-2.67 5.145c.76 0 1.395-.255 1.905-.765.51-.53.765-1.17.765-1.92 0-.76-.255-1.395-.765-1.905-.51-.52-1.145-.78-1.905-.78-.75 0-1.38.26-1.89.78-.51.51-.765 1.145-.765 1.905 0 .75.255 1.39.765 1.92.51.51 1.14.765 1.89.765Zm11.142-3.315V25.5h1.305V33h-1.305v-3.135h-3.885V33h-1.305v-7.5h1.305v3.12h3.885Zm9.621 3.435c-.76.76-1.695 1.14-2.805 1.14s-2.045-.38-2.805-1.14c-.76-.76-1.14-1.695-1.14-2.805s.38-2.045 1.14-2.805c.76-.76 1.695-1.14 2.805-1.14s2.045.38 2.805 1.14c.77.77 1.155 1.705 1.155 2.805s-.385 2.035-1.155 2.805Zm-2.805-.135c.75 0 1.38-.255 1.89-.765s.765-1.145.765-1.905-.255-1.395-.765-1.905-1.14-.765-1.89-.765c-.74 0-1.365.255-1.875.765s-.765 1.145-.765 1.905.255 1.395.765 1.905 1.135.765 1.875.765Z" fill="#909090"/><defs><filter id="a" x="118.242" y=".243" width="87.516" height="87.515" filterUnits="userSpaceOnUse" color-interpolation-filters="sRGB"><feFlood flood-opacity="0" result="BackgroundImageFix"/><feColorMatrix in="SourceAlpha" values="0 0 0 0 0 0 0 0 0 0 0 0 0 0 0 0 0 0 127 0" result="hardAlpha"/><feMorphology radius="2" operator="dilate" in="SourceAlpha" result="effect1_dropShadow_584_3870"/><feOffset dy="4"/><feGaussianBlur stdDeviation="10"/><feColorMatrix values="0 0 0 0 0.279167 0 0 0 0 0.279167 0 0 0 0 0.279167 0 0 0 0.25 0"/><feBlend in2="BackgroundImageFix" result="effect1_dropShadow_584_3870"/><feBlend in="SourceGraphic" in2="effect1_dropShadow_584_3870" result="shape"/></filter></defs></svg>