<svg width="208" height="65" viewBox="0 0 208 65" fill="none" xmlns="http://www.w3.org/2000/svg">
<path d="M72.9028 0.465942H31.8633V4.11162H72.9028V0.465942Z" fill="#EA312A"/>
<path d="M72.9011 33.2733H0.00390625V36.919H72.9011V33.2733Z" fill="#EA312A"/>
<path d="M72.9011 25.0697H0.00390625V28.7113H72.9011V25.0697Z" fill="#EA312A"/>
<path d="M72.9028 16.8696H31.8633V20.5071H72.9028V16.8696Z" fill="#EA312A"/>
<path d="M72.9028 8.68665H31.8633V12.3323H72.9028V8.68665Z" fill="#EA312A"/>
<path d="M15.5479 18.7069C15.5479 19.9712 14.5209 20.9941 13.2606 20.9941C12.0004 20.9941 10.957 19.9712 10.957 18.7069C10.957 17.4425 11.984 16.4155 13.2606 16.4155C14.5372 16.4155 15.5479 17.4344 15.5479 18.7069Z" fill="#1A4884"/>
<path d="M15.5479 10.5078C15.5479 11.7762 14.5209 12.8033 13.2606 12.8033C12.0004 12.8033 10.957 11.7762 10.957 10.5078C10.957 9.23941 11.984 8.22058 13.2606 8.22058C14.5372 8.22058 15.5479 9.2435 15.5479 10.5078Z" fill="#1A4884"/>
<path d="M15.5479 2.28725C15.5479 3.55157 14.5209 4.57858 13.2606 4.57858C12.0004 4.57858 10.957 3.54748 10.957 2.28725C10.957 1.02701 11.984 0 13.2606 0C14.5372 0 15.5479 1.02292 15.5479 2.28725Z" fill="#1A4884"/>
<path d="M4.57449 18.7069C4.57449 19.9712 3.55976 20.9941 2.28725 20.9941C1.01473 20.9941 0 19.9712 0 18.7069C0 17.4425 1.01883 16.4155 2.28725 16.4155C3.55566 16.4155 4.57449 17.4344 4.57449 18.7069Z" fill="#1A4884"/>
<path d="M4.57449 10.5078C4.57449 11.7762 3.55976 12.8033 2.28725 12.8033C1.01473 12.8033 0 11.7762 0 10.5078C0 9.23941 1.01883 8.22058 2.28725 8.22058C3.55566 8.22058 4.57449 9.2435 4.57449 10.5078Z" fill="#1A4884"/>
<path d="M4.57449 2.28725C4.57449 3.55157 3.55976 4.57858 2.28725 4.57858C1.01473 4.57858 0 3.55157 0 2.28725C0 1.02292 1.01883 0 2.28725 0C3.55566 0 4.57449 1.02292 4.57449 2.28725Z" fill="#1A4884"/>
<path d="M26.4108 18.7069C26.4108 19.9712 25.3838 20.9941 24.1195 20.9941C22.8551 20.9941 21.8281 19.9712 21.8281 18.7069C21.8281 17.4425 22.8551 16.4155 24.1195 16.4155C25.3838 16.4155 26.4108 17.4344 26.4108 18.7069Z" fill="#1A4884"/>
<path d="M26.4108 10.5078C26.4108 11.7762 25.3838 12.8033 24.1195 12.8033C22.8551 12.8033 21.8281 11.7762 21.8281 10.5078C21.8281 9.23941 22.8551 8.22058 24.1195 8.22058C25.3838 8.22058 26.4108 9.2435 26.4108 10.5078Z" fill="#1A4884"/>
<path d="M26.4108 2.28725C26.4108 3.55157 25.3838 4.57858 24.1195 4.57858C22.8551 4.57858 21.8281 3.54748 21.8281 2.28725C21.8281 1.02701 22.8551 0 24.1195 0C25.3838 0 26.4108 1.02292 26.4108 2.28725Z" fill="#1A4884"/>
<path d="M91.1797 20.4866H96.6625L100.468 31.2313H100.517L104.326 20.4866H109.797V36.9719H106.163V24.3246H106.114L101.781 36.9719H99.0193L94.8458 24.3246H94.8049V36.9719H91.1797V20.4866Z" fill="#1A4884"/>
<path d="M120.523 25.2745L118.53 30.4014H122.552L120.523 25.2745ZM119.127 20.4832H122.127L129.303 36.9685H125.199L123.784 33.4701H117.38L116.014 36.9685H112.008L119.127 20.4832Z" fill="#1A4884"/>
<path d="M99.0281 13.9649C102.134 13.9649 104.151 11.7267 104.151 8.65798C104.151 5.58923 102.134 3.35108 99.0281 3.35108C95.9225 3.35108 93.9053 5.58923 93.9053 8.65798C93.9053 11.7267 95.9348 13.9649 99.0281 13.9649ZM99.0281 0C104.175 0 107.923 3.37154 107.923 8.65798C107.923 13.9444 104.175 17.3282 99.0281 17.3282C93.8808 17.3282 90.1328 13.9444 90.1328 8.65798C90.1328 3.37154 93.8767 0 99.0281 0Z" fill="#1A4884"/>
<path d="M114.583 7.24209H116.719C118.045 7.24209 119.767 7.19299 119.767 5.40083C119.767 3.74371 118.278 3.48593 116.952 3.48593H114.579V7.238L114.583 7.24209ZM110.942 0.413086H117.329C120.696 0.413086 123.54 1.57921 123.54 5.42129C123.54 7.729 122.312 9.52115 119.976 9.9385L124.17 16.8984H119.816L116.367 10.3108H114.579V16.8984H110.938V0.413086H110.942Z" fill="#1A4884"/>
<path d="M130.18 0.413086H126.543V16.8984H130.18V0.413086Z" fill="#1A4884"/>
<path d="M148.962 15.7325C146.818 16.8536 144.47 17.3282 142.051 17.3282C136.904 17.3282 133.16 13.9444 133.16 8.65798C133.16 3.37154 136.908 0 142.051 0C144.658 0 146.957 0.581017 148.618 2.11949L146.057 4.91001C145.075 3.87891 143.889 3.35108 142.051 3.35108C138.954 3.35108 136.92 5.58923 136.92 8.65798C136.92 11.7267 138.954 13.9649 142.051 13.9649C143.635 13.9649 144.797 13.5271 145.468 13.1465V10.4665H142.514V7.1236H148.962V15.7284V15.7325Z" fill="#1A4884"/>
<path d="M156.298 0.413086H152.66V16.8984H156.298V0.413086Z" fill="#1A4884"/>
<path d="M160.152 0.413086H165.091L172.108 11.8657H172.149V0.413086H175.787V16.8984H171.036L163.835 5.15943H163.79V16.8984H160.152V0.413086Z" fill="#1A4884"/>
<path d="M186.511 5.20443L184.515 10.3354H188.545L186.511 5.20443ZM185.116 0.413086H188.119L195.284 16.8984H191.192L189.772 13.4123H183.365L181.994 16.8984H177.988L185.116 0.413086Z" fill="#1A4884"/>
<path d="M197.637 0.413086H201.262V13.5514H208.001V16.8984H197.637V0.413086Z" fill="#1A4884"/>
<path d="M135.145 27.3033H137.281C138.614 27.3033 140.333 27.2624 140.333 25.4661C140.333 23.8213 138.844 23.5594 137.518 23.5594H135.141V27.3074L135.145 27.3033ZM131.52 20.4866H137.898C141.282 20.4866 144.11 21.6404 144.11 25.4907C144.11 27.7943 142.874 29.5865 140.558 30.0079L144.744 36.9719H140.394L136.945 30.3802H135.145V36.9719H131.52V20.4866Z" fill="#1A4884"/>
<path d="M150.742 20.4866H147.117V36.9719H150.742V20.4866Z" fill="#1A4884"/>
<path d="M154.605 20.4866H159.544L166.549 31.9433H166.582V20.4866H170.227V36.9719H165.477L158.288 25.2329H158.239V36.9719H154.605V20.4866Z" fill="#1A4884"/>
<path d="M174.285 20.4866H185.48V23.8377H177.906V26.9064H185.054V30.2616H177.906V33.6127H185.897V36.9719H174.285V20.4866Z" fill="#1A4884"/>
<path d="M197.519 24.5093C196.938 23.7687 195.772 23.4127 194.884 23.4127C193.857 23.4127 192.441 23.8792 192.441 25.123C192.441 28.1141 200.019 26.191 200.019 31.9602C200.019 35.6386 197.069 37.3817 193.673 37.3817C191.558 37.3817 189.696 36.7598 188.133 35.3195L190.719 32.4758C191.468 33.4496 192.679 34.0347 193.882 34.0347C195.085 34.0347 196.394 33.4741 196.394 32.3039C196.394 29.2884 188.665 30.9128 188.665 25.4217C188.665 21.9029 191.713 20.0616 194.958 20.0616C196.815 20.0616 198.595 20.5567 199.999 21.7883L197.519 24.5093Z" fill="#1A4884"/>
<path d="M200.078 60.3241H201.404V56.4411C201.404 54.6162 202.152 53.3765 203.871 53.3765C205.111 53.3765 205.696 54.203 205.696 55.541V60.3241H207.026V55.3978C207.026 53.4788 206.089 52.149 203.998 52.149C202.688 52.149 201.698 52.8855 201.338 53.667H201.301C201.301 53.221 201.269 52.7832 201.269 52.3535H200.012C200.012 52.8814 200.082 53.5033 200.082 54.2398V60.32L200.078 60.3241ZM181.624 56.3388C181.624 54.6735 182.77 53.3765 184.435 53.3765C186.101 53.3765 187.275 54.5835 187.275 56.3061C187.275 57.8282 186.26 59.1989 184.435 59.1989C182.885 59.1989 181.624 57.955 181.624 56.3388ZM188.601 52.3535H187.275V53.7079H187.246C186.719 52.6645 185.499 52.149 184.435 52.149C181.895 52.149 180.196 53.7365 180.196 56.3388C180.196 58.6875 181.935 60.4264 184.435 60.4264C185.491 60.4264 186.608 59.9682 187.246 58.9493H187.275V59.9682C187.275 61.6539 186.653 63.1883 184.268 63.1883C183.036 63.1883 182.14 62.7096 181.297 61.8012L180.356 62.8896C181.473 63.9984 182.713 64.4076 184.268 64.4076C187.058 64.4076 188.601 62.8364 188.601 59.9641V52.3535ZM167.357 49.2357C167.357 49.8044 167.774 50.2136 168.322 50.2136C168.899 50.2136 169.304 49.8044 169.304 49.2357C169.304 48.712 168.871 48.2742 168.322 48.2742C167.774 48.2742 167.357 48.712 167.357 49.2357ZM167.672 60.32H168.998V52.3535H167.672V60.32ZM150.389 59.0434C151.17 60.1686 152.152 60.5164 153.494 60.5164C155.074 60.5164 156.673 59.8209 156.673 58.0205C156.673 56.4166 155.483 55.9051 154.071 55.6269C153.015 55.4387 152.058 55.14 152.058 54.4771C152.058 53.7365 152.901 53.3724 153.629 53.3724C154.411 53.3724 154.979 53.7652 155.315 54.3339L156.42 53.5892C155.876 52.5663 154.836 52.1449 153.715 52.1449C152.234 52.1449 150.732 52.9468 150.732 54.4935C150.732 56.1465 152.038 56.4698 153.543 56.8135C154.394 56.9976 155.245 57.2185 155.245 58.0696C155.245 58.9207 154.325 59.2971 153.498 59.2971C152.561 59.2971 151.98 58.8757 151.452 58.2292L150.397 59.0434H150.389ZM133.768 55.6187C133.932 54.2848 134.893 53.3724 136.371 53.3724C137.848 53.3724 138.723 54.2807 138.76 55.6187H133.768ZM138.899 58.0901C138.273 58.8839 137.504 59.293 136.366 59.293C134.918 59.293 133.866 58.1228 133.764 56.7439H140.188V56.3225C140.188 53.6833 138.662 52.1449 136.42 52.1449C134.177 52.1449 132.328 53.8675 132.328 56.3347C132.328 58.6506 133.862 60.5164 136.362 60.5164C137.844 60.5164 138.969 60.0786 139.898 58.8757L138.891 58.0942L138.899 58.0901ZM119.988 56.3347C119.988 58.0001 118.887 59.293 117.168 59.293C115.45 59.293 114.345 57.996 114.345 56.3347C114.345 54.6735 115.45 53.3724 117.168 53.3724C118.887 53.3724 119.988 54.6694 119.988 56.3347ZM119.988 60.32H121.317V47.4476H119.988V53.5033H119.963C119.214 52.6604 118.253 52.1449 117.103 52.1449C114.603 52.1449 112.909 53.9207 112.909 56.3347C112.909 58.7488 114.668 60.5164 116.898 60.5164C118.322 60.5164 119.464 59.8045 119.963 58.9002H119.988V60.32ZM94.1568 60.32H96.7018V56.1997C96.7018 55.1277 96.9023 54.0925 98.2362 54.0925C99.5701 54.0925 99.5619 55.3159 99.5619 56.2611V60.32H102.111V55.7578C102.111 53.5483 101.645 51.8421 99.0504 51.8421C97.8106 51.8421 96.9841 52.5213 96.6322 53.1719H96.5954V52.0426H94.1486V60.32H94.1568ZM81.1125 56.6948V57.2349C81.1125 58.2578 80.1796 58.7857 79.1731 58.7857C78.6166 58.7857 77.9742 58.5033 77.9742 57.8855C77.9742 56.7562 79.6968 56.6989 80.4865 56.6989H81.1125V56.6948ZM81.1125 60.32H83.4652V56.1138C83.4652 53.3519 82.6633 51.8421 79.6886 51.8421C78.3425 51.8421 76.984 52.2799 76.047 53.1719L77.4055 54.559C77.9497 53.9493 78.6452 53.5729 79.4881 53.5729C80.331 53.5729 81.1125 54.1621 81.1125 55.0622C78.989 55.0622 75.5233 55.1113 75.5233 57.9714C75.5233 59.6326 76.9186 60.5164 78.457 60.5164C79.4963 60.5164 80.5192 60.1646 81.0839 59.2808H81.1125V60.3241V60.32ZM62.2499 49.4444C62.2499 50.2586 62.9087 50.9174 63.7188 50.9174C64.529 50.9174 65.2041 50.2545 65.2041 49.4444C65.2041 48.6342 64.5413 47.9591 63.7188 47.9591C62.8964 47.9591 62.2499 48.626 62.2499 49.4444ZM62.4381 60.32H64.9954V52.0426H62.4381V60.32ZM48.9315 60.32H51.4806V47.4476H48.9315V60.32ZM35.8627 56.6948V57.2349C35.8627 58.2578 34.9175 58.7857 33.9192 58.7857C33.3504 58.7857 32.7121 58.5033 32.7121 57.8855C32.7121 56.7562 34.4388 56.6989 35.2285 56.6989H35.8627V56.6948ZM35.8627 60.32H38.2072V56.1138C38.2072 53.3519 37.4012 51.8421 34.4265 51.8421C33.0845 51.8421 31.7219 52.2799 30.789 53.1719L32.1598 54.559C32.6917 53.9493 33.3913 53.5729 34.2261 53.5729C35.0608 53.5729 35.8586 54.1621 35.8586 55.0622C33.7269 55.0622 30.2571 55.1113 30.2571 57.9714C30.2571 59.6326 31.6565 60.5164 33.2031 60.5164C34.2383 60.5164 35.2612 60.1646 35.8136 59.2808H35.8586V60.3241L35.8627 60.32ZM20.2816 52.0426H18.0394V49.5999H15.4821V52.0426H13.8495V54.0925H15.4821V58.0205C15.4821 59.8209 16.7955 60.5164 18.4977 60.5164C19.0869 60.5164 19.7252 60.4673 20.2816 60.2628V58.1392C20.073 58.3478 19.5206 58.3724 19.2423 58.3724C18.1458 58.3724 18.0394 57.7259 18.0394 56.8421V54.0884H20.2816V52.0385V52.0426ZM0.964844 49.4485C0.964844 50.2627 1.62769 50.9215 2.44603 50.9215C3.26436 50.9215 3.92722 50.2586 3.92722 49.4485C3.92722 48.6383 3.26027 47.9632 2.44603 47.9632C1.63179 47.9632 0.964844 48.6301 0.964844 49.4485ZM1.17352 60.3241H3.72263V52.0467H1.16943V60.3241H1.17352Z" fill="#1A4884"/>
</svg>
