<svg width="208" height="65" fill="none" xmlns="http://www.w3.org/2000/svg"><path d="M72.903.466h-41.04v3.646h41.04V.466Zm-.002 32.807H.004v3.646H72.9v-3.646Zm0-8.203H.004v3.641H72.9V25.07Zm.002-8.2h-41.04v3.637h41.04V16.87Zm0-8.183h-41.04v3.645h41.04V8.687Z" fill="#EA312A"/><path d="M15.548 18.707a2.288 2.288 0 0 1-2.287 2.287c-1.26 0-2.304-1.023-2.304-2.287a2.295 2.295 0 0 1 2.304-2.291 2.276 2.276 0 0 1 2.287 2.29Zm0-8.199a2.293 2.293 0 0 1-2.287 2.295 2.307 2.307 0 0 1-2.304-2.295 2.29 2.29 0 0 1 2.304-2.287 2.278 2.278 0 0 1 2.287 2.287Zm0-8.221A2.292 2.292 0 0 1 13.26 4.58c-1.26 0-2.304-1.032-2.304-2.292A2.295 2.295 0 0 1 13.261 0a2.278 2.278 0 0 1 2.287 2.287ZM4.574 18.707a2.28 2.28 0 0 1-2.287 2.287A2.28 2.28 0 0 1 0 18.707a2.287 2.287 0 0 1 2.287-2.291 2.282 2.282 0 0 1 2.287 2.29Zm0-8.199a2.285 2.285 0 0 1-2.287 2.295A2.285 2.285 0 0 1 0 10.508 2.28 2.28 0 0 1 2.287 8.22a2.283 2.283 0 0 1 2.287 2.287Zm0-8.221A2.284 2.284 0 0 1 2.287 4.58 2.284 2.284 0 0 1 0 2.287 2.283 2.283 0 0 1 2.287 0a2.283 2.283 0 0 1 2.287 2.287Zm21.836 16.42a2.29 2.29 0 0 1-2.29 2.287 2.29 2.29 0 1 1 0-4.578 2.288 2.288 0 0 1 2.29 2.29Zm0-8.199a2.294 2.294 0 0 1-2.29 2.295 2.294 2.294 0 0 1-2.292-2.295A2.287 2.287 0 0 1 24.12 8.22a2.29 2.29 0 0 1 2.292 2.287Zm0-8.221a2.293 2.293 0 0 1-2.29 2.292 2.295 2.295 0 0 1-2.292-2.292 2.292 2.292 0 0 1 4.583 0Zm64.77 18.2h5.482l3.806 10.744h.049l3.809-10.744h5.471v16.485h-3.634V24.325h-.049l-4.333 12.647h-2.762l-4.173-12.647h-.041v12.647H91.18V20.487Zm29.343 4.787-1.993 5.127h4.022l-2.029-5.127Zm-1.396-4.79h3l7.176 16.484h-4.104l-1.415-3.498h-6.404l-1.366 3.498h-4.006l7.119-16.485Zm-20.099-6.519c3.106 0 5.123-2.238 5.123-5.307 0-3.069-2.017-5.307-5.123-5.307-3.106 0-5.123 2.238-5.123 5.307 0 3.069 2.03 5.307 5.123 5.307Zm0-13.965c5.147 0 8.895 3.372 8.895 8.658s-3.748 8.67-8.895 8.67c-5.147 0-8.895-3.384-8.895-8.67S93.877 0 99.028 0Zm15.555 7.242h2.136c1.326 0 3.048-.049 3.048-1.841 0-1.657-1.489-1.915-2.815-1.915h-2.373v3.752l.004.004ZM110.942.413h6.387c3.367 0 6.211 1.166 6.211 5.008 0 2.308-1.228 4.1-3.564 4.517l4.194 6.96h-4.354l-3.449-6.587h-1.788v6.587h-3.641V.413h.004Zm19.238 0h-3.637v16.485h3.637V.413Zm18.782 15.319c-2.144 1.122-4.492 1.596-6.911 1.596-5.147 0-8.891-3.384-8.891-8.67S136.908 0 142.051 0c2.607 0 4.906.581 6.567 2.12l-2.561 2.79c-.982-1.031-2.168-1.559-4.006-1.559-3.097 0-5.131 2.238-5.131 5.307 0 3.069 2.034 5.307 5.131 5.307 1.584 0 2.746-.438 3.417-.819v-2.68h-2.954V7.124h6.448v8.609ZM156.298.413h-3.638v16.485h3.638V.413Zm3.854 0h4.939l7.017 11.453h.041V.413h3.638v16.485h-4.751L163.835 5.16h-.045V16.9h-3.638V.412Zm26.359 4.791-1.996 5.131h4.03l-2.034-5.13Zm-1.395-4.79h3.003l7.165 16.484h-4.092l-1.42-3.486h-6.407l-1.371 3.486h-4.006L185.116.413Zm12.521-.001h3.625v13.138h6.739v3.347h-10.364V.413Zm-62.492 26.89h2.136c1.333 0 3.052-.04 3.052-1.837 0-1.645-1.489-1.907-2.815-1.907h-2.377v3.748l.004-.004Zm-3.625-6.816h6.378c3.384 0 6.212 1.153 6.212 5.004 0 2.303-1.236 4.096-3.552 4.517l4.186 6.964h-4.35l-3.449-6.592h-1.8v6.592h-3.625V20.487Zm19.222 0h-3.625v16.485h3.625V20.487Zm3.863 0h4.939l7.005 11.456h.033V20.487h3.645v16.485h-4.75l-7.189-11.74h-.049v11.74h-3.634V20.487Zm19.68 0h11.195v3.35h-7.574v3.07h7.148v3.355h-7.148v3.35h7.991v3.36h-11.612V20.487Zm23.234 4.023c-.581-.741-1.747-1.097-2.635-1.097-1.027 0-2.443.466-2.443 1.71 0 2.991 7.578 1.068 7.578 6.837 0 3.679-2.95 5.422-6.346 5.422-2.115 0-3.977-.622-5.54-2.063l2.586-2.843a4.06 4.06 0 0 0 3.163 1.559c1.203 0 2.512-.56 2.512-1.731 0-3.016-7.729-1.391-7.729-6.882 0-3.52 3.048-5.36 6.293-5.36 1.857 0 3.637.495 5.041 1.726l-2.48 2.721Zm2.559 35.814h1.326v-3.883c0-1.825.748-3.065 2.467-3.065 1.24 0 1.825.827 1.825 2.165v4.783h1.33v-4.926c0-1.92-.937-3.249-3.028-3.249-1.31 0-2.3.736-2.66 1.518h-.037c0-.446-.032-.884-.032-1.314h-1.257c0 .528.07 1.15.07 1.887v6.08l-.004.004Zm-18.454-3.985c0-1.666 1.146-2.962 2.811-2.962 1.666 0 2.84 1.206 2.84 2.93 0 1.521-1.015 2.892-2.84 2.892-1.55 0-2.811-1.244-2.811-2.86Zm6.977-3.986h-1.326v1.355h-.029c-.527-1.044-1.747-1.559-2.811-1.559-2.54 0-4.239 1.587-4.239 4.19 0 2.349 1.739 4.087 4.239 4.087 1.056 0 2.173-.458 2.811-1.477h.029v1.02c0 1.685-.622 3.22-3.007 3.22-1.232 0-2.128-.48-2.971-1.388l-.941 1.089c1.117 1.108 2.357 1.518 3.912 1.518 2.79 0 4.333-1.572 4.333-4.444v-7.61Zm-21.244-3.117c0 .568.417.978.965.978.577 0 .982-.41.982-.978a.972.972 0 0 0-.982-.962.958.958 0 0 0-.965.962Zm.315 11.084h1.326v-7.967h-1.326v7.967Zm-17.283-1.277c.781 1.126 1.763 1.473 3.105 1.473 1.58 0 3.179-.695 3.179-2.495 0-1.604-1.19-2.116-2.602-2.394-1.056-.188-2.013-.487-2.013-1.15 0-.74.843-1.105 1.571-1.105.782 0 1.35.393 1.686.962l1.105-.745c-.544-1.023-1.584-1.444-2.705-1.444-1.481 0-2.983.802-2.983 2.348 0 1.654 1.306 1.977 2.811 2.32.851.185 1.702.405 1.702 1.257 0 .85-.92 1.227-1.747 1.227-.937 0-1.518-.421-2.046-1.068l-1.055.814h-.008Zm-16.621-3.424c.164-1.334 1.125-2.247 2.603-2.247 1.477 0 2.352.909 2.389 2.247h-4.992Zm5.131 2.471c-.626.794-1.395 1.203-2.533 1.203-1.448 0-2.5-1.17-2.602-2.55h6.424v-.42c0-2.64-1.526-4.178-3.768-4.178-2.243 0-4.092 1.722-4.092 4.19 0 2.316 1.534 4.181 4.034 4.181 1.482 0 2.607-.437 3.536-1.64l-1.007-.782.008-.004Zm-18.911-1.755c0 1.665-1.101 2.958-2.82 2.958-1.718 0-2.823-1.297-2.823-2.958 0-1.662 1.105-2.963 2.823-2.963 1.719 0 2.82 1.297 2.82 2.963Zm0 3.985h1.329V47.448h-1.329v6.055h-.025c-.749-.843-1.71-1.358-2.86-1.358-2.5 0-4.194 1.776-4.194 4.19 0 2.414 1.759 4.181 3.989 4.181 1.424 0 2.566-.712 3.065-1.616h.025v1.42Zm-25.831 0h2.545V56.2c0-1.072.2-2.108 1.534-2.108s1.326 1.224 1.326 2.17v4.058h2.549v-4.562c0-2.21-.466-3.916-3.06-3.916-1.24 0-2.067.68-2.419 1.33h-.037v-1.13H94.15v8.278h.008Zm-13.044-3.625v.54c0 1.023-.933 1.55-1.94 1.55-.556 0-1.199-.282-1.199-.9 0-1.129 1.723-1.186 2.513-1.186h.626v-.004Zm0 3.625h2.352v-4.206c0-2.762-.802-4.272-3.776-4.272-1.346 0-2.705.438-3.642 1.33l1.359 1.387c.544-.61 1.24-.986 2.082-.986.843 0 1.624.59 1.624 1.49-2.123 0-5.589.048-5.589 2.908 0 1.662 1.396 2.545 2.934 2.545 1.04 0 2.062-.351 2.627-1.235h.028v1.043-.004ZM62.25 49.444c0 .815.659 1.473 1.469 1.473s1.485-.663 1.485-1.473a1.49 1.49 0 0 0-1.485-1.485c-.823 0-1.47.667-1.47 1.485Zm.188 10.876h2.557v-8.277h-2.557v8.277Zm-13.507 0h2.55V47.448h-2.55V60.32Zm-13.068-3.625v.54c0 1.023-.946 1.55-1.944 1.55-.569 0-1.207-.282-1.207-.9 0-1.129 1.727-1.186 2.516-1.186h.635v-.004Zm0 3.625h2.344v-4.206c0-2.762-.806-4.272-3.78-4.272-1.343 0-2.705.438-3.638 1.33l1.37 1.387c.533-.61 1.232-.986 2.067-.986.835 0 1.633.59 1.633 1.49-2.132 0-5.602.048-5.602 2.908 0 1.662 1.4 2.545 2.946 2.545 1.035 0 2.058-.351 2.61-1.235h.046v1.043l.004-.004Zm-15.581-8.277h-2.243V49.6h-2.557v2.443H13.85v2.05h1.632v3.927c0 1.8 1.314 2.496 3.016 2.496.589 0 1.227-.049 1.784-.253v-2.124c-.209.209-.761.233-1.04.233-1.096 0-1.203-.646-1.203-1.53v-2.754h2.243v-2.05.005ZM.965 49.449c0 .814.663 1.473 1.481 1.473a1.48 1.48 0 0 0 1.481-1.473c0-.81-.667-1.486-1.481-1.486-.814 0-1.481.667-1.481 1.486Zm.209 10.875h2.549v-8.277H1.169v8.277h.005Z" fill="#1A4884"/></svg>