<svg width="268" height="200" viewBox="0 0 268 200" fill="none" xmlns="http://www.w3.org/2000/svg">
<g clip-path="url(#clip0_522_20816)">
<path d="M1.22446 133.851C0.480359 133.012 -0.0471043 130.187 -9.38401e-06 127.669C0.235465 127.268 0.93247 127.222 1.25272 127.52C1.99682 129.59 4.2197 133.935 8.2416 133.935C11.3593 133.935 13.1206 132.061 13.1206 129.59C13.1206 127.268 12.0186 125.394 8.93861 123.697L7.16784 122.709C4.08783 121.003 1.37516 118.522 1.37516 114.849C1.37516 110.821 4.42691 107.408 10.4174 107.408C12.5367 107.408 14.1096 107.893 16.0405 108.266C16.4926 109.152 16.8977 111.828 16.8977 113.758C16.681 114.112 15.9463 114.159 15.5884 113.879C14.9762 111.744 13.5162 109.031 10.0406 109.031C6.76282 109.031 5.40649 111.156 5.40649 113.31C5.40649 115.007 6.59328 116.835 9.31537 118.261L11.8491 119.595C14.5241 120.984 17.4722 123.511 17.4722 127.632C17.4722 132.257 13.9213 135.539 7.94961 135.539C4.1726 135.539 2.04391 134.317 1.22446 133.832" fill="#2F1136"/>
<path d="M40.4263 115.128C40.4263 112.145 40.3886 111.772 38.9193 111.604L38.0998 111.529C37.8738 111.305 37.8738 110.802 38.1375 110.643C40.1155 110.457 42.7716 110.373 45.3524 110.373C47.8014 110.373 49.9301 110.681 51.3147 111.427C52.9159 112.266 54.065 113.72 54.065 115.967C54.065 118.839 51.8515 120.256 50.3068 120.872C50.1184 120.965 50.1938 121.198 50.3068 121.394C52.8217 125.599 54.3852 128.238 55.8546 129.441C56.74 130.177 57.6442 130.373 58.0304 130.392C58.1811 130.532 58.1811 130.867 58.0869 131.026C57.7196 131.11 57.1262 131.203 56.0241 131.203C53.0195 131.203 51.3806 129.991 49.4591 127.11C48.6114 125.814 47.726 124.089 46.9819 122.895C46.4168 121.963 46.0683 121.842 45.0228 121.842C44.0903 121.842 44.062 121.87 44.062 122.532V126.494C44.062 129.804 44.3352 129.888 45.814 130.065L46.4921 130.159C46.7182 130.373 46.6711 130.942 46.4356 131.054C45.0604 131.016 43.6476 130.96 42.2818 130.96C40.9161 130.96 39.475 131.016 38.0433 131.054C37.7984 130.942 37.7042 130.373 37.9774 130.159L38.665 130.065C40.1343 129.879 40.4263 129.804 40.4263 126.494V115.128ZM44.0809 119.604C44.0809 120.611 44.0809 120.657 45.5785 120.657C48.6585 120.657 50.0713 119.156 50.0713 116.21C50.0713 113.758 48.4701 111.604 45.7292 111.604C44.0997 111.604 44.0715 111.706 44.0715 113.142V119.604H44.0809Z" fill="#2F1136"/>
<path d="M81.785 129.832C81.785 131.128 81.9734 132.098 82.6798 132.424C82.7928 132.574 82.7928 132.881 82.6515 132.984C82.2371 132.984 81.5589 133.086 80.8525 133.282C78.5354 133.804 75.738 134.271 73.5999 134.271C69.1353 134.271 64.9156 133.096 62.1276 130.205C59.9141 127.958 58.8403 124.844 58.8403 121.758C58.8403 118.671 59.9141 115.473 62.2688 113.058C64.9156 110.299 68.9846 108.704 74.165 108.704C75.9358 108.704 77.829 109.002 79.1288 109.264C79.9954 109.459 81.0786 109.581 81.5307 109.581C81.5589 110.699 81.8132 112.574 82.0016 115.473C81.8227 115.837 81.0032 115.865 80.8242 115.548C79.9954 111.958 77.3581 110.187 73.6376 110.187C67.0914 110.187 63.9077 114.877 63.9077 121.152C63.9077 124.117 64.5765 127.296 66.6016 129.655C68.6078 132.033 71.6125 132.797 73.7883 132.797C75.5873 132.797 76.6799 132.508 77.1226 131.958C77.3581 131.623 77.4711 130.961 77.4711 129.637V128.294C77.4711 125.674 77.424 125.459 74.9185 125.049L73.581 124.825C73.3267 124.574 73.3267 123.949 73.6093 123.762C75.0598 123.828 76.8589 123.865 79.4302 123.865C81.1257 123.865 82.3972 123.828 83.9796 123.762C84.3564 123.949 84.394 124.583 84.0644 124.825L83.3956 124.937C82.011 125.124 81.7944 125.459 81.7944 127.716V129.851L81.785 129.832Z" fill="#2F1136"/>
<path d="M122.258 126.448C122.258 127.389 122.258 131.203 122.343 131.93C122.089 132.266 121.656 132.378 121.269 132.35C120.761 131.706 119.866 130.634 117.596 128.107L110.259 119.8C108.196 117.525 107.207 116.35 106.67 115.874C106.585 115.874 106.585 116.229 106.585 117.879V123.93C106.585 126.271 106.613 129.114 107.141 130.056C107.424 130.522 107.951 130.709 108.752 130.83L109.43 130.923C109.722 131.147 109.684 131.744 109.383 131.837C108.196 131.781 106.981 131.744 105.803 131.744C104.475 131.744 103.637 131.781 102.526 131.837C102.29 131.688 102.224 131.147 102.469 130.923L103.157 130.774C103.76 130.681 104.325 130.56 104.532 130.056C104.946 129.086 104.946 126.392 104.946 123.93V116.574C104.946 114.14 104.965 113.655 103.91 112.732C103.571 112.462 102.686 112.219 102.252 112.117L101.782 112.042C101.555 111.837 101.593 111.222 101.904 111.138C103.081 111.25 104.824 111.231 105.606 111.231C106.256 111.231 107.009 111.203 107.763 111.138C108.309 112.452 111.728 116.368 112.821 117.562L115.957 120.919C117.276 122.354 120.186 125.627 120.497 125.832C120.601 125.73 120.601 125.599 120.601 125.096V119.016C120.601 116.704 120.563 113.823 120.007 112.909C119.715 112.434 119.226 112.247 118.444 112.126L117.709 112.051C117.436 111.818 117.464 111.231 117.794 111.147C119.018 111.203 120.167 111.24 121.392 111.24C122.739 111.24 123.568 111.212 124.689 111.147C124.943 111.287 124.999 111.818 124.745 112.051L124.039 112.191C123.445 112.275 122.908 112.406 122.692 112.909C122.249 113.879 122.249 116.583 122.249 119.016V126.448H122.258Z" fill="#2F1136"/>
<path d="M134.428 114.532C134.428 113.348 134.4 113.292 133.656 113.292H132.054C129.426 113.292 128.645 113.599 127.59 115.902C127.392 116.061 126.77 115.977 126.657 115.697C127.138 114.159 127.59 112.397 127.788 111.408C127.844 111.324 127.957 111.306 128.089 111.306C128.202 111.306 128.324 111.324 128.39 111.408C128.532 112.126 128.927 112.163 130.877 112.163H142.585C143.998 112.163 144.421 112.061 144.761 111.408C144.883 111.362 144.996 111.306 145.109 111.306C145.288 111.306 145.42 111.362 145.476 111.436C145.203 112.611 144.977 115.045 145.053 115.958C144.911 116.182 144.431 116.247 144.167 116.042C143.8 113.823 143.263 113.292 140.173 113.292H138.544C137.809 113.292 137.781 113.348 137.781 114.532V126.802C137.781 129.804 138.035 129.898 139.392 130.038L140.409 130.149C140.616 130.345 140.588 130.849 140.362 130.97C138.704 130.923 137.404 130.886 136.142 130.886C134.88 130.886 133.543 130.923 131.696 130.97C131.47 130.849 131.433 130.289 131.64 130.149L132.845 130.01C134.192 129.898 134.447 129.804 134.447 126.802V114.532H134.428Z" fill="#2F1136"/>
<path d="M191.676 133.31C192.062 133.469 192.025 134.28 191.592 134.438C189.896 134.355 188.37 134.317 186.788 134.317C184.951 134.317 183.218 134.355 181.494 134.438C181.184 134.271 181.014 133.543 181.4 133.31L182.455 133.114C184.056 132.881 184.16 132.583 184.16 129.926V114H184.094C183.001 116.135 182.455 117.31 181.72 118.858L178.339 125.711C177.03 128.434 175.061 132.779 174.345 134.597C174.185 134.746 173.592 134.746 173.319 134.597C172.659 132.499 170.964 128.686 170.05 126.737L166.556 119.259C165.802 117.618 164.738 115.175 164.286 114H164.201C164.126 115.912 164.041 118.942 163.966 120.583C163.89 122.961 163.815 126.42 163.815 129.618C163.815 132.201 163.853 132.816 165.539 133.077L166.838 133.32C167.112 133.553 167.112 134.289 166.801 134.448C165.341 134.364 164.126 134.327 162.666 134.327C161.413 134.327 159.991 134.364 158.446 134.448C158.107 134.243 158.107 133.515 158.333 133.32L159.011 133.245C160.904 133.012 161.225 132.434 161.451 130.037C161.743 127.604 161.837 125.068 162.035 121.003C162.195 118.364 162.44 115.138 162.44 112.741C162.44 110.914 161.846 110.112 160.311 109.851L158.983 109.627C158.738 109.366 158.785 108.62 159.134 108.508C160.311 108.592 161.375 108.63 162.826 108.63C164.201 108.63 165.586 108.63 167.036 108.508C167.187 110.849 168.223 112.872 169.203 114.97L173.516 123.977C173.827 124.639 174.863 126.588 175.4 127.483C176.013 126.345 176.578 125.254 177.416 123.417L181.108 115.93C182.361 113.375 183.632 111.072 184.301 108.499C185.384 108.583 186.665 108.62 187.541 108.62C189.18 108.62 190.593 108.583 191.695 108.499C192.128 108.658 192.213 109.385 191.808 109.618L190.508 109.814C188.775 110.065 188.389 110.699 188.389 112.769C188.389 118.541 188.455 124.303 188.728 130.075C188.851 132.686 189.265 132.956 190.546 133.105L191.695 133.301L191.676 133.31Z" fill="#2F1136"/>
<path d="M218.172 127.491C218.172 129.944 218.049 132.097 217.484 133.487C216.495 135.939 214.188 138 210.618 138C209.874 138 208.951 137.813 208.951 136.965C208.951 136.377 209.478 135.109 210.392 135.109C210.834 135.109 211.305 135.379 211.795 135.697C212.605 136.191 212.888 136.256 213.17 136.256C213.914 136.256 214.178 134.456 214.244 133.813C214.31 133.282 214.527 131.025 214.527 127.724V115.78C214.527 112.452 214.244 112.359 212.765 112.172L211.823 112.069C211.607 111.892 211.635 111.277 211.899 111.165C213.538 111.221 214.932 111.258 216.363 111.258C217.795 111.258 219.057 111.23 220.235 111.165C220.489 111.277 220.517 111.902 220.291 112.069L219.839 112.125C218.445 112.368 218.162 112.461 218.162 115.79V127.51L218.172 127.491Z" fill="#2F1136"/>
<path d="M240.269 122.821C240.269 127.762 236.473 131.455 231.377 131.455C225.651 131.455 222.354 127.455 222.354 122.998C222.354 117.879 226.103 114.084 231.424 114.084C237.264 114.084 240.259 118.242 240.259 122.83M225.783 122.27C225.783 125.73 227.252 130.448 231.613 130.448C234.486 130.448 236.822 128.322 236.822 123.277C236.822 119.492 235.107 115.091 231.067 115.091C228.523 115.091 225.783 116.918 225.783 122.27Z" fill="#2F1136"/>
<path d="M243.801 115.436C243.509 111.799 243.434 111.343 241.635 111.305L240.58 111.277C240.297 111.026 240.241 110.429 240.533 110.224C242.972 109.786 246.193 109.413 249.302 109.151C252.288 108.9 254.925 109.049 256.667 109.823C258.711 110.681 260.294 112.359 260.52 115.072C260.802 118.569 258.24 120.527 256.413 121.441C256.196 121.562 256.3 121.86 256.47 122.084C259.964 126.942 262.177 129.981 264.071 131.315C265.201 132.144 266.35 132.284 266.812 132.284C267.009 132.415 267.047 132.834 266.953 133.03C266.501 133.17 265.776 133.347 264.447 133.459C260.783 133.767 258.645 132.452 256.017 129.133C254.878 127.641 253.616 125.655 252.57 124.247C251.807 123.156 251.374 123.054 250.093 123.147C248.934 123.24 248.897 123.277 248.972 124.089L249.386 128.928C249.735 132.937 250.083 133.03 251.901 133.096L252.749 133.161C253.032 133.385 253.041 134.084 252.758 134.252C251.072 134.308 249.339 134.42 247.682 134.55C246.005 134.69 244.281 134.858 242.539 135.091C242.228 134.96 242.068 134.289 242.379 134.009L243.208 133.823C244.96 133.441 245.299 133.301 244.96 129.282L243.801 115.455V115.436ZM248.671 120.517C248.774 121.72 248.784 121.786 250.63 121.636C254.388 121.329 255.933 119.38 255.631 115.781C255.386 112.779 253.211 110.354 249.886 110.615C247.898 110.774 247.879 110.895 248.011 112.639L248.671 120.517Z" fill="#2F1136"/>
<path d="M35.0198 120.704C35.0198 120.704 24.5835 120.704 24.2821 120.704C23.6982 120.722 23.6322 121.049 23.6416 121.217C23.717 123.622 24.3669 125.506 25.5914 126.895C26.9006 128.396 28.4453 129.142 30.2161 129.142C31.4029 129.142 32.4107 128.834 33.3055 128.2C34.1344 127.594 34.8502 126.541 35.4248 125.067C35.7827 125.011 36.0088 125.161 36.0653 125.468C35.7733 127.203 34.9727 128.788 33.7011 130.177C32.373 131.65 30.7247 132.377 28.7279 132.377C26.5709 132.377 24.7154 131.548 23.1707 129.869C21.626 128.21 20.863 125.962 20.863 123.137C20.863 120.088 21.6542 117.72 23.2366 116.014C24.8096 114.307 26.7876 113.459 29.1894 113.459C31.1957 113.459 32.8534 114.112 34.1532 115.417C35.1987 116.471 35.8204 117.823 36.0276 119.445C36.0747 119.837 36.1124 119.948 36.0088 120.321C35.9052 120.694 35.0292 120.685 35.0292 120.685M23.7358 118.783C23.6982 118.997 23.6887 119.464 24.1503 119.464H29.2083C32.0057 119.408 31.9492 119.025 31.8927 118.252C31.855 117.729 31.7231 117.412 31.6007 117.133C31.271 116.396 30.7718 115.846 30.1313 115.436C29.4814 115.016 28.8032 114.811 28.0968 114.811C26.9854 114.811 26.0058 115.231 25.1581 116.051C24.4423 116.75 23.9619 117.617 23.7452 118.783" fill="#2F1136"/>
<path d="M100.237 119.445C100.237 119.445 90.6013 119.445 90.3187 119.445C89.7724 119.464 89.7065 119.762 89.7065 119.921C89.7818 122.13 90.3846 123.883 91.5243 125.161C92.7394 126.541 94.1522 127.24 95.7911 127.24C96.8931 127.24 97.8162 126.942 98.6357 126.364C99.3986 125.804 100.067 124.834 100.604 123.482C100.934 123.427 101.141 123.566 101.198 123.837C100.924 125.45 100.19 126.895 99.0124 128.2C97.7974 129.543 96.2715 130.214 94.4159 130.214C92.438 130.214 90.7143 129.45 89.292 127.921C87.8603 126.373 87.1633 124.303 87.1633 121.692C87.1633 118.886 87.898 116.695 89.3485 115.119C90.7991 113.534 92.6358 112.741 94.8586 112.741C96.7142 112.741 98.2306 113.357 99.4268 114.559C100.397 115.538 100.981 116.779 101.169 118.289C101.216 118.653 101.254 118.755 101.151 119.091C101.056 119.445 100.246 119.436 100.246 119.436M89.8101 117.683C89.7724 117.879 89.763 118.308 90.1962 118.308H94.8681C97.4489 118.252 97.3923 117.907 97.3453 117.17C97.317 116.695 97.1851 116.406 97.0721 116.154C96.7707 115.473 96.3092 114.951 95.7158 114.578C95.113 114.196 94.4819 114 93.832 114C92.8147 114 91.9105 114.382 91.1193 115.156C90.46 115.79 90.0173 116.583 89.8101 117.674" fill="#2F1136"/>
<path d="M204.11 127.986C204.11 127.884 204.044 127.819 203.978 127.819C203.921 127.819 203.883 127.837 203.77 127.912C201.971 129.245 200.86 130.038 200.389 130.261C199.645 130.606 198.835 130.784 197.997 130.784C196.687 130.784 195.604 130.327 194.738 129.432C193.89 128.537 193.466 127.362 193.466 125.898C193.466 124.965 193.673 124.182 194.097 123.502C194.662 122.578 195.651 121.683 197.055 120.844C198.307 120.098 200.342 119.203 203.102 118.178C203.45 118.056 203.77 117.954 203.94 117.693C204.091 117.422 204.11 117.077 204.11 117.077C204.11 115.203 203.799 113.907 203.168 113.208C202.565 112.49 201.698 112.136 200.559 112.136C199.692 112.136 198.995 112.359 198.486 112.844C197.978 113.31 197.714 113.861 197.714 114.457L197.761 115.66C197.761 116.303 197.601 116.798 197.271 117.133C196.932 117.478 196.508 117.665 195.981 117.665C195.453 117.665 195.02 117.478 194.7 117.115C194.38 116.76 194.201 116.275 194.201 115.651C194.201 114.467 194.813 113.394 196.037 112.387C197.243 111.39 198.957 110.896 201.161 110.896C202.829 110.896 204.27 111.194 205.343 111.735C206.153 112.164 206.756 112.826 207.133 113.739C207.368 114.345 207.5 115.539 207.5 117.376V123.791C207.5 125.581 207.538 126.681 207.604 127.11C207.67 127.502 207.792 127.781 207.952 127.921C208.122 128.052 208.31 128.117 208.518 128.117C208.744 128.117 208.923 128.061 209.102 127.977C209.328 127.828 209.751 127.483 210.307 126.923C210.533 126.802 210.816 126.998 210.882 127.483C210.825 127.567 210.778 127.623 210.778 127.623C209.224 129.674 207.726 130.728 206.323 130.728C205.645 130.728 205.108 130.504 204.703 130.038C204.336 129.618 204.147 128.937 204.1 127.996M202.179 127.558C202.753 127.185 204.091 125.73 204.091 123.623V120.098C204.091 119.24 203.45 119.474 203.234 119.548C202.593 119.735 201.463 120.126 200.022 120.882C198.891 121.469 198.138 122.122 197.676 122.774C197.196 123.446 196.961 124.145 196.961 124.937C196.961 125.926 197.262 126.728 197.855 127.38C198.449 128.042 199.117 128.359 199.918 128.359C200.549 128.359 201.331 128.098 202.188 127.558" fill="#2F1136"/>
<path d="M163.127 62.1023C163.127 62.0184 163.052 61.9811 162.967 62.0184C160.029 63.3237 154.839 68.6664 150.676 75.9671C150.676 75.9671 150.657 76.0137 150.657 76.0417C150.657 76.0883 150.676 76.1256 150.713 76.1536C152.154 77.2631 151.891 77.2165 153.011 78.3727C153.011 78.3727 153.059 78.41 153.106 78.4006C153.162 78.4006 153.181 78.3727 153.181 78.3727C157.071 74.9135 160.679 73.5708 162.195 69.2445C162.223 69.1512 162.138 69.1139 162.138 69.1139L159.727 67.9764C159.727 67.9764 159.652 67.9391 159.661 67.8832C159.661 67.8179 159.765 67.7992 159.765 67.7992L162.572 67.3517C162.572 67.3517 162.675 67.333 162.685 67.2491C162.986 65.8505 163.156 64.1909 163.127 62.1116" fill="#2F1136"/>
<path d="M124.444 81.7206C122.136 79.8745 119.451 78.8861 112.18 86.9234C112.142 86.9607 112.114 86.9421 112.133 86.8861C115.204 79.7812 119.046 76.8255 120.582 76.9934C121.882 77.1332 123.426 79.3896 124.462 81.6927C124.472 81.7206 124.462 81.73 124.444 81.7206ZM150.534 77.2917C148.782 75.5388 147.652 74.8675 146.239 74.9421C145.015 75.0073 141.577 77.2078 139.203 84.2474C136.895 91.1286 136.189 98.0749 133.863 97.9444H133.618H133.373C131.046 98.0749 130.33 91.1286 128.032 84.2474C125.659 77.2078 122.221 75.0073 121.006 74.9421C119.593 74.8675 118.462 75.5388 116.711 77.2917C114.723 79.2871 111.361 82.9887 109.75 88.6297C109.722 88.7789 109.75 88.8628 109.816 88.9281C117.85 95.399 125.037 94.6903 132.177 98.5691C132.393 98.6717 132.742 98.8209 133.137 98.8955C133.297 98.9421 133.458 98.9514 133.627 98.9514C133.787 98.9514 133.957 98.9421 134.117 98.8955C134.503 98.8115 134.852 98.6624 135.068 98.5691C142.208 94.681 149.394 95.399 157.429 88.9281C157.495 88.8628 157.523 88.7882 157.495 88.6297C155.894 82.9794 152.522 79.2777 150.534 77.2917Z" fill="#2F1136"/>
<path d="M132.101 93.8699C132.111 93.9165 132.111 93.8979 132.214 94.1123C132.214 94.1123 133.429 96.8349 135.049 94.1123C135.087 94.0377 135.153 93.9072 135.162 93.8606C136.462 85.8699 138.374 79.0634 140.936 75.9864C140.974 75.9305 140.936 75.8559 140.899 75.8373C133.345 72.4153 126.318 75.8373 126.318 75.8373C126.271 75.8559 126.243 75.9305 126.28 75.9864C128.852 79.0634 130.802 85.8699 132.101 93.8606" fill="#2F1136"/>
</g>
<defs>
<clipPath id="clip0_522_20816">
<rect width="268" height="200" fill="white"/>
</clipPath>
</defs>
</svg>
