<svg width="269" height="200" viewBox="0 0 269 200" fill="none" xmlns="http://www.w3.org/2000/svg">
<g clip-path="url(#clip0_4001_1196)">
<path d="M1.72348 133.851C0.979382 133.012 0.451919 130.187 0.499014 127.669C0.734489 127.268 1.43149 127.221 1.75174 127.52C2.49584 129.59 4.71872 133.935 8.74063 133.935C11.8583 133.935 13.6197 132.061 13.6197 129.59C13.6197 127.268 12.5176 125.394 9.43763 123.697L7.66686 122.709C4.58685 121.002 1.87419 118.522 1.87419 114.849C1.87419 110.821 4.92594 107.408 10.9164 107.408C13.0357 107.408 14.6087 107.893 16.5395 108.266C16.9917 109.152 17.3967 111.828 17.3967 113.758C17.18 114.112 16.4454 114.159 16.0874 113.879C15.4752 111.744 14.0153 109.03 10.5397 109.03C7.26185 109.03 5.90551 111.156 5.90551 113.31C5.90551 115.007 7.0923 116.835 9.81439 118.261L12.3481 119.594C15.0231 120.984 17.9712 123.511 17.9712 127.632C17.9712 132.256 14.4203 135.538 8.44864 135.538C4.67162 135.538 2.54293 134.317 1.72348 133.832" fill="white"/>
<path d="M40.9273 115.128C40.9273 112.144 40.8896 111.772 39.4202 111.604L38.6008 111.529C38.3747 111.305 38.3747 110.802 38.6385 110.643C40.6165 110.457 43.2726 110.373 45.8534 110.373C48.3023 110.373 50.431 110.681 51.8156 111.427C53.4169 112.266 54.566 113.72 54.566 115.967C54.566 118.839 52.3525 120.256 50.8078 120.872C50.6194 120.965 50.6948 121.198 50.8078 121.394C53.3227 125.599 54.8862 128.238 56.3556 129.441C57.241 130.177 58.1452 130.373 58.5314 130.392C58.6821 130.531 58.6821 130.867 58.5879 131.026C58.2205 131.11 57.6271 131.203 56.5251 131.203C53.5205 131.203 51.8816 129.991 49.9601 127.11C49.1124 125.813 48.227 124.089 47.4829 122.895C46.9178 121.963 46.5693 121.841 45.5237 121.841C44.5913 121.841 44.563 121.869 44.563 122.531V126.494C44.563 129.804 44.8362 129.888 46.3149 130.065L46.9931 130.158C47.2192 130.373 47.1721 130.942 46.9366 131.054C45.5614 131.016 44.1486 130.96 42.7828 130.96C41.4171 130.96 39.976 131.016 38.5443 131.054C38.2994 130.942 38.2052 130.373 38.4783 130.158L39.1659 130.065C40.6353 129.879 40.9273 129.804 40.9273 126.494V115.128ZM44.5818 119.604C44.5818 120.611 44.5818 120.657 46.0795 120.657C49.1595 120.657 50.5723 119.156 50.5723 116.21C50.5723 113.758 48.9711 111.604 46.2302 111.604C44.6007 111.604 44.5724 111.706 44.5724 113.142V119.604H44.5818Z" fill="white"/>
<path d="M82.2845 129.832C82.2845 131.128 82.4729 132.098 83.1793 132.424C83.2923 132.573 83.2923 132.881 83.151 132.984C82.7366 132.984 82.0584 133.086 81.352 133.282C79.0349 133.804 76.2375 134.27 74.0994 134.27C69.6348 134.27 65.4151 133.096 62.6271 130.205C60.4136 127.958 59.3398 124.844 59.3398 121.758C59.3398 118.671 60.4136 115.473 62.7684 113.058C65.4151 110.298 69.4841 108.704 74.6645 108.704C76.4353 108.704 78.3285 109.002 79.6283 109.263C80.4949 109.459 81.5781 109.58 82.0302 109.58C82.0584 110.699 82.3127 112.573 82.5011 115.473C82.3222 115.837 81.5027 115.865 81.3238 115.548C80.4949 111.958 77.8576 110.186 74.1371 110.186C67.5909 110.186 64.4073 114.876 64.4073 121.152C64.4073 124.117 65.076 127.296 67.1011 129.655C69.1073 132.033 72.112 132.797 74.2878 132.797C76.0868 132.797 77.1794 132.508 77.6221 131.958C77.8576 131.622 77.9706 130.96 77.9706 129.636V128.294C77.9706 125.674 77.9235 125.459 75.4181 125.049L74.0806 124.825C73.8262 124.573 73.8262 123.949 74.1088 123.762C75.5593 123.828 77.3584 123.865 79.9297 123.865C81.6252 123.865 82.8967 123.828 84.4791 123.762C84.8559 123.949 84.8936 124.583 84.5639 124.825L83.8951 124.937C82.5105 125.124 82.2939 125.459 82.2939 127.716V129.851L82.2845 129.832Z" fill="white"/>
<path d="M122.758 126.448C122.758 127.389 122.758 131.203 122.843 131.93C122.589 132.266 122.155 132.378 121.769 132.35C121.261 131.706 120.366 130.634 118.096 128.107L110.758 119.8C108.696 117.525 107.707 116.35 107.17 115.874C107.085 115.874 107.085 116.228 107.085 117.879V123.93C107.085 126.27 107.113 129.114 107.641 130.056C107.923 130.522 108.451 130.709 109.251 130.83L109.93 130.923C110.222 131.147 110.184 131.744 109.882 131.837C108.696 131.781 107.481 131.744 106.303 131.744C104.975 131.744 104.137 131.781 103.025 131.837C102.79 131.688 102.724 131.147 102.969 130.923L103.656 130.774C104.259 130.681 104.824 130.559 105.032 130.056C105.446 129.086 105.446 126.392 105.446 123.93V116.573C105.446 114.14 105.465 113.655 104.41 112.732C104.071 112.462 103.186 112.219 102.752 112.117L102.281 112.042C102.055 111.837 102.093 111.221 102.404 111.138C103.581 111.249 105.324 111.231 106.105 111.231C106.755 111.231 107.509 111.203 108.262 111.138C108.809 112.452 112.228 116.368 113.32 117.562L116.457 120.918C117.776 122.354 120.686 125.627 120.997 125.832C121.1 125.73 121.1 125.599 121.1 125.096V119.016C121.1 116.704 121.063 113.823 120.507 112.909C120.215 112.434 119.725 112.247 118.943 112.126L118.209 112.051C117.936 111.818 117.964 111.231 118.294 111.147C119.518 111.203 120.667 111.24 121.892 111.24C123.239 111.24 124.067 111.212 125.188 111.147C125.443 111.287 125.499 111.818 125.245 112.051L124.538 112.191C123.945 112.275 123.408 112.406 123.191 112.909C122.749 113.879 122.749 116.583 122.749 119.016V126.448H122.758Z" fill="white"/>
<path d="M134.927 114.532C134.927 113.347 134.899 113.291 134.155 113.291H132.553C129.925 113.291 129.144 113.599 128.089 115.902C127.891 116.061 127.269 115.977 127.156 115.697C127.637 114.159 128.089 112.396 128.287 111.408C128.343 111.324 128.456 111.305 128.588 111.305C128.701 111.305 128.823 111.324 128.889 111.408C129.031 112.126 129.426 112.163 131.376 112.163H143.084C144.497 112.163 144.92 112.061 145.26 111.408C145.382 111.361 145.495 111.305 145.608 111.305C145.787 111.305 145.919 111.361 145.975 111.436C145.702 112.611 145.476 115.044 145.552 115.958C145.41 116.182 144.93 116.247 144.666 116.042C144.299 113.823 143.762 113.291 140.673 113.291H139.043C138.308 113.291 138.28 113.347 138.28 114.532V126.802C138.28 129.804 138.534 129.897 139.891 130.037L140.908 130.149C141.115 130.345 141.087 130.849 140.861 130.97C139.203 130.923 137.903 130.886 136.641 130.886C135.379 130.886 134.042 130.923 132.195 130.97C131.969 130.849 131.932 130.289 132.139 130.149L133.345 130.009C134.691 129.897 134.946 129.804 134.946 126.802V114.532H134.927Z" fill="white"/>
<path d="M192.177 133.31C192.563 133.468 192.525 134.28 192.092 134.438C190.396 134.354 188.87 134.317 187.288 134.317C185.451 134.317 183.718 134.354 181.995 134.438C181.684 134.27 181.514 133.543 181.9 133.31L182.955 133.114C184.557 132.881 184.66 132.583 184.66 129.925V114H184.594C183.502 116.135 182.955 117.31 182.221 118.858L178.839 125.711C177.53 128.434 175.561 132.778 174.846 134.597C174.685 134.746 174.092 134.746 173.819 134.597C173.16 132.499 171.464 128.685 170.551 126.737L167.056 119.259C166.303 117.618 165.238 115.175 164.786 114H164.701C164.626 115.911 164.541 118.942 164.466 120.583C164.391 122.96 164.315 126.42 164.315 129.618C164.315 132.2 164.353 132.816 166.039 133.077L167.339 133.319C167.612 133.552 167.612 134.289 167.301 134.447C165.841 134.364 164.626 134.326 163.166 134.326C161.913 134.326 160.491 134.364 158.946 134.447C158.607 134.242 158.607 133.515 158.833 133.319L159.511 133.245C161.405 133.012 161.725 132.434 161.951 130.037C162.243 127.604 162.337 125.068 162.535 121.002C162.695 118.364 162.94 115.137 162.94 112.741C162.94 110.914 162.347 110.112 160.811 109.851L159.483 109.627C159.238 109.366 159.285 108.62 159.634 108.508C160.811 108.592 161.876 108.629 163.326 108.629C164.701 108.629 166.086 108.629 167.536 108.508C167.687 110.848 168.723 112.872 169.703 114.97L174.017 123.977C174.328 124.639 175.364 126.587 175.901 127.482C176.513 126.345 177.078 125.254 177.916 123.417L181.608 115.93C182.861 113.375 184.133 111.072 184.801 108.499C185.885 108.583 187.166 108.62 188.042 108.62C189.681 108.62 191.093 108.583 192.195 108.499C192.629 108.657 192.713 109.385 192.308 109.618L191.009 109.813C189.275 110.065 188.889 110.699 188.889 112.769C188.889 118.541 188.955 124.303 189.228 130.075C189.351 132.685 189.765 132.956 191.046 133.105L192.195 133.301L192.177 133.31Z" fill="white"/>
<path d="M218.67 127.492C218.67 129.944 218.548 132.098 217.983 133.487C216.994 135.939 214.686 138 211.116 138C210.372 138 209.449 137.814 209.449 136.965C209.449 136.378 209.977 135.11 210.89 135.11C211.333 135.11 211.804 135.38 212.294 135.697C213.104 136.191 213.386 136.256 213.669 136.256C214.413 136.256 214.677 134.457 214.743 133.814C214.809 133.282 215.025 131.026 215.025 127.725V115.781C215.025 112.452 214.743 112.359 213.264 112.173L212.322 112.07C212.105 111.893 212.134 111.277 212.397 111.166C214.036 111.221 215.43 111.259 216.862 111.259C218.294 111.259 219.556 111.231 220.733 111.166C220.987 111.277 221.016 111.902 220.79 112.07L220.338 112.126C218.944 112.368 218.661 112.462 218.661 115.79V127.511L218.67 127.492Z" fill="white"/>
<path d="M240.77 122.82C240.77 127.762 236.975 131.454 231.879 131.454C226.152 131.454 222.855 127.454 222.855 122.998C222.855 117.879 226.604 114.084 231.926 114.084C237.766 114.084 240.761 118.242 240.761 122.83M226.284 122.27C226.284 125.73 227.753 130.448 232.114 130.448C234.987 130.448 237.323 128.322 237.323 123.277C237.323 119.492 235.609 115.091 231.568 115.091C229.025 115.091 226.284 116.918 226.284 122.27Z" fill="white"/>
<path d="M244.302 115.436C244.01 111.799 243.935 111.343 242.136 111.305L241.081 111.277C240.798 111.026 240.742 110.429 241.033 110.224C243.473 109.786 246.694 109.413 249.803 109.151C252.788 108.9 255.426 109.049 257.168 109.823C259.212 110.681 260.795 112.359 261.021 115.072C261.303 118.569 258.741 120.527 256.914 121.441C256.697 121.562 256.801 121.86 256.97 122.084C260.465 126.942 262.678 129.981 264.572 131.315C265.702 132.144 266.851 132.284 267.312 132.284C267.51 132.415 267.548 132.834 267.454 133.03C267.002 133.17 266.276 133.347 264.948 133.459C261.284 133.767 259.146 132.452 256.518 129.133C255.379 127.641 254.116 125.655 253.071 124.247C252.308 123.156 251.875 123.054 250.594 123.147C249.435 123.24 249.398 123.277 249.473 124.089L249.887 128.928C250.236 132.937 250.584 133.03 252.402 133.096L253.25 133.161C253.532 133.385 253.542 134.084 253.259 134.252C251.573 134.308 249.84 134.42 248.183 134.55C246.506 134.69 244.782 134.858 243.04 135.091C242.729 134.96 242.569 134.289 242.88 134.009L243.708 133.823C245.46 133.441 245.8 133.301 245.46 129.282L244.302 115.455V115.436ZM249.172 120.517C249.275 121.72 249.285 121.786 251.131 121.636C254.889 121.329 256.434 119.38 256.132 115.781C255.887 112.779 253.711 110.354 250.387 110.615C248.399 110.774 248.38 110.895 248.512 112.639L249.172 120.517Z" fill="white"/>
<path d="M35.52 120.704C35.52 120.704 25.0838 120.704 24.7824 120.704C24.1984 120.723 24.1325 121.049 24.1419 121.217C24.2172 123.622 24.8671 125.506 26.0916 126.895C27.4009 128.396 28.9456 129.142 30.7163 129.142C31.9031 129.142 32.911 128.835 33.8058 128.2C34.6346 127.594 35.3505 126.541 35.925 125.068C36.283 125.012 36.509 125.161 36.5655 125.469C36.2735 127.203 35.4729 128.788 34.2014 130.177C32.8733 131.65 31.225 132.378 29.2281 132.378C27.0712 132.378 25.2156 131.548 23.6709 129.869C22.1262 128.21 21.3633 125.963 21.3633 123.138C21.3633 120.089 22.1545 117.72 23.7369 116.014C25.3098 114.308 27.2878 113.459 29.6897 113.459C31.6959 113.459 33.3537 114.112 34.6535 115.417C35.699 116.471 36.3206 117.823 36.5279 119.445C36.5749 119.837 36.6126 119.949 36.509 120.322C36.4054 120.695 35.5294 120.685 35.5294 120.685M24.2361 118.783C24.1984 118.998 24.189 119.464 24.6505 119.464H29.7085C32.5059 119.408 32.4494 119.026 32.3929 118.252C32.3552 117.73 32.2234 117.413 32.1009 117.133C31.7713 116.396 31.2721 115.846 30.6316 115.436C29.9817 115.016 29.3035 114.811 28.5971 114.811C27.4856 114.811 26.506 115.231 25.6583 116.051C24.9425 116.751 24.4621 117.618 24.2455 118.783" fill="white"/>
<path d="M100.738 119.445C100.738 119.445 91.102 119.445 90.8194 119.445C90.2731 119.464 90.2072 119.762 90.2072 119.921C90.2825 122.13 90.8854 123.883 92.0251 125.161C93.2401 126.541 94.6529 127.24 96.2919 127.24C97.3939 127.24 98.3169 126.942 99.1364 126.364C99.8993 125.804 100.568 124.834 101.105 123.482C101.435 123.427 101.642 123.566 101.698 123.837C101.425 125.45 100.691 126.895 99.5131 128.2C98.2981 129.543 96.7722 130.214 94.9167 130.214C92.9387 130.214 91.215 129.45 89.7928 127.921C88.3611 126.373 87.6641 124.303 87.6641 121.692C87.6641 118.886 88.3987 116.695 89.8493 115.119C91.2998 113.534 93.1365 112.741 95.3594 112.741C97.2149 112.741 98.7314 113.357 99.9276 114.559C100.898 115.538 101.482 116.779 101.67 118.289C101.717 118.653 101.755 118.755 101.651 119.091C101.557 119.445 100.747 119.436 100.747 119.436M90.3108 117.683C90.2731 117.879 90.2637 118.308 90.697 118.308H95.3688C97.9496 118.252 97.8931 117.907 97.846 117.17C97.8177 116.695 97.6859 116.406 97.5728 116.154C97.2714 115.473 96.8099 114.951 96.2165 114.578C95.6137 114.196 94.9826 114 94.3327 114C93.3155 114 92.4112 114.382 91.62 115.156C90.9607 115.79 90.518 116.583 90.3108 117.674" fill="white"/>
<path d="M204.608 127.986C204.608 127.883 204.542 127.818 204.476 127.818C204.42 127.818 204.382 127.837 204.269 127.911C202.47 129.245 201.359 130.037 200.888 130.261C200.144 130.606 199.334 130.783 198.495 130.783C197.186 130.783 196.103 130.326 195.236 129.431C194.389 128.536 193.965 127.361 193.965 125.897C193.965 124.965 194.172 124.182 194.596 123.501C195.161 122.578 196.15 121.683 197.553 120.844C198.806 120.098 200.841 119.203 203.6 118.177C203.949 118.056 204.269 117.953 204.439 117.692C204.589 117.422 204.608 117.077 204.608 117.077C204.608 115.203 204.297 113.907 203.666 113.207C203.064 112.49 202.197 112.135 201.057 112.135C200.191 112.135 199.494 112.359 198.985 112.844C198.477 113.31 198.213 113.86 198.213 114.457L198.26 115.66C198.26 116.303 198.1 116.797 197.77 117.133C197.431 117.478 197.007 117.664 196.48 117.664C195.952 117.664 195.519 117.478 195.199 117.114C194.878 116.76 194.7 116.275 194.7 115.65C194.7 114.466 195.312 113.394 196.536 112.387C197.742 111.389 199.456 110.895 201.66 110.895C203.327 110.895 204.768 111.194 205.842 111.734C206.652 112.163 207.255 112.825 207.632 113.739C207.867 114.345 207.999 115.538 207.999 117.375V123.79C207.999 125.58 208.037 126.681 208.103 127.11C208.169 127.501 208.291 127.781 208.451 127.921C208.621 128.051 208.809 128.117 209.016 128.117C209.242 128.117 209.421 128.061 209.6 127.977C209.826 127.828 210.25 127.483 210.806 126.923C211.032 126.802 211.315 126.998 211.381 127.483C211.324 127.566 211.277 127.622 211.277 127.622C209.723 129.674 208.225 130.727 206.822 130.727C206.144 130.727 205.607 130.504 205.202 130.037C204.834 129.618 204.646 128.937 204.599 127.995M202.677 127.557C203.252 127.184 204.589 125.73 204.589 123.622V120.098C204.589 119.24 203.949 119.473 203.732 119.548C203.092 119.734 201.962 120.126 200.52 120.881C199.39 121.469 198.637 122.121 198.175 122.774C197.695 123.445 197.459 124.145 197.459 124.937C197.459 125.925 197.761 126.727 198.354 127.38C198.947 128.042 199.616 128.359 200.417 128.359C201.048 128.359 201.83 128.098 202.687 127.557" fill="white"/>
<path d="M163.627 62.1025C163.627 62.0186 163.552 61.9813 163.467 62.0186C160.528 63.324 155.338 68.6666 151.175 75.9673C151.175 75.9673 151.156 76.0139 151.156 76.0419C151.156 76.0885 151.175 76.1258 151.213 76.1538C152.654 77.2634 152.39 77.2167 153.511 78.3729C153.511 78.3729 153.558 78.4102 153.605 78.4009C153.662 78.4009 153.681 78.3729 153.681 78.3729C157.571 74.9137 161.178 73.5711 162.695 69.2447C162.723 69.1515 162.638 69.1142 162.638 69.1142L160.227 67.9766C160.227 67.9766 160.151 67.9394 160.161 67.8834C160.161 67.8181 160.264 67.7995 160.264 67.7995L163.071 67.3519C163.071 67.3519 163.175 67.3333 163.184 67.2494C163.486 65.8508 163.655 64.1911 163.627 62.1118" fill="white"/>
<path d="M124.943 81.7203C122.635 79.8741 119.951 78.8858 112.679 86.9231C112.642 86.9604 112.613 86.9417 112.632 86.8858C115.703 79.7809 119.546 76.8252 121.081 76.993C122.381 77.1329 123.926 79.3893 124.962 81.6923C124.971 81.7203 124.962 81.7296 124.943 81.7203ZM151.033 77.2914C149.281 75.5384 148.151 74.8671 146.738 74.9417C145.514 75.007 142.076 77.2074 139.702 84.2471C137.395 91.1282 136.688 98.0746 134.362 97.944H134.117H133.872C131.546 98.0746 130.83 91.1282 128.531 84.2471C126.158 77.2074 122.72 75.007 121.505 74.9417C120.092 74.8671 118.962 75.5384 117.21 77.2914C115.222 79.2867 111.86 82.9883 110.249 88.6294C110.221 88.7785 110.249 88.8625 110.315 88.9277C118.35 95.3986 125.536 94.69 132.676 98.5688C132.892 98.6713 133.241 98.8205 133.637 98.8951C133.797 98.9417 133.957 98.951 134.126 98.951C134.286 98.951 134.456 98.9417 134.616 98.8951C135.002 98.8112 135.351 98.662 135.567 98.5688C142.707 94.6806 149.894 95.3986 157.928 88.9277C157.994 88.8625 158.022 88.7879 157.994 88.6294C156.393 82.979 153.021 79.2774 151.033 77.2914Z" fill="white"/>
<path d="M132.6 93.8694C132.61 93.916 132.61 93.8974 132.713 94.1118C132.713 94.1118 133.928 96.8344 135.548 94.1118C135.586 94.0372 135.652 93.9067 135.661 93.8601C136.961 85.8694 138.873 79.0629 141.435 75.986C141.473 75.93 141.435 75.8554 141.397 75.8368C133.843 72.4149 126.817 75.8368 126.817 75.8368C126.77 75.8554 126.742 75.93 126.779 75.986C129.351 79.0629 131.3 85.8694 132.6 93.8601" fill="white"/>
</g>
<defs>
<clipPath id="clip0_4001_1196">
<rect width="268" height="200" fill="white" transform="translate(0.5)"/>
</clipPath>
</defs>
</svg>
