<svg width="269" height="200" viewBox="0 0 269 200" fill="none" xmlns="http://www.w3.org/2000/svg">
<path d="M96.9894 61.5662H47.1758V65.9913H96.9894V61.5662Z" fill="white"/>
<path d="M96.9864 101.387H8.50391V105.812H96.9864V101.387Z" fill="white"/>
<path d="M96.9864 91.4294H8.50391V95.8496H96.9864V91.4294Z" fill="white"/>
<path d="M96.9894 81.4768H47.1758V85.892H96.9894V81.4768Z" fill="white"/>
<path d="M96.9894 71.5437H47.1758V75.9688H96.9894V71.5437Z" fill="white"/>
<path d="M27.3731 83.7068C27.3731 85.2414 26.1266 86.483 24.5969 86.483C23.0672 86.483 21.8008 85.2414 21.8008 83.7068C21.8008 82.1721 23.0474 80.9255 24.5969 80.9255C26.1464 80.9255 27.3731 82.1622 27.3731 83.7068Z" fill="white"/>
<path d="M27.3731 73.754C27.3731 75.2936 26.1266 76.5402 24.5969 76.5402C23.0672 76.5402 21.8008 75.2936 21.8008 73.754C21.8008 72.2144 23.0474 70.9778 24.5969 70.9778C26.1464 70.9778 27.3731 72.2194 27.3731 73.754Z" fill="white"/>
<path d="M27.3731 63.7763C27.3731 65.3109 26.1266 66.5575 24.5969 66.5575C23.0672 66.5575 21.8008 65.3059 21.8008 63.7763C21.8008 62.2466 23.0474 61 24.5969 61C26.1464 61 27.3731 62.2416 27.3731 63.7763Z" fill="white"/>
<path d="M14.0525 83.7068C14.0525 85.2414 12.8208 86.483 11.2763 86.483C9.73168 86.483 8.5 85.2414 8.5 83.7068C8.5 82.1721 9.73665 80.9255 11.2763 80.9255C12.8159 80.9255 14.0525 82.1622 14.0525 83.7068Z" fill="white"/>
<path d="M14.0525 73.754C14.0525 75.2936 12.8208 76.5402 11.2763 76.5402C9.73168 76.5402 8.5 75.2936 8.5 73.754C8.5 72.2144 9.73665 70.9778 11.2763 70.9778C12.8159 70.9778 14.0525 72.2194 14.0525 73.754Z" fill="white"/>
<path d="M14.0525 63.7763C14.0525 65.3109 12.8208 66.5575 11.2763 66.5575C9.73168 66.5575 8.5 65.3109 8.5 63.7763C8.5 62.2416 9.73665 61 11.2763 61C12.8159 61 14.0525 62.2416 14.0525 63.7763Z" fill="white"/>
<path d="M40.5585 83.7068C40.5585 85.2414 39.3119 86.483 37.7773 86.483C36.2427 86.483 34.9961 85.2414 34.9961 83.7068C34.9961 82.1721 36.2427 80.9255 37.7773 80.9255C39.3119 80.9255 40.5585 82.1622 40.5585 83.7068Z" fill="white"/>
<path d="M40.5585 73.754C40.5585 75.2936 39.3119 76.5402 37.7773 76.5402C36.2427 76.5402 34.9961 75.2936 34.9961 73.754C34.9961 72.2144 36.2427 70.9778 37.7773 70.9778C39.3119 70.9778 40.5585 72.2194 40.5585 73.754Z" fill="white"/>
<path d="M40.5585 63.7763C40.5585 65.3109 39.3119 66.5575 37.7773 66.5575C36.2427 66.5575 34.9961 65.3059 34.9961 63.7763C34.9961 62.2466 36.2427 61 37.7773 61C39.3119 61 40.5585 62.2416 40.5585 63.7763Z" fill="white"/>
<path d="M119.172 85.8672H125.827L130.446 98.9091H130.505L135.129 85.8672H141.769V105.877H137.359V90.5257H137.299L132.04 105.877H128.688L123.622 90.5257H123.572V105.877H119.172V85.8672Z" fill="white"/>
<path d="M154.792 91.6778L152.374 97.9008H157.256L154.792 91.6778ZM153.099 85.8621H156.739L165.45 105.872H160.469L158.751 101.626H150.978L149.319 105.872H144.457L153.099 85.8621Z" fill="white"/>
<path d="M128.703 77.9505C132.473 77.9505 134.921 75.2339 134.921 71.509C134.921 67.7842 132.473 65.0675 128.703 65.0675C124.934 65.0675 122.485 67.7842 122.485 71.509C122.485 75.2339 124.949 77.9505 128.703 77.9505ZM128.703 61C134.951 61 139.5 65.0924 139.5 71.509C139.5 77.9257 134.951 82.033 128.703 82.033C122.456 82.033 117.906 77.9257 117.906 71.509C117.906 65.0924 122.451 61 128.703 61Z" fill="white"/>
<path d="M147.581 69.7907H150.174C151.783 69.7907 153.874 69.7311 153.874 67.5558C153.874 65.5444 152.066 65.2315 150.457 65.2315H147.576V69.7858L147.581 69.7907ZM143.161 61.5017H150.914C155.001 61.5017 158.453 62.9171 158.453 67.5807C158.453 70.3817 156.963 72.557 154.127 73.0636L159.218 81.5116H153.933L149.747 73.5156H147.576V81.5116H143.156V61.5017H143.161Z" fill="white"/>
<path d="M166.513 61.5017H162.098V81.5116H166.513V61.5017Z" fill="white"/>
<path d="M189.309 80.096C186.707 81.4568 183.856 82.033 180.921 82.033C174.673 82.033 170.129 77.9257 170.129 71.509C170.129 65.0924 174.678 61 180.921 61C184.085 61 186.876 61.7052 188.892 63.5726L185.783 66.9598C184.591 65.7082 183.151 65.0675 180.921 65.0675C177.161 65.0675 174.693 67.7842 174.693 71.509C174.693 75.2339 177.161 77.9505 180.921 77.9505C182.843 77.9505 184.254 77.4191 185.068 76.9572V73.7042H181.482V69.6466H189.309V80.0911V80.096Z" fill="white"/>
<path d="M198.212 61.5017H193.797V81.5116H198.212V61.5017Z" fill="white"/>
<path d="M202.891 61.5017H208.885L217.403 75.4028H217.452V61.5017H221.867V81.5116H216.101L207.36 67.2628H207.306V81.5116H202.891V61.5017Z" fill="white"/>
<path d="M234.884 67.3174L232.461 73.5454H237.353L234.884 67.3174ZM233.191 61.5017H236.836L245.532 81.5116H240.566L238.842 77.2801H231.065L229.401 81.5116H224.539L233.191 61.5017Z" fill="white"/>
<path d="M248.391 61.5017H252.791V77.449H260.971V81.5116H248.391V61.5017Z" fill="white"/>
<path d="M172.537 94.1413H175.13C176.749 94.1413 178.834 94.0916 178.834 91.9114C178.834 89.9149 177.027 89.597 175.418 89.597H172.532V94.1463L172.537 94.1413ZM168.137 85.8672H175.879C179.987 85.8672 183.419 87.2677 183.419 91.9412C183.419 94.7373 181.919 96.9126 179.108 97.4241L184.188 105.877H178.909L174.722 97.8761H172.537V105.877H168.137V85.8672Z" fill="white"/>
<path d="M191.471 85.8672H187.07V105.877H191.471V85.8672Z" fill="white"/>
<path d="M196.164 85.8672H202.159L210.661 99.7733H210.701V85.8672H215.126V105.877H209.36L200.634 91.6283H200.574V105.877H196.164V85.8672Z" fill="white"/>
<path d="M220.047 85.8672H233.635V89.9347H224.442V93.6596H233.119V97.7321H224.442V101.8H234.142V105.877H220.047V85.8672Z" fill="white"/>
<path d="M248.245 90.7491C247.539 89.8502 246.124 89.4181 245.046 89.4181C243.8 89.4181 242.081 89.9843 242.081 91.4941C242.081 95.1246 251.279 92.7903 251.279 99.7931C251.279 104.258 247.698 106.374 243.576 106.374C241.008 106.374 238.749 105.619 236.852 103.871L239.99 100.419C240.899 101.601 242.369 102.311 243.829 102.311C245.29 102.311 246.879 101.631 246.879 100.21C246.879 96.55 237.497 98.5216 237.497 91.8566C237.497 87.5855 241.197 85.3506 245.136 85.3506C247.39 85.3506 249.551 85.9515 251.254 87.4464L248.245 90.7491Z" fill="white"/>
<path d="M251.355 134.221H252.964V129.507C252.964 127.292 253.873 125.787 255.959 125.787C257.463 125.787 258.174 126.791 258.174 128.415V134.221H259.788V128.241C259.788 125.912 258.65 124.298 256.113 124.298C254.523 124.298 253.321 125.191 252.884 126.14H252.84C252.84 125.599 252.8 125.067 252.8 124.546H251.275C251.275 125.187 251.36 125.941 251.36 126.835V134.216L251.355 134.221ZM228.956 129.383C228.956 127.362 230.347 125.787 232.368 125.787C234.389 125.787 235.815 127.253 235.815 129.343C235.815 131.191 234.583 132.855 232.368 132.855C230.486 132.855 228.956 131.345 228.956 129.383ZM237.424 124.546H235.815V126.19H235.78C235.139 124.923 233.659 124.298 232.368 124.298C229.284 124.298 227.223 126.225 227.223 129.383C227.223 132.234 229.333 134.345 232.368 134.345C233.649 134.345 235.005 133.788 235.78 132.552H235.815V133.788C235.815 135.835 235.06 137.697 232.164 137.697C230.669 137.697 229.582 137.116 228.559 136.013L227.416 137.334C228.772 138.68 230.277 139.177 232.164 139.177C235.551 139.177 237.424 137.27 237.424 133.783V124.546ZM211.638 120.761C211.638 121.452 212.145 121.948 212.81 121.948C213.51 121.948 214.002 121.452 214.002 120.761C214.002 120.126 213.476 119.594 212.81 119.594C212.145 119.594 211.638 120.126 211.638 120.761ZM212.02 134.216H213.629V124.546H212.02V134.216ZM191.042 132.666C191.991 134.032 193.183 134.454 194.812 134.454C196.729 134.454 198.671 133.61 198.671 131.424C198.671 129.478 197.225 128.857 195.512 128.519C194.23 128.291 193.068 127.928 193.068 127.123C193.068 126.225 194.091 125.782 194.975 125.782C195.924 125.782 196.614 126.259 197.022 126.95L198.363 126.046C197.702 124.804 196.441 124.293 195.08 124.293C193.282 124.293 191.459 125.266 191.459 127.143C191.459 129.15 193.044 129.542 194.871 129.959C195.904 130.183 196.937 130.451 196.937 131.484C196.937 132.517 195.82 132.974 194.817 132.974C193.679 132.974 192.974 132.462 192.333 131.678L191.052 132.666H191.042ZM170.868 128.509C171.067 126.89 172.234 125.782 174.027 125.782C175.82 125.782 176.883 126.885 176.927 128.509H170.868ZM177.096 131.509C176.336 132.472 175.403 132.969 174.022 132.969C172.264 132.969 170.987 131.549 170.863 129.875H178.661V129.363C178.661 126.16 176.808 124.293 174.087 124.293C171.365 124.293 169.12 126.383 169.12 129.378C169.12 132.189 170.982 134.454 174.017 134.454C175.815 134.454 177.181 133.923 178.308 132.462L177.086 131.514L177.096 131.509ZM154.141 129.378C154.141 131.4 152.805 132.969 150.719 132.969C148.633 132.969 147.292 131.395 147.292 129.378C147.292 127.362 148.633 125.782 150.719 125.782C152.805 125.782 154.141 127.357 154.141 129.378ZM154.141 134.216H155.755V118.591H154.141V125.941H154.111C153.203 124.918 152.035 124.293 150.64 124.293C147.605 124.293 145.549 126.448 145.549 129.378C145.549 132.308 147.685 134.454 150.392 134.454C152.12 134.454 153.506 133.59 154.111 132.492H154.141V134.216ZM122.788 134.216H125.877V129.214C125.877 127.913 126.12 126.657 127.74 126.657C129.359 126.657 129.349 128.142 129.349 129.289V134.216H132.443V128.678C132.443 125.996 131.877 123.925 128.728 123.925C127.223 123.925 126.22 124.749 125.793 125.539H125.748V124.168H122.778V134.216H122.788ZM106.955 129.815V130.471C106.955 131.712 105.823 132.353 104.601 132.353C103.925 132.353 103.146 132.01 103.146 131.261C103.146 129.89 105.236 129.82 106.195 129.82H106.955V129.815ZM106.955 134.216H109.811V129.11C109.811 125.758 108.837 123.925 105.227 123.925C103.593 123.925 101.944 124.456 100.806 125.539L102.455 127.223C103.116 126.483 103.96 126.026 104.983 126.026C106.006 126.026 106.955 126.741 106.955 127.834C104.377 127.834 100.171 127.893 100.171 131.365C100.171 133.381 101.864 134.454 103.732 134.454C104.993 134.454 106.235 134.027 106.92 132.954H106.955V134.221V134.216ZM84.0595 121.015C84.0595 122.003 84.8591 122.803 85.8425 122.803C86.8258 122.803 87.6453 121.998 87.6453 121.015C87.6453 120.031 86.8407 119.212 85.8425 119.212C84.8442 119.212 84.0595 120.021 84.0595 121.015ZM84.288 134.216H87.392V124.168H84.288V134.216ZM67.8937 134.216H70.9878V118.591H67.8937V134.216ZM52.0308 129.815V130.471C52.0308 131.712 50.8836 132.353 49.6717 132.353C48.9814 132.353 48.2066 132.01 48.2066 131.261C48.2066 129.89 50.3025 129.82 51.261 129.82H52.0308V129.815ZM52.0308 134.216H54.8766V129.11C54.8766 125.758 53.8982 123.925 50.2876 123.925C48.6586 123.925 47.0048 124.456 45.8724 125.539L47.5362 127.223C48.1818 126.483 49.0311 126.026 50.0442 126.026C51.0574 126.026 52.0258 126.741 52.0258 127.834C49.4383 127.834 45.2268 127.893 45.2268 131.365C45.2268 133.381 46.9253 134.454 48.8026 134.454C50.0591 134.454 51.3007 134.027 51.9712 132.954H52.0258V134.221L52.0308 134.216ZM33.1185 124.168H30.3969V121.203H27.2929V124.168H25.3113V126.657H27.2929V131.424C27.2929 133.61 28.8871 134.454 30.9532 134.454C31.6683 134.454 32.4431 134.394 33.1185 134.146V131.568C32.8652 131.822 32.1948 131.852 31.857 131.852C30.526 131.852 30.3969 131.067 30.3969 129.994V126.652H33.1185V124.163V124.168ZM9.67188 121.02C9.67188 122.008 10.4764 122.808 11.4697 122.808C12.463 122.808 13.2676 122.003 13.2676 121.02C13.2676 120.036 12.4581 119.217 11.4697 119.217C10.4814 119.217 9.67188 120.026 9.67188 121.02ZM9.92516 134.221H13.0193V124.173H9.9202V134.221H9.92516Z" fill="white"/>
</svg>
