<svg width="268" height="200" viewBox="0 0 268 200" fill="none" xmlns="http://www.w3.org/2000/svg">
<path d="M168.049 91.721V117.749C168.049 119.024 169.053 120.009 170.354 120.009C171.655 120.009 172.598 119.024 172.598 117.749V91.721C172.598 90.446 171.593 89.4603 170.296 89.4603C168.998 89.4603 168.052 90.5032 168.052 91.721M29.2075 104.824C29.2075 112.074 24.3547 116.363 18.4363 116.363C12.5179 116.363 7.37133 111.724 7.37133 104.763V104.649C7.37133 97.8066 12.7535 93.107 18.4363 93.107C24.119 93.107 29.2075 97.6317 29.2075 104.706V104.824ZM33.8725 104.767V104.652C33.8725 94.7924 26.6018 89.1172 19.2661 89.1172C13.6449 89.1172 10.0351 92.1852 7.54892 95.7781V79.3715C7.54892 78.0965 6.54488 77.1109 5.24714 77.1109C3.9494 77.1109 3 78.0965 3 79.3715V117.749C3 118.967 4.00404 120.009 5.30178 120.009C6.59952 120.009 7.5455 118.967 7.5455 117.749V113.978C9.91217 117.345 13.5834 120.356 19.2627 120.356C26.6598 120.356 33.8691 114.563 33.8691 104.763M66.6507 104.881C66.6507 111.202 62.0369 116.423 55.4082 116.423C48.7795 116.423 44.1042 111.202 44.1042 104.767V104.652C44.1042 98.3314 48.66 93.0532 55.2887 93.0532C61.9174 93.0532 66.6507 98.3314 66.6507 104.77V104.888V104.881ZM71.3158 104.763V104.649C71.3158 96.1818 64.5778 89.1138 55.4048 89.1138C46.2318 89.1138 39.4358 96.2961 39.4358 104.763V104.881C39.4358 113.349 46.1123 120.416 55.2853 120.416C64.4582 120.416 71.3123 113.234 71.3123 104.767M104.33 104.824C104.33 112.074 99.4767 116.363 93.5583 116.363C87.64 116.363 82.4934 111.724 82.4934 104.763V104.649C82.4934 97.8066 87.879 93.107 93.5583 93.107C99.2377 93.107 104.33 97.6317 104.33 104.706V104.824ZM108.995 104.767V104.652C108.995 94.7924 101.724 89.1172 94.3882 89.1172C88.7669 89.1172 85.1538 92.1852 82.671 95.7781V79.3715C82.671 78.0965 81.6669 77.1109 80.3658 77.1109C79.0646 77.1109 78.1221 78.0965 78.1221 79.3715V117.749C78.1221 118.967 79.1261 120.009 80.4273 120.009C81.7284 120.009 82.671 118.967 82.671 117.749V113.978C85.0376 117.345 88.7055 120.356 94.3882 120.356C101.785 120.356 108.995 114.563 108.995 104.763M141.537 104.881C141.537 111.202 136.92 116.423 130.295 116.423C123.669 116.423 118.991 111.202 118.991 104.767V104.652C118.991 98.3314 123.546 93.0532 130.175 93.0532C136.804 93.0532 141.537 98.3314 141.537 104.77V104.888V104.881ZM146.202 104.763V104.649C146.202 96.1818 139.468 89.1138 130.295 89.1138C121.122 89.1138 114.326 96.2961 114.326 104.763V104.881C114.326 113.349 121.006 120.416 130.175 120.416C139.345 120.416 146.202 113.234 146.202 104.767M158.21 117.752V79.3648C158.21 78.147 157.206 77.1041 155.908 77.1041C154.61 77.1041 153.664 78.147 153.664 79.3648V117.749C153.664 119.024 154.668 120.009 155.969 120.009C157.271 120.009 158.213 119.024 158.213 117.749M173.001 81.1074V80.3538C173.001 78.9073 171.819 77.9788 170.285 77.9788C168.752 77.9788 167.625 78.9039 167.625 80.3538V81.1074C167.625 82.4967 168.807 83.4824 170.285 83.4824C171.764 83.4824 173.001 82.4967 173.001 81.1074Z" fill="#E30613"/>
<path d="M251.314 106.819C251.891 104.639 252.198 102.355 252.198 100C252.198 85.0871 239.924 73 224.789 73C209.653 73 197.379 85.0871 197.379 100C197.379 114.913 209.649 127 224.789 127C232.418 127 239.32 123.929 244.285 118.973C244.115 118.23 244.016 117.46 244.016 116.666C244.016 112.053 247.082 108.151 251.317 106.819" fill="#E30613"/>
<path d="M265.001 116.662C265.001 110.953 260.306 106.324 254.51 106.324C248.715 106.324 244.016 110.953 244.016 116.662C244.016 122.371 248.715 127 254.51 127C260.306 127 265.001 122.371 265.001 116.662Z" fill="#5BBDB5"/>
</svg>
