<svg width="268" height="200" viewBox="0 0 268 200" fill="none" xmlns="http://www.w3.org/2000/svg">
<path d="M193.013 133.772C192.354 133.751 191.492 133.462 190.826 133.209C190.553 132.455 189.803 131.518 189.628 130.849C189.327 129.849 189.558 128.574 189.032 127.701C188.563 126.961 188.1 126.405 187.701 125.482C187.084 124.052 187.343 122.777 186.888 121.58C186.11 119.572 184.855 117.854 184.393 117.389C183.881 116.875 182.921 112.585 178.527 112.43C174.532 112.289 168.232 117.797 166.193 120.699C165.863 118.157 165.611 115.586 164.868 113.36C163.417 108.986 163.649 110.564 162.226 109.352C161.301 108.571 160.698 108.113 159.528 107.81C157.601 107.317 156.367 108.021 154.524 108.768C152.961 109.395 152.029 110.465 150.845 111.029C150.109 111.74 149.331 112.48 148.371 112.966C147.964 111.705 147.922 110.338 147.691 109.402C147.46 108.472 146.366 107.669 145.799 106.408C145.525 105.795 145.532 105.373 145.203 104.788C144.04 102.724 142.112 102.471 139.779 102.112C136.471 101.598 134.488 102.936 131.551 104.549C129.175 105.852 126.94 106.965 126.113 108.88C125.454 110.402 124.038 111.719 123.338 113.015C122.349 114.867 121.508 117.023 120.758 119.016C119.532 122.228 118.887 125.482 118.004 128.433C117.948 129.954 118.453 129.75 119.013 130.807C120.359 131.243 121.936 132.089 122.595 132.11C123.246 132.131 123.849 131.617 124.592 131.25C125.012 130.264 125.153 129.18 125.405 128.426C125.692 127.616 126.715 126.715 126.905 125.996C127.311 124.566 127.479 122.629 128.019 121.136C128.608 119.537 129.778 117.896 130.899 116.156C131.004 115.987 130.927 115.367 131.103 115.198C132.378 113.952 133.569 112.451 134.81 111.472C135.216 111.155 135.924 111.268 136.05 111.078C136.485 110.409 138.833 109.465 139.183 109.993C139.891 111.036 140.353 111.937 140.76 112.888C141.061 113.6 140.83 114.536 141.103 115.17C141.314 115.67 141.797 115.635 141.776 116.29C141.748 116.952 142.526 132.532 142.792 134.188C142.904 134.913 143.206 135.603 143.206 136.202C144.874 136.963 146.275 137.949 148.111 138.012C149.128 138.04 148.952 137.364 150.515 136.449C150.515 136.449 150.445 133.364 150.683 131.405C151.097 128.025 153.066 123.679 153.094 123.017C153.122 122.164 154.741 117.135 156.837 117.213C157.488 117.234 158.049 117.762 158.336 117.988C158.463 119.523 158.477 121.249 158.967 122.39C159.535 123.791 159.423 126.074 159.815 127.933C160.011 128.898 160.712 130.243 160.691 130.898L160.565 134.66C160.537 135.315 160.782 135.97 160.845 136.336C161.525 137.188 162.359 138.794 163.172 139.224C163.943 139.611 165.331 139.956 166.186 140.992L167.65 141.048C167.706 140.675 168.106 141.083 168.106 141.083C168.225 140.696 168.947 140.907 168.975 140.548C169.038 139.928 169.465 139.548 169.465 139.548C170.412 134.293 170.72 131.412 173.222 126.94C173.719 126.038 174.035 125.545 174.609 124.686C175.352 123.559 176.425 122.193 176.621 121.862C178.015 123.968 179.389 125.672 180.91 128.271C182.823 131.56 184.014 134.441 185.143 137.075C185.528 137.97 186.762 138.864 188.016 139.724C190.168 141.196 191.836 141.914 194.295 141.999C197.015 142.097 197.989 135.984 195.788 133.173C194.786 133.589 193.658 133.807 193.006 133.779" fill="#E11837"/>
<path d="M116.162 132.593C114.912 132.284 113.04 131.737 111.804 130.795C111.387 130.03 110.829 129.433 110.716 129.054C109.537 126.209 109.551 125.725 109.551 123.519C109.551 122.866 110.017 121.413 109.812 115.373C109.777 114.052 109.275 112.444 108.908 111.278C108.47 110.576 106.69 110.295 105.998 110C103.843 110.253 103.695 110.295 103.377 110C102.459 110.063 101.336 111.896 100.912 112.627C100.198 112.367 99.7039 111.854 99.1529 111.482C97.0126 111.046 96.4122 110.358 94.5686 110.176C92.6331 109.979 90.8531 110.281 89.6028 110.59C83.3585 112.135 77.0223 120.521 78.4139 129.594C78.4774 130.086 78.1031 130.557 77.8488 130.971C77.0364 131.673 72 134.005 72 135.88C72 136.54 72.8053 136.99 73.0596 137.439C72.8335 137.629 73.7871 140.22 76.097 140.22C77.6157 140.22 82.0234 135.95 82.97 135.227C84.6723 136.611 86.7632 137.453 88.2748 138.008C89.4686 138.43 91.1144 138.373 92.513 138.9C92.845 138.598 93.0004 138.64 95.395 138.9C99.2801 138.5 102.854 138.036 104.634 134.167C104.783 135.122 105.595 135.957 106.316 136.92C107.502 137.566 109.014 138.781 109.939 139.307C111.359 140.059 116.946 141 117.603 141C122.499 141 118.804 133.246 116.148 132.593M100.537 125.156C99.9865 125.725 100.043 126.898 99.3719 127.811C98.2276 129.384 96.8996 130.29 95.1407 130.486C92.2376 130.816 90.8743 129.953 89.5675 129.742C89.1931 129.103 87.5896 128.12 87.5896 127.466C87.5896 124.938 88.6492 119.91 92.5484 119.109C93.2123 118.709 96.4475 118.926 97.1115 118.926C97.7755 118.926 99.1459 119.72 100.53 120.296V125.156H100.537Z" fill="#E11837"/>
<path d="M110.601 60.4739C111.537 60.4739 112.416 60.4243 116.169 60.4173V94.5757C112.416 94.5686 111.537 94.512 110.601 94.512C109.665 94.512 109 95.3256 109 96.2878C109 97.3066 109.7 98 110.601 98C111.78 98 113.074 97.6958 118.949 97.6958H121.236C126.99 97.6958 128.412 98 129.584 98C130.478 98 131.185 97.3066 131.185 96.2878C131.185 95.3327 130.535 94.512 129.584 94.512C128.541 94.512 127.326 94.5686 123.952 94.5757V81.4726H127.54C136.725 81.4726 143 76.6616 143 69.3035C143 61.9455 136.717 57.1769 127.54 57.1769C123.459 57.1769 121.108 57.3042 118.949 57.3042C113.074 57.3042 111.78 57 110.601 57C109.679 57 109 57.7783 109 58.7051C109 59.6319 109.658 60.4809 110.601 60.4809M123.952 60.7922H127.54C133.287 60.7922 135.217 62.745 135.217 69.3035C135.217 75.8621 133.287 77.928 127.54 77.928H123.952V60.7852V60.7922Z" fill="#E11837"/>
<path d="M82.333 97.6958C87.3269 97.6958 89.3413 97.9363 91.9615 97.9363C101.21 97.9363 110 89.6373 110 77.4965C110 65.3557 101.203 57.1203 91.9615 57.1203C89.285 57.1203 87.0874 57.3042 82.333 57.3042H80.8116C75.0219 57.3042 73.7399 57 72.5848 57C71.6762 57 71 57.7783 71 58.7051C71 59.6319 71.648 60.4809 72.5848 60.4809C73.5216 60.4809 74.3738 60.4243 78.0717 60.4173V94.5757C74.3738 94.5757 73.5075 94.512 72.5848 94.512C71.6621 94.512 71 95.3256 71 96.2878C71 97.3066 71.6973 98 72.5848 98C73.7399 98 75.0148 97.6958 80.8116 97.6958H82.333ZM85.7421 60.8842C86.7986 60.8488 89.0807 60.7922 91.9615 60.7922C98.2937 60.7922 101.527 64.4571 101.527 77.4965C101.527 90.5358 98.2866 94.2078 91.9615 94.2078C88.8906 94.2078 86.7423 94.1441 85.7421 94.1158V60.8842Z" fill="#E11837"/>
<path d="M155 93C155 96.3156 152.536 99 149.5 99C146.464 99 144 96.3156 144 93C144 89.6844 146.464 87 149.5 87C152.536 87 155 89.6844 155 93Z" fill="#E11837"/>
<path d="M173 93C173 96.3156 170.31 99 167.004 99C163.697 99 161 96.3156 161 93C161 89.6844 163.683 87 167.004 87C170.324 87 173 89.6844 173 93Z" fill="#E11837"/>
<path d="M190 93C190 96.3156 187.536 99 184.5 99C181.464 99 179 96.3156 179 93C179 89.6844 181.464 87 184.5 87C187.536 87 190 89.6844 190 93Z" fill="#E11837"/>
<path d="M193.013 133.772C192.354 133.751 191.492 133.462 190.826 133.209C190.553 132.455 189.803 131.518 189.628 130.849C189.327 129.849 189.558 128.574 189.032 127.701C188.563 126.961 188.1 126.405 187.701 125.482C187.084 124.052 187.343 122.777 186.888 121.58C186.11 119.572 184.855 117.854 184.393 117.389C183.881 116.875 182.921 112.585 178.527 112.43C174.532 112.289 168.232 117.797 166.193 120.699C165.863 118.157 165.611 115.586 164.868 113.36C163.417 108.986 163.649 110.564 162.226 109.352C161.301 108.571 160.698 108.113 159.528 107.81C157.601 107.317 156.367 108.021 154.524 108.768C152.961 109.395 152.029 110.465 150.845 111.029C150.109 111.74 149.331 112.48 148.371 112.966C147.964 111.705 147.922 110.338 147.691 109.402C147.46 108.472 146.366 107.669 145.799 106.408C145.525 105.795 145.532 105.373 145.203 104.788C144.04 102.724 142.112 102.471 139.779 102.112C136.471 101.598 134.488 102.936 131.551 104.549C129.175 105.852 126.94 106.965 126.113 108.88C125.454 110.402 124.038 111.719 123.338 113.015C122.349 114.867 121.508 117.023 120.758 119.016C119.532 122.228 118.887 125.482 118.004 128.433C117.948 129.954 118.453 129.75 119.013 130.807C120.359 131.243 121.936 132.089 122.595 132.11C123.246 132.131 123.849 131.617 124.592 131.25C125.012 130.264 125.153 129.18 125.405 128.426C125.692 127.616 126.715 126.715 126.905 125.996C127.311 124.566 127.479 122.629 128.019 121.136C128.608 119.537 129.778 117.896 130.899 116.156C131.004 115.987 130.927 115.367 131.103 115.198C132.378 113.952 133.569 112.451 134.81 111.472C135.216 111.155 135.924 111.268 136.05 111.078C136.485 110.409 138.833 109.465 139.183 109.993C139.891 111.036 140.353 111.937 140.76 112.888C141.061 113.6 140.83 114.536 141.103 115.17C141.314 115.67 141.797 115.635 141.776 116.29C141.748 116.952 142.526 132.532 142.792 134.188C142.904 134.913 143.206 135.603 143.206 136.202C144.874 136.963 146.275 137.949 148.111 138.012C149.128 138.04 148.952 137.364 150.515 136.449C150.515 136.449 150.445 133.364 150.683 131.405C151.097 128.025 153.066 123.679 153.094 123.017C153.122 122.164 154.741 117.135 156.837 117.213C157.488 117.234 158.049 117.762 158.336 117.988C158.463 119.523 158.477 121.249 158.967 122.39C159.535 123.791 159.423 126.074 159.815 127.933C160.011 128.898 160.712 130.243 160.691 130.898L160.565 134.66C160.537 135.315 160.782 135.97 160.845 136.336C161.525 137.188 162.359 138.794 163.172 139.224C163.943 139.611 165.331 139.956 166.186 140.992L167.65 141.048C167.706 140.675 168.106 141.083 168.106 141.083C168.225 140.696 168.947 140.907 168.975 140.548C169.038 139.928 169.465 139.548 169.465 139.548C170.412 134.293 170.72 131.412 173.222 126.94C173.719 126.038 174.035 125.545 174.609 124.686C175.352 123.559 176.425 122.193 176.621 121.862C178.015 123.968 179.389 125.672 180.91 128.271C182.823 131.56 184.014 134.441 185.143 137.075C185.528 137.97 186.762 138.864 188.016 139.724C190.168 141.196 191.836 141.914 194.295 141.999C197.015 142.097 197.989 135.984 195.788 133.173C194.786 133.589 193.658 133.807 193.006 133.779" fill="#E11837"/>
<path d="M116.162 132.593C114.912 132.284 113.04 131.737 111.804 130.795C111.387 130.03 110.829 129.433 110.716 129.054C109.537 126.209 109.551 125.725 109.551 123.519C109.551 122.866 110.017 121.413 109.812 115.373C109.777 114.052 109.275 112.444 108.908 111.278C108.47 110.576 106.69 110.295 105.998 110C103.843 110.253 103.695 110.295 103.377 110C102.459 110.063 101.336 111.896 100.912 112.627C100.198 112.367 99.7039 111.854 99.1529 111.482C97.0126 111.046 96.4122 110.358 94.5686 110.176C92.6331 109.979 90.8531 110.281 89.6028 110.59C83.3585 112.135 77.0223 120.521 78.4139 129.594C78.4774 130.086 78.1031 130.557 77.8488 130.971C77.0364 131.673 72 134.005 72 135.88C72 136.54 72.8053 136.99 73.0596 137.439C72.8335 137.629 73.7871 140.22 76.097 140.22C77.6157 140.22 82.0234 135.95 82.97 135.227C84.6723 136.611 86.7632 137.453 88.2748 138.008C89.4686 138.43 91.1144 138.373 92.513 138.9C92.845 138.598 93.0004 138.64 95.395 138.9C99.2801 138.5 102.854 138.036 104.634 134.167C104.783 135.122 105.595 135.957 106.316 136.92C107.502 137.566 109.014 138.781 109.939 139.307C111.359 140.059 116.946 141 117.603 141C122.499 141 118.804 133.246 116.148 132.593M100.537 125.156C99.9865 125.725 100.043 126.898 99.3719 127.811C98.2276 129.384 96.8996 130.29 95.1407 130.486C92.2376 130.816 90.8743 129.953 89.5675 129.742C89.1931 129.103 87.5896 128.12 87.5896 127.466C87.5896 124.938 88.6492 119.91 92.5484 119.109C93.2123 118.709 96.4475 118.926 97.1115 118.926C97.7755 118.926 99.1459 119.72 100.53 120.296V125.156H100.537Z" fill="#E11837"/>
<path d="M110.601 60.4739C111.537 60.4739 112.416 60.4243 116.169 60.4173V94.5757C112.416 94.5686 111.537 94.512 110.601 94.512C109.665 94.512 109 95.3256 109 96.2878C109 97.3066 109.7 98 110.601 98C111.78 98 113.074 97.6958 118.949 97.6958H121.236C126.99 97.6958 128.412 98 129.584 98C130.478 98 131.185 97.3066 131.185 96.2878C131.185 95.3327 130.535 94.512 129.584 94.512C128.541 94.512 127.326 94.5686 123.952 94.5757V81.4726H127.54C136.725 81.4726 143 76.6616 143 69.3035C143 61.9455 136.717 57.1769 127.54 57.1769C123.459 57.1769 121.108 57.3042 118.949 57.3042C113.074 57.3042 111.78 57 110.601 57C109.679 57 109 57.7783 109 58.7051C109 59.6319 109.658 60.4809 110.601 60.4809M123.952 60.7922H127.54C133.287 60.7922 135.217 62.745 135.217 69.3035C135.217 75.8621 133.287 77.928 127.54 77.928H123.952V60.7852V60.7922Z" fill="#E11837"/>
<path d="M82.333 97.6958C87.3269 97.6958 89.3413 97.9363 91.9615 97.9363C101.21 97.9363 110 89.6373 110 77.4965C110 65.3557 101.203 57.1203 91.9615 57.1203C89.285 57.1203 87.0874 57.3042 82.333 57.3042H80.8116C75.0219 57.3042 73.7399 57 72.5848 57C71.6762 57 71 57.7783 71 58.7051C71 59.6319 71.648 60.4809 72.5848 60.4809C73.5216 60.4809 74.3738 60.4243 78.0717 60.4173V94.5757C74.3738 94.5757 73.5075 94.512 72.5848 94.512C71.6621 94.512 71 95.3256 71 96.2878C71 97.3066 71.6973 98 72.5848 98C73.7399 98 75.0148 97.6958 80.8116 97.6958H82.333ZM85.7421 60.8842C86.7986 60.8488 89.0807 60.7922 91.9615 60.7922C98.2937 60.7922 101.527 64.4571 101.527 77.4965C101.527 90.5358 98.2866 94.2078 91.9615 94.2078C88.8906 94.2078 86.7423 94.1441 85.7421 94.1158V60.8842Z" fill="#E11837"/>
<path d="M155 93C155 96.3156 152.536 99 149.5 99C146.464 99 144 96.3156 144 93C144 89.6844 146.464 87 149.5 87C152.536 87 155 89.6844 155 93Z" fill="#E11837"/>
<path d="M173 93C173 96.3156 170.31 99 167.004 99C163.697 99 161 96.3156 161 93C161 89.6844 163.683 87 167.004 87C170.324 87 173 89.6844 173 93Z" fill="#E11837"/>
<path d="M190 93C190 96.3156 187.536 99 184.5 99C181.464 99 179 96.3156 179 93C179 89.6844 181.464 87 184.5 87C187.536 87 190 89.6844 190 93Z" fill="#E11837"/>
<path d="M193.013 133.772C192.354 133.751 191.492 133.462 190.826 133.209C190.553 132.455 189.803 131.518 189.628 130.849C189.327 129.849 189.558 128.574 189.032 127.701C188.563 126.961 188.1 126.405 187.701 125.482C187.084 124.052 187.343 122.777 186.888 121.58C186.11 119.572 184.855 117.854 184.393 117.389C183.881 116.875 182.921 112.585 178.527 112.43C174.532 112.289 168.232 117.797 166.193 120.699C165.863 118.157 165.611 115.586 164.868 113.36C163.417 108.986 163.649 110.564 162.226 109.352C161.301 108.571 160.698 108.113 159.528 107.81C157.601 107.317 156.367 108.021 154.524 108.768C152.961 109.395 152.029 110.465 150.845 111.029C150.109 111.74 149.331 112.48 148.371 112.966C147.964 111.705 147.922 110.338 147.691 109.402C147.46 108.472 146.366 107.669 145.799 106.408C145.525 105.795 145.532 105.373 145.203 104.788C144.04 102.724 142.112 102.471 139.779 102.112C136.471 101.598 134.488 102.936 131.551 104.549C129.175 105.852 126.94 106.965 126.113 108.88C125.454 110.402 124.038 111.719 123.338 113.015C122.349 114.867 121.508 117.023 120.758 119.016C119.532 122.228 118.887 125.482 118.004 128.433C117.948 129.954 118.453 129.75 119.013 130.807C120.359 131.243 121.936 132.089 122.595 132.11C123.246 132.131 123.849 131.617 124.592 131.25C125.012 130.264 125.153 129.18 125.405 128.426C125.692 127.616 126.715 126.715 126.905 125.996C127.311 124.566 127.479 122.629 128.019 121.136C128.608 119.537 129.778 117.896 130.899 116.156C131.004 115.987 130.927 115.367 131.103 115.198C132.378 113.952 133.569 112.451 134.81 111.472C135.216 111.155 135.924 111.268 136.05 111.078C136.485 110.409 138.833 109.465 139.183 109.993C139.891 111.036 140.353 111.937 140.76 112.888C141.061 113.6 140.83 114.536 141.103 115.17C141.314 115.67 141.797 115.635 141.776 116.29C141.748 116.952 142.526 132.532 142.792 134.188C142.904 134.913 143.206 135.603 143.206 136.202C144.874 136.963 146.275 137.949 148.111 138.012C149.128 138.04 148.952 137.364 150.515 136.449C150.515 136.449 150.445 133.364 150.683 131.405C151.097 128.025 153.066 123.679 153.094 123.017C153.122 122.164 154.741 117.135 156.837 117.213C157.488 117.234 158.049 117.762 158.336 117.988C158.463 119.523 158.477 121.249 158.967 122.39C159.535 123.791 159.423 126.074 159.815 127.933C160.011 128.898 160.712 130.243 160.691 130.898L160.565 134.66C160.537 135.315 160.782 135.97 160.845 136.336C161.525 137.188 162.359 138.794 163.172 139.224C163.943 139.611 165.331 139.956 166.186 140.992L167.65 141.048C167.706 140.675 168.106 141.083 168.106 141.083C168.225 140.696 168.947 140.907 168.975 140.548C169.038 139.928 169.465 139.548 169.465 139.548C170.412 134.293 170.72 131.412 173.222 126.94C173.719 126.038 174.035 125.545 174.609 124.686C175.352 123.559 176.425 122.193 176.621 121.862C178.015 123.968 179.389 125.672 180.91 128.271C182.823 131.56 184.014 134.441 185.143 137.075C185.528 137.97 186.762 138.864 188.016 139.724C190.168 141.196 191.836 141.914 194.295 141.999C197.015 142.097 197.989 135.984 195.788 133.173C194.786 133.589 193.658 133.807 193.006 133.779" fill="#E11837"/>
<path d="M116.162 132.593C114.912 132.284 113.04 131.737 111.804 130.795C111.387 130.03 110.829 129.433 110.716 129.054C109.537 126.209 109.551 125.725 109.551 123.519C109.551 122.866 110.017 121.413 109.812 115.373C109.777 114.052 109.275 112.444 108.908 111.278C108.47 110.576 106.69 110.295 105.998 110C103.843 110.253 103.695 110.295 103.377 110C102.459 110.063 101.336 111.896 100.912 112.627C100.198 112.367 99.7039 111.854 99.1529 111.482C97.0126 111.046 96.4122 110.358 94.5686 110.176C92.6331 109.979 90.8531 110.281 89.6028 110.59C83.3585 112.135 77.0223 120.521 78.4139 129.594C78.4774 130.086 78.1031 130.557 77.8488 130.971C77.0364 131.673 72 134.005 72 135.88C72 136.54 72.8053 136.99 73.0596 137.439C72.8335 137.629 73.7871 140.22 76.097 140.22C77.6157 140.22 82.0234 135.95 82.97 135.227C84.6723 136.611 86.7632 137.453 88.2748 138.008C89.4686 138.43 91.1144 138.373 92.513 138.9C92.845 138.598 93.0004 138.64 95.395 138.9C99.2801 138.5 102.854 138.036 104.634 134.167C104.783 135.122 105.595 135.957 106.316 136.92C107.502 137.566 109.014 138.781 109.939 139.307C111.359 140.059 116.946 141 117.603 141C122.499 141 118.804 133.246 116.148 132.593M100.537 125.156C99.9865 125.725 100.043 126.898 99.3719 127.811C98.2276 129.384 96.8996 130.29 95.1407 130.486C92.2376 130.816 90.8743 129.953 89.5675 129.742C89.1931 129.103 87.5896 128.12 87.5896 127.466C87.5896 124.938 88.6492 119.91 92.5484 119.109C93.2123 118.709 96.4475 118.926 97.1115 118.926C97.7755 118.926 99.1459 119.72 100.53 120.296V125.156H100.537Z" fill="#E11837"/>
<path d="M110.601 60.4739C111.537 60.4739 112.416 60.4243 116.169 60.4173V94.5757C112.416 94.5686 111.537 94.512 110.601 94.512C109.665 94.512 109 95.3256 109 96.2878C109 97.3066 109.7 98 110.601 98C111.78 98 113.074 97.6958 118.949 97.6958H121.236C126.99 97.6958 128.412 98 129.584 98C130.478 98 131.185 97.3066 131.185 96.2878C131.185 95.3327 130.535 94.512 129.584 94.512C128.541 94.512 127.326 94.5686 123.952 94.5757V81.4726H127.54C136.725 81.4726 143 76.6616 143 69.3035C143 61.9455 136.717 57.1769 127.54 57.1769C123.459 57.1769 121.108 57.3042 118.949 57.3042C113.074 57.3042 111.78 57 110.601 57C109.679 57 109 57.7783 109 58.7051C109 59.6319 109.658 60.4809 110.601 60.4809M123.952 60.7922H127.54C133.287 60.7922 135.217 62.745 135.217 69.3035C135.217 75.8621 133.287 77.928 127.54 77.928H123.952V60.7852V60.7922Z" fill="#E11837"/>
<path d="M82.333 97.6958C87.3269 97.6958 89.3413 97.9363 91.9615 97.9363C101.21 97.9363 110 89.6373 110 77.4965C110 65.3557 101.203 57.1203 91.9615 57.1203C89.285 57.1203 87.0874 57.3042 82.333 57.3042H80.8116C75.0219 57.3042 73.7399 57 72.5848 57C71.6762 57 71 57.7783 71 58.7051C71 59.6319 71.648 60.4809 72.5848 60.4809C73.5216 60.4809 74.3738 60.4243 78.0717 60.4173V94.5757C74.3738 94.5757 73.5075 94.512 72.5848 94.512C71.6621 94.512 71 95.3256 71 96.2878C71 97.3066 71.6973 98 72.5848 98C73.7399 98 75.0148 97.6958 80.8116 97.6958H82.333ZM85.7421 60.8842C86.7986 60.8488 89.0807 60.7922 91.9615 60.7922C98.2937 60.7922 101.527 64.4571 101.527 77.4965C101.527 90.5358 98.2866 94.2078 91.9615 94.2078C88.8906 94.2078 86.7423 94.1441 85.7421 94.1158V60.8842Z" fill="#E11837"/>
<path d="M155 93C155 96.3156 152.536 99 149.5 99C146.464 99 144 96.3156 144 93C144 89.6844 146.464 87 149.5 87C152.536 87 155 89.6844 155 93Z" fill="#E11837"/>
<path d="M173 93C173 96.3156 170.31 99 167.004 99C163.697 99 161 96.3156 161 93C161 89.6844 163.683 87 167.004 87C170.324 87 173 89.6844 173 93Z" fill="#E11837"/>
<path d="M190 93C190 96.3156 187.536 99 184.5 99C181.464 99 179 96.3156 179 93C179 89.6844 181.464 87 184.5 87C187.536 87 190 89.6844 190 93Z" fill="#E11837"/>
</svg>
