<svg width="268" height="200" viewBox="0 0 268 200" fill="none" xmlns="http://www.w3.org/2000/svg">
<path d="M96.4874 61.5664H46.6738V65.9915H96.4874V61.5664Z" fill="#E12A27"/>
<path d="M96.4874 101.388H8.005V105.813H96.4874V101.388Z" fill="#E12A27"/>
<path d="M96.4874 91.4297H8.005V95.8498H96.4874V91.4297Z" fill="#E12A27"/>
<path d="M96.4874 81.4766H46.6738V85.8917H96.4874V81.4766Z" fill="#E12A27"/>
<path d="M96.4874 71.5439H46.6738V75.9691H96.4874V71.5439Z" fill="#E12A27"/>
<path d="M26.8725 83.707C26.8725 85.2416 25.626 86.4833 24.0963 86.4833C22.5666 86.4833 21.3002 85.2416 21.3002 83.707C21.3002 82.1724 22.5468 80.9258 24.0963 80.9258C25.6458 80.9258 26.8725 82.1624 26.8725 83.707Z" fill="#1A4884"/>
<path d="M26.8725 73.7538C26.8725 75.2934 25.626 76.54 24.0963 76.54C22.5666 76.54 21.3002 75.2934 21.3002 73.7538C21.3002 72.2142 22.5468 70.9775 24.0963 70.9775C25.6458 70.9775 26.8725 72.2192 26.8725 73.7538Z" fill="#1A4884"/>
<path d="M26.8725 63.7763C26.8725 65.3109 25.626 66.5575 24.0963 66.5575C22.5666 66.5575 21.3002 65.3059 21.3002 63.7763C21.3002 62.2466 22.5468 61 24.0963 61C25.6458 61 26.8725 62.2416 26.8725 63.7763Z" fill="#1A4884"/>
<path d="M13.5525 83.707C13.5525 85.2416 12.3208 86.4833 10.7763 86.4833C9.23168 86.4833 8 85.2416 8 83.707C8 82.1724 9.23665 80.9258 10.7763 80.9258C12.3159 80.9258 13.5525 82.1624 13.5525 83.707Z" fill="#1A4884"/>
<path d="M13.5525 73.7538C13.5525 75.2934 12.3208 76.54 10.7763 76.54C9.23168 76.54 8 75.2934 8 73.7538C8 72.2142 9.23665 70.9775 10.7763 70.9775C12.3159 70.9775 13.5525 72.2192 13.5525 73.7538Z" fill="#1A4884"/>
<path d="M13.5525 63.7763C13.5525 65.3109 12.3208 66.5575 10.7763 66.5575C9.23168 66.5575 8 65.3109 8 63.7763C8 62.2416 9.23665 61 10.7763 61C12.3159 61 13.5525 62.2416 13.5525 63.7763Z" fill="#1A4884"/>
<path d="M40.0585 83.707C40.0585 85.2416 38.8119 86.4833 37.2773 86.4833C35.7427 86.4833 34.4961 85.2416 34.4961 83.707C34.4961 82.1724 35.7427 80.9258 37.2773 80.9258C38.8119 80.9258 40.0585 82.1624 40.0585 83.707Z" fill="#1A4884"/>
<path d="M40.0585 73.7538C40.0585 75.2934 38.8119 76.54 37.2773 76.54C35.7427 76.54 34.4961 75.2934 34.4961 73.7538C34.4961 72.2142 35.7427 70.9775 37.2773 70.9775C38.8119 70.9775 40.0585 72.2192 40.0585 73.7538Z" fill="#1A4884"/>
<path d="M40.0585 63.7763C40.0585 65.3109 38.8119 66.5575 37.2773 66.5575C35.7427 66.5575 34.4961 65.3059 34.4961 63.7763C34.4961 62.2466 35.7427 61 37.2773 61C38.8119 61 40.0585 62.2416 40.0585 63.7763Z" fill="#1A4884"/>
<path d="M118.673 85.8672H125.328L129.946 98.9091H130.006L134.63 85.8672H141.27V105.877H136.86V90.5257H136.8L131.541 105.877H128.188L123.123 90.5257H123.073V105.877H118.673V85.8672Z" fill="#1A4884"/>
<path d="M154.292 91.678L151.873 97.901H156.755L154.292 91.678ZM152.598 85.8623H156.239L164.95 105.872H159.969L158.25 101.626H150.478L148.819 105.872H143.957L152.598 85.8623Z" fill="#1A4884"/>
<path d="M128.203 77.9505C131.973 77.9505 134.421 75.2339 134.421 71.509C134.421 67.7842 131.973 65.0675 128.203 65.0675C124.434 65.0675 121.985 67.7842 121.985 71.509C121.985 75.2339 124.449 77.9505 128.203 77.9505ZM128.203 61C134.451 61 139 65.0924 139 71.509C139 77.9257 134.451 82.033 128.203 82.033C121.955 82.033 117.406 77.9257 117.406 71.509C117.406 65.0924 121.951 61 128.203 61Z" fill="#1A4884"/>
<path d="M147.081 69.791H149.673C151.282 69.791 153.373 69.7314 153.373 67.5561C153.373 65.5447 151.565 65.2318 149.956 65.2318H147.076V69.786L147.081 69.791ZM142.661 61.502H150.413C154.501 61.502 157.952 62.9174 157.952 67.5809C157.952 70.382 156.462 72.5573 153.627 73.0639L158.717 81.5118H153.433L149.246 73.5158H147.076V81.5118H142.656V61.502H142.661Z" fill="#1A4884"/>
<path d="M166.013 61.502H161.598V81.5118H166.013V61.502Z" fill="#1A4884"/>
<path d="M188.809 80.096C186.206 81.4568 183.356 82.033 180.421 82.033C174.173 82.033 169.628 77.9257 169.628 71.509C169.628 65.0924 174.178 61 180.421 61C183.584 61 186.375 61.7052 188.392 63.5726L185.283 66.9598C184.091 65.7082 182.65 65.0675 180.421 65.0675C176.661 65.0675 174.193 67.7842 174.193 71.509C174.193 75.2339 176.661 77.9505 180.421 77.9505C182.343 77.9505 183.753 77.4191 184.568 76.9572V73.7042H180.982V69.6466H188.809V80.0911V80.096Z" fill="#1A4884"/>
<path d="M197.714 61.502H193.299V81.5118H197.714V61.502Z" fill="#1A4884"/>
<path d="M202.392 61.502H208.387L216.904 75.4031H216.954V61.502H221.369V81.5118H215.603L206.862 67.263H206.807V81.5118H202.392V61.502Z" fill="#1A4884"/>
<path d="M234.386 67.3177L231.963 73.5456H236.854L234.386 67.3177ZM232.693 61.502H236.338L245.034 81.5118H240.068L238.344 77.2804H230.567L228.903 81.5118H224.041L232.693 61.502Z" fill="#1A4884"/>
<path d="M247.89 61.502H252.29V77.4493H260.47V81.5118H247.89V61.502Z" fill="#1A4884"/>
<path d="M172.037 94.1413H174.63C176.249 94.1413 178.335 94.0916 178.335 91.9114C178.335 89.9149 176.527 89.597 174.918 89.597H172.032V94.1463L172.037 94.1413ZM167.637 85.8672H175.38C179.487 85.8672 182.919 87.2677 182.919 91.9412C182.919 94.7373 181.419 96.9126 178.608 97.4241L183.688 105.877H178.409L174.222 97.8761H172.037V105.877H167.637V85.8672Z" fill="#1A4884"/>
<path d="M190.969 85.8672H186.569V105.877H190.969V85.8672Z" fill="#1A4884"/>
<path d="M195.663 85.8672H201.657L210.16 99.7733H210.199V85.8672H214.625V105.877H208.859L200.132 91.6283H200.073V105.877H195.663V85.8672Z" fill="#1A4884"/>
<path d="M219.546 85.8672H233.135V89.9347H223.942V93.6596H232.618V97.7321H223.942V101.8H233.641V105.877H219.546V85.8672Z" fill="#1A4884"/>
<path d="M247.746 90.7491C247.041 89.8502 245.625 89.4181 244.548 89.4181C243.301 89.4181 241.583 89.9843 241.583 91.4941C241.583 95.1246 250.78 92.7903 250.78 99.7931C250.78 104.258 247.2 106.374 243.077 106.374C240.51 106.374 238.25 105.619 236.353 103.871L239.492 100.419C240.401 101.601 241.871 102.311 243.331 102.311C244.791 102.311 246.38 101.631 246.38 100.21C246.38 96.55 236.999 98.5216 236.999 91.8566C236.999 87.5855 240.699 85.3506 244.637 85.3506C246.892 85.3506 249.052 85.9515 250.756 87.4464L247.746 90.7491Z" fill="#1A4884"/>
<path d="M250.855 134.22H252.464V129.507C252.464 127.292 253.373 125.787 255.459 125.787C256.964 125.787 257.674 126.79 257.674 128.414V134.22H259.288V128.241C259.288 125.911 258.151 124.297 255.613 124.297C254.023 124.297 252.822 125.191 252.385 126.14H252.34C252.34 125.598 252.3 125.067 252.3 124.546H250.775C250.775 125.186 250.86 125.941 250.86 126.835V134.215L250.855 134.22ZM228.456 129.383C228.456 127.362 229.847 125.787 231.868 125.787C233.889 125.787 235.315 127.252 235.315 129.343C235.315 131.191 234.083 132.854 231.868 132.854C229.986 132.854 228.456 131.345 228.456 129.383ZM236.924 124.546H235.315V126.19H235.28C234.639 124.923 233.159 124.297 231.868 124.297C228.784 124.297 226.723 126.224 226.723 129.383C226.723 132.234 228.834 134.344 231.868 134.344C233.149 134.344 234.505 133.788 235.28 132.552H235.315V133.788C235.315 135.834 234.56 137.697 231.664 137.697C230.17 137.697 229.082 137.116 228.059 136.013L226.917 137.334C228.272 138.68 229.777 139.177 231.664 139.177C235.052 139.177 236.924 137.27 236.924 133.783V124.546ZM211.138 120.761C211.138 121.452 211.645 121.948 212.31 121.948C213.01 121.948 213.502 121.452 213.502 120.761C213.502 120.125 212.976 119.594 212.31 119.594C211.645 119.594 211.138 120.125 211.138 120.761ZM211.521 134.215H213.13V124.546H211.521V134.215ZM190.542 132.666C191.491 134.032 192.683 134.454 194.312 134.454C196.229 134.454 198.171 133.609 198.171 131.424C198.171 129.477 196.725 128.856 195.012 128.519C193.731 128.29 192.569 127.928 192.569 127.123C192.569 126.224 193.592 125.782 194.476 125.782C195.424 125.782 196.115 126.259 196.522 126.949L197.863 126.045C197.202 124.804 195.941 124.292 194.58 124.292C192.782 124.292 190.959 125.266 190.959 127.143C190.959 129.15 192.544 129.542 194.371 129.959C195.404 130.183 196.437 130.451 196.437 131.484C196.437 132.517 195.32 132.974 194.317 132.974C193.179 132.974 192.474 132.462 191.833 131.677L190.552 132.666H190.542ZM170.368 128.509C170.567 126.89 171.734 125.782 173.527 125.782C175.32 125.782 176.383 126.885 176.428 128.509H170.368ZM176.596 131.509C175.837 132.472 174.903 132.969 173.522 132.969C171.764 132.969 170.488 131.548 170.363 129.875H178.161V129.363C178.161 126.16 176.308 124.292 173.587 124.292C170.865 124.292 168.62 126.383 168.62 129.378C168.62 132.189 170.483 134.454 173.517 134.454C175.315 134.454 176.681 133.922 177.808 132.462L176.586 131.514L176.596 131.509ZM153.641 129.378C153.641 131.399 152.305 132.969 150.22 132.969C148.134 132.969 146.793 131.394 146.793 129.378C146.793 127.362 148.134 125.782 150.22 125.782C152.305 125.782 153.641 127.357 153.641 129.378ZM153.641 134.215H155.256V118.591H153.641V125.941H153.612C152.703 124.918 151.536 124.292 150.14 124.292C147.106 124.292 145.049 126.448 145.049 129.378C145.049 132.308 147.185 134.454 149.892 134.454C151.62 134.454 153.006 133.59 153.612 132.492H153.641V134.215ZM122.288 134.215H125.377V129.214C125.377 127.913 125.621 126.656 127.24 126.656C128.859 126.656 128.849 128.141 128.849 129.289V134.215H131.943V128.678C131.943 125.996 131.377 123.925 128.228 123.925C126.723 123.925 125.72 124.749 125.293 125.539H125.248V124.168H122.278V134.215H122.288ZM106.455 129.815V130.471C106.455 131.712 105.323 132.353 104.101 132.353C103.426 132.353 102.646 132.01 102.646 131.26C102.646 129.89 104.737 129.82 105.695 129.82H106.455V129.815ZM106.455 134.215H109.311V129.11C109.311 125.757 108.337 123.925 104.727 123.925C103.093 123.925 101.444 124.456 100.307 125.539L101.955 127.223C102.616 126.483 103.46 126.026 104.483 126.026C105.506 126.026 106.455 126.741 106.455 127.833C103.877 127.833 99.6709 127.893 99.6709 131.365C99.6709 133.381 101.364 134.454 103.232 134.454C104.493 134.454 105.735 134.027 106.42 132.954H106.455V134.22V134.215ZM83.5597 121.014C83.5597 122.003 84.3593 122.802 85.3426 122.802C86.326 122.802 87.1455 121.998 87.1455 121.014C87.1455 120.031 86.3409 119.212 85.3426 119.212C84.3444 119.212 83.5597 120.021 83.5597 121.014ZM83.7881 134.215H86.8922V124.168H83.7881V134.215ZM67.3939 134.215H70.488V118.591H67.3939V134.215ZM51.531 129.815V130.471C51.531 131.712 50.3837 132.353 49.1719 132.353C48.4816 132.353 47.7068 132.01 47.7068 131.26C47.7068 129.89 49.8027 129.82 50.7612 129.82H51.531V129.815ZM51.531 134.215H54.3768V129.11C54.3768 125.757 53.3984 123.925 49.7878 123.925C48.1588 123.925 46.5049 124.456 45.3726 125.539L47.0363 127.223C47.682 126.483 48.5312 126.026 49.5444 126.026C50.5576 126.026 51.526 126.741 51.526 127.833C48.9385 127.833 44.7269 127.893 44.7269 131.365C44.7269 133.381 46.4255 134.454 48.3028 134.454C49.5593 134.454 50.8009 134.027 51.4714 132.954H51.526V134.22L51.531 134.215ZM32.6187 124.168H29.8971V121.203H26.7931V124.168H24.8114V126.656H26.7931V131.424C26.7931 133.609 28.3873 134.454 30.4533 134.454C31.1685 134.454 31.9433 134.394 32.6187 134.146V131.568C32.3654 131.821 31.695 131.851 31.3572 131.851C30.0262 131.851 29.8971 131.067 29.8971 129.994V126.651H32.6187V124.163V124.168ZM9.17206 121.019C9.17206 122.008 9.97662 122.807 10.9699 122.807C11.9632 122.807 12.7678 122.003 12.7678 121.019C12.7678 120.036 11.9582 119.217 10.9699 119.217C9.98159 119.217 9.17206 120.026 9.17206 121.019ZM9.42535 134.22H12.5195V124.173H9.42038V134.22H9.42535Z" fill="#1A4884"/>
</svg>
