<svg width="269" height="200" viewBox="0 0 269 200" fill="none" xmlns="http://www.w3.org/2000/svg">
<path d="M85.7564 67.0594C86.1216 67.3516 86.5269 67.5743 86.9697 67.7219C87.3492 67.8463 87.7488 67.9099 88.1455 67.9099C89.4565 67.9099 90.71 67.2243 91.5006 66.0701C92.1561 65.1039 92.435 63.9294 92.2855 62.7578C92.1302 61.5833 91.5667 60.5534 90.6956 59.8534C90.3305 59.5583 89.9222 59.3327 89.4824 59.1938C89.1029 59.0636 88.7033 59 88.3065 59C86.9955 59 85.7421 59.6914 84.9543 60.8485C83.5973 62.8301 83.9596 65.6159 85.7593 67.0594" fill="white"/>
<path d="M220.587 79.0792C220.953 79.3685 221.358 79.5912 221.781 79.7272L221.804 79.7388C222.186 79.8631 222.577 79.9297 222.977 79.9297C224.29 79.9297 225.541 79.2412 226.329 78.0869C226.987 77.1265 227.266 75.9491 227.114 74.7747C226.961 73.6002 226.401 72.5703 225.527 71.8732C225.159 71.5781 224.753 71.3525 224.313 71.2107C223.931 71.0805 223.534 71.0198 223.132 71.0198C221.821 71.0198 220.567 71.7083 219.78 72.8654C218.423 74.8499 218.782 77.6357 220.582 79.0821" fill="white"/>
<path d="M189.552 132.108C186.697 131.564 186.059 130.933 186.059 129.657C186.059 128.309 187.065 127.317 189.213 127.317C191.36 127.317 192.398 128.457 192.398 130.138H194.12C194.12 127.331 192.229 125.622 189.207 125.622C186.185 125.622 184.34 127.248 184.34 129.73C184.34 132.212 186.102 133.253 189.207 133.835C192.266 134.373 192.775 135.2 192.775 136.406C192.775 138.052 191.616 139.114 189.227 139.114C187.117 139.114 185.68 137.882 185.68 135.926H183.926C183.926 138.859 186.024 140.798 189.227 140.798C192.43 140.798 194.477 139.288 194.477 136.406C194.477 133.525 192.608 132.744 189.555 132.11" fill="white"/>
<path d="M169.534 125.989H167.832V140.549H169.534V125.989Z" fill="white"/>
<path d="M100.475 133.091H96.3463V127.71H100.475C102.096 127.71 103.263 128.483 103.263 130.398C103.263 132.313 102.096 133.091 100.475 133.091ZM100.475 125.992H94.6328V140.552H96.3434V134.798H100.472C103.338 134.798 104.937 132.955 104.937 130.398C104.937 127.841 103.338 125.989 100.472 125.989" fill="white"/>
<path d="M195.735 101.71C194.177 105.201 191.222 107.458 188.209 107.458C187.398 107.458 186.613 107.281 185.863 106.934C184.606 106.437 183.649 105.45 183.103 104.079C182.258 101.947 182.571 98.9499 183.991 95.6434C185.457 92.2328 188.427 88.5878 192.366 88.5878C193.131 88.5878 193.861 88.7325 194.508 89.0131C195.695 89.6148 196.469 90.6475 197.012 92.3658C197.716 94.6078 197.19 98.4495 195.735 101.707M163.214 101.71C161.656 105.196 158.703 107.455 155.687 107.455C154.877 107.455 154.092 107.278 153.341 106.931C152.085 106.434 151.128 105.447 150.584 104.076C149.753 101.982 150.098 98.9586 151.559 95.5624C153.045 92.091 156.3 88.5849 159.64 88.5849H159.833C160.71 88.6225 161.403 88.7585 161.992 89.0102C163.177 89.6119 163.95 90.6446 164.49 92.3629C165.198 94.6049 164.672 98.4437 163.214 101.707M103.996 101.707C102.437 105.193 99.479 107.452 96.4661 107.452C95.6582 107.452 94.8734 107.275 94.1201 106.928C92.8609 106.431 91.9093 105.444 91.363 104.073C90.5322 101.982 90.8772 98.9586 92.3377 95.5595C93.8269 92.0881 97.0785 88.582 100.422 88.582H100.612C101.489 88.6196 102.179 88.7556 102.768 89.0073C103.955 89.609 104.723 90.6417 105.269 92.3601C105.974 94.6049 105.45 98.4437 103.996 101.704M60.0117 127.861C59.9628 127.927 55.4175 134.471 50.5301 134.477C48.7303 134.477 47.2929 133.71 46.4821 132.316C45.381 130.43 45.6024 127.609 47.0887 124.566C52.3269 113.862 64.8703 110.226 68.9959 109.026C69.0419 109.011 69.0821 109.002 69.1253 108.988C68.165 111.809 64.7553 121.256 60.0145 127.861M225.376 101.148L225.011 101.614C222.61 104.71 219.457 107.041 217.671 107.041C217.41 107.041 217.183 106.989 216.999 106.882C216.067 106.353 215.762 105.635 216.659 103.194C217.036 102.329 223.49 83.6555 223.553 83.4675L223.755 82.9121H217.211L217.114 83.184C217.059 83.3605 210.999 100.778 209.906 102.673L209.762 102.916C209.682 103.043 209.607 103.176 209.544 103.292C209.532 103.304 209.524 103.318 209.518 103.333C207.14 106.243 204.628 107.281 203.069 107.281C202.977 107.281 202.888 107.275 202.799 107.267C202.319 107.226 202.006 107.157 201.701 106.911C200.772 106.141 200.772 105.236 201.704 102.716C202.078 101.849 212.643 71.983 212.744 71.6995L212.991 70.9937H206.453L200.994 86.5686C200.373 85.5098 199.461 84.587 198.228 83.7684C196.661 82.7241 194.758 82.1744 192.72 82.1744C187.013 82.1744 181.536 86.2417 178.767 92.5394C177.178 96.1554 176.479 99.0917 176.559 101.765C176.568 102.12 176.588 102.462 176.62 102.794C174.369 105.47 171.819 107.267 170.252 107.267C169.806 107.267 169.421 107.137 169.113 106.888C168.153 106.092 168.288 105.146 169.179 102.716C169.565 101.828 175.898 83.8031 175.959 83.6295L176.214 82.915H169.763L168.472 86.5715C167.854 85.5127 166.946 84.5928 165.704 83.7684C164.143 82.7241 162.236 82.1744 160.195 82.1744C154.486 82.1744 149.009 86.2417 146.246 92.5394C145.168 94.9954 144.501 97.1535 144.208 99.1293C142.819 100.408 140.838 102.17 139.171 103.442C137.29 104.877 133.513 107.29 129.373 107.29C128.413 107.29 127.481 107.151 126.607 106.888C125.414 106.526 124.531 105.736 123.991 104.533C123.022 102.384 123.255 99.1177 124.615 95.7938C126.363 91.5298 129.68 88.7267 133.059 88.6515H133.179C136.307 88.6515 137.819 91.4459 137.857 93.3436V93.3639C137.86 93.7775 137.894 93.7775 139.685 93.7775H142.356C143.493 93.7795 144.093 93.6956 144.156 93.5259L144.259 93.2713L144.185 93.1961C144.11 89.7247 141.609 85.4491 138.699 83.8233C136.891 82.8137 135.028 82.3017 133.148 82.3017C127.47 82.3017 122.151 86.2446 119.267 92.5973C117.663 96.1323 116.97 99.7049 117.258 102.945C115.012 105.572 112.572 107.267 111.022 107.267C110.573 107.267 110.191 107.137 109.889 106.888C108.923 106.092 109.061 105.146 109.955 102.716C110.257 102.019 114.233 90.7372 116.576 84.075L116.988 82.915H110.536L109.248 86.5715C108.627 85.5127 107.719 84.587 106.482 83.7684C104.913 82.7241 103.007 82.1744 100.974 82.1744C95.2615 82.1744 89.7876 86.2417 87.0219 92.5394C85.777 95.3802 85.0784 97.7899 84.8714 99.9913L84.5552 100.032C82.5657 100.171 79.6907 100.503 78.3568 100.691C78.4746 100.356 78.6615 99.812 78.9289 99.0222C79.9868 95.9414 81.9504 90.2049 83.5863 85.5995L88.8101 70.8982H82.5226L62.993 85.9525L66.6528 91.093L78.4229 81.9777L71.5029 101.869C64.4592 103.361 58.0021 105.962 52.83 109.41C47.6724 112.841 43.7452 117.131 41.4682 121.812C39.22 126.432 38.8779 131.014 40.5051 134.708C42.2876 138.758 45.611 140.997 49.8659 140.997C53.2325 140.997 56.9182 139.513 59.9829 136.927C65.6667 132.136 71.2039 121.948 76.0022 107.461C76.0597 107.284 76.1085 107.128 76.1545 107.006C78.0319 106.648 80.5618 106.309 82.8043 106.023C82.8273 106.02 82.8446 106.011 82.8647 106.008C83.0746 105.985 83.1464 105.78 83.3448 105.256C83.569 104.672 83.983 103.497 84.8082 101.172C84.8053 101.374 84.8053 101.574 84.811 101.768C84.9778 108.242 88.9222 111.719 91.2279 112.746C92.8465 113.475 94.5514 113.842 96.2965 113.842C99.4618 113.842 102.633 112.584 104.849 110.46C105.286 111.117 106.241 112.254 107.966 113.035C108.843 113.437 109.8 113.64 110.815 113.64C113.561 113.64 116.714 112.092 119.512 109.384C120.601 110.938 122.042 112.138 123.692 112.859C125.175 113.507 126.854 113.836 128.689 113.836C133.507 113.836 137.854 111.632 139.498 110.683C141.321 109.633 143.282 108.25 145.047 106.761C146.358 109.969 148.675 111.953 150.455 112.743C152.071 113.472 153.775 113.839 155.521 113.839C158.686 113.839 161.857 112.581 164.074 110.458C164.508 111.114 165.465 112.251 167.187 113.032C168.064 113.434 169.027 113.637 170.039 113.637C172.854 113.637 176.065 112.031 178.905 109.217C180.015 110.79 181.519 112.095 182.971 112.743C184.589 113.472 186.294 113.839 188.039 113.839C191.202 113.839 194.376 112.581 196.595 110.463C196.73 110.666 196.914 110.912 197.153 111.178C197.946 112.138 198.823 112.833 199.755 113.246C200.585 113.614 201.563 113.807 202.745 113.839H202.946C205.622 113.839 208.664 112.607 211.323 110.446C212.094 111.542 213.603 113.2 215.866 113.619C216.415 113.718 216.964 113.77 217.51 113.77C221.406 113.77 225.238 111.282 229.226 106.17L229.499 105.815L225.373 101.151L225.376 101.148Z" fill="white"/>
<path d="M148.626 133.082H144.127V127.71H148.571C150.314 127.71 151.354 128.564 151.354 130.398C151.354 132.108 150.202 133.082 148.629 133.082M153.065 130.398C153.065 127.794 151.423 125.989 148.574 125.989H142.422V140.549H144.13V134.795H148.597C150.696 134.795 150.952 136.048 150.952 136.991V140.549H152.622V136.991C152.622 135.541 152.125 134.514 151.173 133.95C152.366 133.192 153.065 131.96 153.065 130.395" fill="white"/>
<path d="M120.224 134.656L122.493 128.156L124.73 134.656H120.224ZM121.573 125.989L116.32 140.549H118.146L119.652 136.331H125.276L126.742 140.549H128.637L123.49 125.989H121.573Z" fill="white"/>
</svg>
