<svg width="268" height="200" viewBox="0 0 268 200" fill="none" xmlns="http://www.w3.org/2000/svg">
<path d="M85.258 67.0594C85.6231 67.3516 86.0285 67.5743 86.4713 67.7219C86.8507 67.8463 87.2504 67.9099 87.6471 67.9099C88.9581 67.9099 90.2116 67.2243 91.0022 66.0701C91.6577 65.1039 91.9365 63.9294 91.787 62.7578C91.6318 61.5833 91.0683 60.5534 90.1972 59.8534C89.8321 59.5583 89.4238 59.3327 88.984 59.1938C88.6045 59.0636 88.2049 59 87.8081 59C86.4971 59 85.2436 59.6914 84.4559 60.8485C83.0989 62.8301 83.4612 65.6159 85.2609 67.0594" fill="#001A4B"/>
<path d="M220.088 79.0789C220.453 79.3682 220.858 79.591 221.281 79.7269L221.304 79.7385C221.686 79.8629 222.077 79.9294 222.477 79.9294C223.791 79.9294 225.041 79.2409 225.829 78.0867C226.487 77.1263 226.766 75.9489 226.614 74.7744C226.461 73.5999 225.901 72.5701 225.027 71.8729C224.659 71.5778 224.254 71.3522 223.814 71.2105C223.431 71.0803 223.035 71.0195 222.632 71.0195C221.321 71.0195 220.068 71.708 219.28 72.8652C217.923 74.8496 218.282 77.6354 220.082 79.0818" fill="#001A4B"/>
<path d="M189.053 132.108C186.198 131.564 185.559 130.933 185.559 129.658C185.559 128.31 186.566 127.317 188.713 127.317C190.861 127.317 191.899 128.457 191.899 130.138H193.621C193.621 127.332 191.729 125.622 188.708 125.622C185.686 125.622 183.84 127.248 183.84 129.73C183.84 132.212 185.603 133.253 188.708 133.835C191.767 134.373 192.275 135.2 192.275 136.407C192.275 138.053 191.117 139.114 188.728 139.114C186.617 139.114 185.18 137.882 185.18 135.926H183.426C183.426 138.86 185.525 140.798 188.728 140.798C191.93 140.798 193.977 139.288 193.977 136.407C193.977 133.525 192.109 132.744 189.055 132.111" fill="#001A4B"/>
<path d="M169.034 125.989H167.332V140.549H169.034V125.989Z" fill="#001A4B"/>
<path d="M99.975 133.091H95.8465V127.71H99.975C101.596 127.71 102.764 128.483 102.764 130.398C102.764 132.313 101.596 133.091 99.975 133.091ZM99.975 125.992H94.1331V140.552H95.8437V134.798H99.9721C102.838 134.798 104.437 132.955 104.437 130.398C104.437 127.841 102.838 125.989 99.9721 125.989" fill="#001A4B"/>
<path d="M195.236 101.71C193.678 105.202 190.723 107.458 187.71 107.458C186.899 107.458 186.114 107.281 185.364 106.934C184.108 106.437 183.15 105.45 182.604 104.079C181.759 101.947 182.072 98.9502 183.492 95.6437C184.959 92.233 187.928 88.5881 191.867 88.5881C192.632 88.5881 193.362 88.7327 194.009 89.0133C195.196 89.615 195.97 90.6477 196.513 92.3661C197.217 94.608 196.691 98.4497 195.236 101.707M162.715 101.71C161.157 105.196 158.204 107.455 155.188 107.455C154.378 107.455 153.593 107.279 152.842 106.931C151.586 106.434 150.629 105.447 150.085 104.076C149.254 101.982 149.599 98.9588 151.06 95.5627C152.546 92.0913 155.801 88.5852 159.141 88.5852H159.334C160.211 88.6228 160.904 88.7587 161.493 89.0104C162.678 89.6121 163.451 90.6449 163.991 92.3632C164.699 94.6051 164.173 98.4439 162.715 101.707M103.497 101.707C101.938 105.193 98.9801 107.452 95.9672 107.452C95.1593 107.452 94.3745 107.276 93.6212 106.929C92.362 106.431 91.4104 105.445 90.8641 104.073C90.0333 101.982 90.3783 98.9588 91.8388 95.5598C93.328 92.0884 96.5796 88.5823 99.9231 88.5823H100.113C100.99 88.6199 101.68 88.7558 102.269 89.0075C103.456 89.6092 104.224 90.642 104.77 92.3603C105.475 94.6051 104.951 98.4439 103.497 101.704M59.5128 127.861C59.4639 127.928 54.9186 134.471 50.0312 134.477C48.2314 134.477 46.794 133.71 45.9832 132.316C44.8821 130.43 45.1035 127.609 46.5898 124.566C51.828 113.863 64.3714 110.226 68.497 109.026C68.543 109.011 68.5832 109.003 68.6264 108.988C67.6661 111.809 64.2564 121.257 59.5156 127.861M224.877 101.149L224.512 101.614C222.112 104.71 218.958 107.041 217.172 107.041C216.911 107.041 216.684 106.989 216.5 106.882C215.568 106.353 215.263 105.635 216.16 103.194C216.537 102.329 222.991 83.6558 223.055 83.4678L223.256 82.9123H216.712L216.615 83.1843C216.56 83.3607 210.5 100.778 209.407 102.673L209.263 102.916C209.183 103.043 209.108 103.177 209.045 103.292C209.033 103.304 209.025 103.318 209.019 103.333C206.641 106.243 204.129 107.281 202.57 107.281C202.479 107.281 202.389 107.276 202.3 107.267C201.82 107.227 201.507 107.157 201.202 106.911C200.273 106.142 200.273 105.236 201.205 102.717C201.579 101.849 212.144 71.9832 212.245 71.6998L212.492 70.9939H205.954L200.495 86.5689C199.874 85.5101 198.962 84.5873 197.729 83.7686C196.162 82.7243 194.259 82.1747 192.221 82.1747C186.514 82.1747 181.037 86.242 178.269 92.5397C176.679 96.1557 175.98 99.0919 176.061 101.765C176.069 102.121 176.089 102.462 176.121 102.795C173.87 105.471 171.32 107.267 169.753 107.267C169.307 107.267 168.922 107.137 168.614 106.888C167.654 106.093 167.789 105.147 168.681 102.717C169.066 101.829 175.399 83.8033 175.46 83.6298L175.716 82.9152H169.264L167.973 86.5718C167.355 85.513 166.447 84.5931 165.205 83.7686C163.644 82.7243 161.738 82.1747 159.696 82.1747C153.987 82.1747 148.51 86.242 145.747 92.5397C144.669 94.9957 144.002 97.1537 143.709 99.1295C142.32 100.408 140.339 102.17 138.672 103.443C136.792 104.878 133.014 107.29 128.874 107.29C127.914 107.29 126.982 107.151 126.108 106.888C124.915 106.526 124.033 105.737 123.492 104.533C122.523 102.384 122.756 99.1179 124.116 95.7941C125.864 91.5301 129.182 88.7269 132.56 88.6517H132.68C135.808 88.6517 137.321 91.4462 137.358 93.3439V93.3641C137.361 93.7778 137.395 93.7778 139.186 93.7778H141.857C142.994 93.7797 143.594 93.6958 143.657 93.5261L143.76 93.2715L143.686 93.1963C143.611 89.7249 141.11 85.4493 138.2 83.8236C136.392 82.814 134.529 82.302 132.649 82.302C126.971 82.302 121.652 86.2449 118.768 92.5975C117.164 96.1325 116.471 99.7052 116.759 102.945C114.514 105.572 112.073 107.267 110.523 107.267C110.075 107.267 109.692 107.137 109.39 106.888C108.424 106.093 108.562 105.147 109.456 102.717C109.758 102.019 113.734 90.7374 116.077 84.0753L116.489 82.9152H110.037L108.749 86.5718C108.128 85.513 107.22 84.5873 105.984 83.7686C104.414 82.7243 102.508 82.1747 100.475 82.1747C94.7626 82.1747 89.2887 86.242 86.523 92.5397C85.2781 95.3804 84.5795 97.7901 84.3725 99.9916L84.0563 100.032C82.0668 100.171 79.1918 100.504 77.8578 100.692C77.9757 100.356 78.1626 99.8122 78.43 99.0225C79.4879 95.9416 81.4515 90.2051 83.0874 85.5998L88.3112 70.8984H82.0237L62.4941 85.9527L66.1539 91.0932L77.924 81.978L71.004 101.869C63.9603 103.362 57.5032 105.962 52.3311 109.411C47.1735 112.841 43.2463 117.132 40.9693 121.812C38.7211 126.432 38.379 131.014 40.0062 134.708C41.7887 138.758 45.1121 140.997 49.367 140.997C52.7336 140.997 56.4193 139.513 59.484 136.927C65.1678 132.137 70.705 121.948 75.5033 107.461C75.5608 107.284 75.6096 107.128 75.6556 107.007C77.533 106.648 80.0629 106.31 82.3054 106.023C82.3284 106.02 82.3457 106.012 82.3658 106.009C82.5756 105.986 82.6475 105.78 82.8459 105.257C83.0701 104.672 83.4841 103.498 84.3092 101.172C84.3064 101.374 84.3064 101.574 84.3121 101.768C84.4789 108.242 88.4233 111.719 90.729 112.746C92.3476 113.475 94.0525 113.842 95.7976 113.842C98.9629 113.842 102.134 112.584 104.351 110.461C104.788 111.117 105.742 112.254 107.467 113.035C108.344 113.437 109.301 113.64 110.316 113.64C113.062 113.64 116.215 112.092 119.013 109.385C120.102 110.938 121.543 112.139 123.193 112.859C124.676 113.507 126.355 113.837 128.19 113.837C133.008 113.837 137.355 111.632 139 110.683C140.822 109.633 142.783 108.251 144.548 106.761C145.859 109.969 148.176 111.953 149.956 112.743C151.572 113.472 153.277 113.84 155.022 113.84C158.187 113.84 161.358 112.581 163.575 110.458C164.009 111.114 164.966 112.251 166.688 113.032C167.565 113.435 168.528 113.637 169.54 113.637C172.355 113.637 175.566 112.032 178.407 109.217C179.516 110.79 181.02 112.095 182.472 112.743C184.09 113.472 185.795 113.84 187.54 113.84C190.703 113.84 193.877 112.581 196.096 110.464C196.231 110.666 196.415 110.912 196.654 111.178C197.447 112.139 198.324 112.833 199.256 113.246C200.087 113.614 201.064 113.808 202.246 113.84H202.447C205.123 113.84 208.165 112.607 210.824 110.446C211.595 111.543 213.104 113.2 215.367 113.62C215.916 113.718 216.465 113.77 217.011 113.77C220.907 113.77 224.739 111.282 228.727 106.171L229 105.815L224.874 101.152L224.877 101.149Z" fill="#001A4B"/>
<path d="M148.125 133.082H143.625V127.71H148.07C149.812 127.71 150.853 128.564 150.853 130.398C150.853 132.108 149.7 133.082 148.128 133.082M152.564 130.398C152.564 127.794 150.922 125.989 148.073 125.989H141.921V140.549H143.628V134.795H148.096C150.195 134.795 150.451 136.048 150.451 136.991V140.549H152.121V136.991C152.121 135.541 151.624 134.514 150.672 133.95C151.865 133.192 152.564 131.96 152.564 130.395" fill="#001A4B"/>
<path d="M119.723 134.656L121.991 128.156L124.228 134.656H119.723ZM121.071 125.989L115.819 140.549H117.644L119.151 136.331H124.774L126.241 140.549H128.135L122.989 125.989H121.071Z" fill="#001A4B"/>
</svg>
