<svg width="269" height="200" viewBox="0 0 269 200" fill="none" xmlns="http://www.w3.org/2000/svg">
<path d="M193.513 133.772C192.854 133.751 191.992 133.462 191.326 133.209C191.053 132.455 190.303 131.518 190.128 130.849C189.827 129.849 190.058 128.574 189.532 127.701C189.063 126.961 188.6 126.405 188.201 125.482C187.584 124.052 187.843 122.777 187.388 121.58C186.61 119.572 185.355 117.854 184.893 117.389C184.381 116.875 183.421 112.585 179.027 112.43C175.032 112.289 168.732 117.797 166.693 120.699C166.363 118.157 166.111 115.586 165.368 113.36C163.917 108.986 164.149 110.564 162.726 109.352C161.801 108.571 161.198 108.113 160.028 107.81C158.101 107.317 156.867 108.021 155.024 108.768C153.461 109.395 152.529 110.465 151.345 111.029C150.609 111.74 149.831 112.48 148.871 112.966C148.464 111.705 148.422 110.338 148.191 109.402C147.96 108.472 146.866 107.669 146.299 106.408C146.025 105.795 146.032 105.373 145.703 104.788C144.54 102.724 142.612 102.471 140.279 102.112C136.971 101.598 134.988 102.936 132.051 104.549C129.675 105.852 127.44 106.965 126.613 108.88C125.954 110.402 124.538 111.719 123.838 113.015C122.849 114.867 122.008 117.023 121.258 119.016C120.032 122.228 119.387 125.482 118.504 128.433C118.448 129.954 118.953 129.75 119.513 130.807C120.859 131.243 122.436 132.089 123.095 132.11C123.746 132.131 124.349 131.617 125.092 131.25C125.512 130.264 125.653 129.18 125.905 128.426C126.192 127.616 127.215 126.715 127.405 125.996C127.811 124.566 127.979 122.629 128.519 121.136C129.108 119.537 130.278 117.896 131.399 116.156C131.504 115.987 131.427 115.367 131.603 115.198C132.878 113.952 134.069 112.451 135.31 111.472C135.716 111.155 136.424 111.268 136.55 111.078C136.985 110.409 139.333 109.465 139.683 109.993C140.391 111.036 140.853 111.937 141.26 112.888C141.561 113.6 141.33 114.536 141.603 115.17C141.814 115.67 142.297 115.635 142.276 116.29C142.248 116.952 143.026 132.532 143.292 134.188C143.404 134.913 143.706 135.603 143.706 136.202C145.374 136.963 146.775 137.949 148.611 138.012C149.628 138.04 149.452 137.364 151.015 136.449C151.015 136.449 150.945 133.364 151.183 131.405C151.597 128.025 153.566 123.679 153.594 123.017C153.622 122.164 155.241 117.135 157.337 117.213C157.988 117.234 158.549 117.762 158.836 117.988C158.963 119.523 158.977 121.249 159.467 122.39C160.035 123.791 159.923 126.074 160.315 127.933C160.511 128.898 161.212 130.243 161.191 130.898L161.065 134.66C161.037 135.315 161.282 135.97 161.345 136.336C162.025 137.188 162.859 138.794 163.672 139.224C164.443 139.611 165.831 139.956 166.686 140.992L168.15 141.048C168.206 140.675 168.606 141.083 168.606 141.083C168.725 140.696 169.447 140.907 169.475 140.548C169.538 139.928 169.965 139.548 169.965 139.548C170.912 134.293 171.22 131.412 173.722 126.94C174.219 126.038 174.535 125.545 175.109 124.686C175.852 123.559 176.925 122.193 177.121 121.862C178.515 123.968 179.889 125.672 181.41 128.271C183.323 131.56 184.514 134.441 185.643 137.075C186.028 137.97 187.262 138.864 188.516 139.724C190.668 141.196 192.336 141.914 194.795 141.999C197.515 142.097 198.489 135.984 196.288 133.173C195.286 133.589 194.158 133.807 193.506 133.779" fill="white"/>
<path d="M116.662 132.593C115.412 132.284 113.54 131.737 112.304 130.795C111.887 130.03 111.329 129.433 111.216 129.054C110.037 126.209 110.051 125.725 110.051 123.519C110.051 122.866 110.517 121.413 110.312 115.373C110.277 114.052 109.775 112.444 109.408 111.278C108.97 110.576 107.19 110.295 106.498 110C104.343 110.253 104.195 110.295 103.877 110C102.959 110.063 101.836 111.896 101.412 112.627C100.698 112.367 100.204 111.854 99.6529 111.482C97.5126 111.046 96.9122 110.358 95.0686 110.176C93.1331 109.979 91.3531 110.281 90.1028 110.59C83.8585 112.135 77.5223 120.521 78.9139 129.594C78.9774 130.086 78.6031 130.557 78.3488 130.971C77.5364 131.673 72.5 134.005 72.5 135.88C72.5 136.54 73.3053 136.99 73.5596 137.439C73.3335 137.629 74.2871 140.22 76.597 140.22C78.1157 140.22 82.5234 135.95 83.47 135.227C85.1723 136.611 87.2632 137.453 88.7748 138.008C89.9686 138.43 91.6144 138.373 93.013 138.9C93.345 138.598 93.5004 138.64 95.895 138.9C99.7801 138.5 103.354 138.036 105.134 134.167C105.283 135.122 106.095 135.957 106.816 136.92C108.002 137.566 109.514 138.781 110.439 139.307C111.859 140.059 117.446 141 118.103 141C122.999 141 119.304 133.246 116.648 132.593M101.037 125.156C100.486 125.725 100.543 126.898 99.8719 127.811C98.7276 129.384 97.3996 130.29 95.6407 130.486C92.7376 130.816 91.3743 129.953 90.0675 129.742C89.6931 129.103 88.0896 128.12 88.0896 127.466C88.0896 124.938 89.1492 119.91 93.0484 119.109C93.7123 118.709 96.9475 118.926 97.6115 118.926C98.2755 118.926 99.6459 119.72 101.03 120.296V125.156H101.037Z" fill="white"/>
<path d="M111.101 60.4739C112.037 60.4739 112.916 60.4243 116.669 60.4173V94.5757C112.916 94.5686 112.037 94.512 111.101 94.512C110.165 94.512 109.5 95.3256 109.5 96.2878C109.5 97.3066 110.2 98 111.101 98C112.28 98 113.574 97.6958 119.449 97.6958H121.736C127.49 97.6958 128.912 98 130.084 98C130.978 98 131.685 97.3066 131.685 96.2878C131.685 95.3327 131.035 94.512 130.084 94.512C129.041 94.512 127.826 94.5686 124.452 94.5757V81.4726H128.04C137.225 81.4726 143.5 76.6616 143.5 69.3035C143.5 61.9455 137.217 57.1769 128.04 57.1769C123.959 57.1769 121.608 57.3042 119.449 57.3042C113.574 57.3042 112.28 57 111.101 57C110.179 57 109.5 57.7783 109.5 58.7051C109.5 59.6319 110.158 60.4809 111.101 60.4809M124.452 60.7922H128.04C133.787 60.7922 135.717 62.745 135.717 69.3035C135.717 75.8621 133.787 77.928 128.04 77.928H124.452V60.7852V60.7922Z" fill="white"/>
<path d="M82.833 97.6958C87.8269 97.6958 89.8413 97.9363 92.4615 97.9363C101.71 97.9363 110.5 89.6373 110.5 77.4965C110.5 65.3557 101.703 57.1203 92.4615 57.1203C89.785 57.1203 87.5874 57.3042 82.833 57.3042H81.3116C75.5219 57.3042 74.2399 57 73.0848 57C72.1762 57 71.5 57.7783 71.5 58.7051C71.5 59.6319 72.148 60.4809 73.0848 60.4809C74.0216 60.4809 74.8738 60.4243 78.5717 60.4173V94.5757C74.8738 94.5757 74.0075 94.512 73.0848 94.512C72.1621 94.512 71.5 95.3256 71.5 96.2878C71.5 97.3066 72.1973 98 73.0848 98C74.2399 98 75.5148 97.6958 81.3116 97.6958H82.833ZM86.2421 60.8842C87.2986 60.8488 89.5807 60.7922 92.4615 60.7922C98.7937 60.7922 102.027 64.4571 102.027 77.4965C102.027 90.5358 98.7866 94.2078 92.4615 94.2078C89.3906 94.2078 87.2423 94.1441 86.2421 94.1158V60.8842Z" fill="white"/>
<path d="M155.5 93C155.5 96.3156 153.036 99 150 99C146.964 99 144.5 96.3156 144.5 93C144.5 89.6844 146.964 87 150 87C153.036 87 155.5 89.6844 155.5 93Z" fill="white"/>
<path d="M173.5 93C173.5 96.3156 170.81 99 167.504 99C164.197 99 161.5 96.3156 161.5 93C161.5 89.6844 164.183 87 167.504 87C170.824 87 173.5 89.6844 173.5 93Z" fill="white"/>
<path d="M190.5 93C190.5 96.3156 188.036 99 185 99C181.964 99 179.5 96.3156 179.5 93C179.5 89.6844 181.964 87 185 87C188.036 87 190.5 89.6844 190.5 93Z" fill="white"/>
<path d="M193.513 133.772C192.854 133.751 191.992 133.462 191.326 133.209C191.053 132.455 190.303 131.518 190.128 130.849C189.827 129.849 190.058 128.574 189.532 127.701C189.063 126.961 188.6 126.405 188.201 125.482C187.584 124.052 187.843 122.777 187.388 121.58C186.61 119.572 185.355 117.854 184.893 117.389C184.381 116.875 183.421 112.585 179.027 112.43C175.032 112.289 168.732 117.797 166.693 120.699C166.363 118.157 166.111 115.586 165.368 113.36C163.917 108.986 164.149 110.564 162.726 109.352C161.801 108.571 161.198 108.113 160.028 107.81C158.101 107.317 156.867 108.021 155.024 108.768C153.461 109.395 152.529 110.465 151.345 111.029C150.609 111.74 149.831 112.48 148.871 112.966C148.464 111.705 148.422 110.338 148.191 109.402C147.96 108.472 146.866 107.669 146.299 106.408C146.025 105.795 146.032 105.373 145.703 104.788C144.54 102.724 142.612 102.471 140.279 102.112C136.971 101.598 134.988 102.936 132.051 104.549C129.675 105.852 127.44 106.965 126.613 108.88C125.954 110.402 124.538 111.719 123.838 113.015C122.849 114.867 122.008 117.023 121.258 119.016C120.032 122.228 119.387 125.482 118.504 128.433C118.448 129.954 118.953 129.75 119.513 130.807C120.859 131.243 122.436 132.089 123.095 132.11C123.746 132.131 124.349 131.617 125.092 131.25C125.512 130.264 125.653 129.18 125.905 128.426C126.192 127.616 127.215 126.715 127.405 125.996C127.811 124.566 127.979 122.629 128.519 121.136C129.108 119.537 130.278 117.896 131.399 116.156C131.504 115.987 131.427 115.367 131.603 115.198C132.878 113.952 134.069 112.451 135.31 111.472C135.716 111.155 136.424 111.268 136.55 111.078C136.985 110.409 139.333 109.465 139.683 109.993C140.391 111.036 140.853 111.937 141.26 112.888C141.561 113.6 141.33 114.536 141.603 115.17C141.814 115.67 142.297 115.635 142.276 116.29C142.248 116.952 143.026 132.532 143.292 134.188C143.404 134.913 143.706 135.603 143.706 136.202C145.374 136.963 146.775 137.949 148.611 138.012C149.628 138.04 149.452 137.364 151.015 136.449C151.015 136.449 150.945 133.364 151.183 131.405C151.597 128.025 153.566 123.679 153.594 123.017C153.622 122.164 155.241 117.135 157.337 117.213C157.988 117.234 158.549 117.762 158.836 117.988C158.963 119.523 158.977 121.249 159.467 122.39C160.035 123.791 159.923 126.074 160.315 127.933C160.511 128.898 161.212 130.243 161.191 130.898L161.065 134.66C161.037 135.315 161.282 135.97 161.345 136.336C162.025 137.188 162.859 138.794 163.672 139.224C164.443 139.611 165.831 139.956 166.686 140.992L168.15 141.048C168.206 140.675 168.606 141.083 168.606 141.083C168.725 140.696 169.447 140.907 169.475 140.548C169.538 139.928 169.965 139.548 169.965 139.548C170.912 134.293 171.22 131.412 173.722 126.94C174.219 126.038 174.535 125.545 175.109 124.686C175.852 123.559 176.925 122.193 177.121 121.862C178.515 123.968 179.889 125.672 181.41 128.271C183.323 131.56 184.514 134.441 185.643 137.075C186.028 137.97 187.262 138.864 188.516 139.724C190.668 141.196 192.336 141.914 194.795 141.999C197.515 142.097 198.489 135.984 196.288 133.173C195.286 133.589 194.158 133.807 193.506 133.779" fill="white"/>
<path d="M116.662 132.593C115.412 132.284 113.54 131.737 112.304 130.795C111.887 130.03 111.329 129.433 111.216 129.054C110.037 126.209 110.051 125.725 110.051 123.519C110.051 122.866 110.517 121.413 110.312 115.373C110.277 114.052 109.775 112.444 109.408 111.278C108.97 110.576 107.19 110.295 106.498 110C104.343 110.253 104.195 110.295 103.877 110C102.959 110.063 101.836 111.896 101.412 112.627C100.698 112.367 100.204 111.854 99.6529 111.482C97.5126 111.046 96.9122 110.358 95.0686 110.176C93.1331 109.979 91.3531 110.281 90.1028 110.59C83.8585 112.135 77.5223 120.521 78.9139 129.594C78.9774 130.086 78.6031 130.557 78.3488 130.971C77.5364 131.673 72.5 134.005 72.5 135.88C72.5 136.54 73.3053 136.99 73.5596 137.439C73.3335 137.629 74.2871 140.22 76.597 140.22C78.1157 140.22 82.5234 135.95 83.47 135.227C85.1723 136.611 87.2632 137.453 88.7748 138.008C89.9686 138.43 91.6144 138.373 93.013 138.9C93.345 138.598 93.5004 138.64 95.895 138.9C99.7801 138.5 103.354 138.036 105.134 134.167C105.283 135.122 106.095 135.957 106.816 136.92C108.002 137.566 109.514 138.781 110.439 139.307C111.859 140.059 117.446 141 118.103 141C122.999 141 119.304 133.246 116.648 132.593M101.037 125.156C100.486 125.725 100.543 126.898 99.8719 127.811C98.7276 129.384 97.3996 130.29 95.6407 130.486C92.7376 130.816 91.3743 129.953 90.0675 129.742C89.6931 129.103 88.0896 128.12 88.0896 127.466C88.0896 124.938 89.1492 119.91 93.0484 119.109C93.7123 118.709 96.9475 118.926 97.6115 118.926C98.2755 118.926 99.6459 119.72 101.03 120.296V125.156H101.037Z" fill="white"/>
<path d="M111.101 60.4739C112.037 60.4739 112.916 60.4243 116.669 60.4173V94.5757C112.916 94.5686 112.037 94.512 111.101 94.512C110.165 94.512 109.5 95.3256 109.5 96.2878C109.5 97.3066 110.2 98 111.101 98C112.28 98 113.574 97.6958 119.449 97.6958H121.736C127.49 97.6958 128.912 98 130.084 98C130.978 98 131.685 97.3066 131.685 96.2878C131.685 95.3327 131.035 94.512 130.084 94.512C129.041 94.512 127.826 94.5686 124.452 94.5757V81.4726H128.04C137.225 81.4726 143.5 76.6616 143.5 69.3035C143.5 61.9455 137.217 57.1769 128.04 57.1769C123.959 57.1769 121.608 57.3042 119.449 57.3042C113.574 57.3042 112.28 57 111.101 57C110.179 57 109.5 57.7783 109.5 58.7051C109.5 59.6319 110.158 60.4809 111.101 60.4809M124.452 60.7922H128.04C133.787 60.7922 135.717 62.745 135.717 69.3035C135.717 75.8621 133.787 77.928 128.04 77.928H124.452V60.7852V60.7922Z" fill="white"/>
<path d="M82.833 97.6958C87.8269 97.6958 89.8413 97.9363 92.4615 97.9363C101.71 97.9363 110.5 89.6373 110.5 77.4965C110.5 65.3557 101.703 57.1203 92.4615 57.1203C89.785 57.1203 87.5874 57.3042 82.833 57.3042H81.3116C75.5219 57.3042 74.2399 57 73.0848 57C72.1762 57 71.5 57.7783 71.5 58.7051C71.5 59.6319 72.148 60.4809 73.0848 60.4809C74.0216 60.4809 74.8738 60.4243 78.5717 60.4173V94.5757C74.8738 94.5757 74.0075 94.512 73.0848 94.512C72.1621 94.512 71.5 95.3256 71.5 96.2878C71.5 97.3066 72.1973 98 73.0848 98C74.2399 98 75.5148 97.6958 81.3116 97.6958H82.833ZM86.2421 60.8842C87.2986 60.8488 89.5807 60.7922 92.4615 60.7922C98.7937 60.7922 102.027 64.4571 102.027 77.4965C102.027 90.5358 98.7866 94.2078 92.4615 94.2078C89.3906 94.2078 87.2423 94.1441 86.2421 94.1158V60.8842Z" fill="white"/>
<path d="M155.5 93C155.5 96.3156 153.036 99 150 99C146.964 99 144.5 96.3156 144.5 93C144.5 89.6844 146.964 87 150 87C153.036 87 155.5 89.6844 155.5 93Z" fill="white"/>
<path d="M173.5 93C173.5 96.3156 170.81 99 167.504 99C164.197 99 161.5 96.3156 161.5 93C161.5 89.6844 164.183 87 167.504 87C170.824 87 173.5 89.6844 173.5 93Z" fill="white"/>
<path d="M190.5 93C190.5 96.3156 188.036 99 185 99C181.964 99 179.5 96.3156 179.5 93C179.5 89.6844 181.964 87 185 87C188.036 87 190.5 89.6844 190.5 93Z" fill="white"/>
<path d="M193.513 133.772C192.854 133.751 191.992 133.462 191.326 133.209C191.053 132.455 190.303 131.518 190.128 130.849C189.827 129.849 190.058 128.574 189.532 127.701C189.063 126.961 188.6 126.405 188.201 125.482C187.584 124.052 187.843 122.777 187.388 121.58C186.61 119.572 185.355 117.854 184.893 117.389C184.381 116.875 183.421 112.585 179.027 112.43C175.032 112.289 168.732 117.797 166.693 120.699C166.363 118.157 166.111 115.586 165.368 113.36C163.917 108.986 164.149 110.564 162.726 109.352C161.801 108.571 161.198 108.113 160.028 107.81C158.101 107.317 156.867 108.021 155.024 108.768C153.461 109.395 152.529 110.465 151.345 111.029C150.609 111.74 149.831 112.48 148.871 112.966C148.464 111.705 148.422 110.338 148.191 109.402C147.96 108.472 146.866 107.669 146.299 106.408C146.025 105.795 146.032 105.373 145.703 104.788C144.54 102.724 142.612 102.471 140.279 102.112C136.971 101.598 134.988 102.936 132.051 104.549C129.675 105.852 127.44 106.965 126.613 108.88C125.954 110.402 124.538 111.719 123.838 113.015C122.849 114.867 122.008 117.023 121.258 119.016C120.032 122.228 119.387 125.482 118.504 128.433C118.448 129.954 118.953 129.75 119.513 130.807C120.859 131.243 122.436 132.089 123.095 132.11C123.746 132.131 124.349 131.617 125.092 131.25C125.512 130.264 125.653 129.18 125.905 128.426C126.192 127.616 127.215 126.715 127.405 125.996C127.811 124.566 127.979 122.629 128.519 121.136C129.108 119.537 130.278 117.896 131.399 116.156C131.504 115.987 131.427 115.367 131.603 115.198C132.878 113.952 134.069 112.451 135.31 111.472C135.716 111.155 136.424 111.268 136.55 111.078C136.985 110.409 139.333 109.465 139.683 109.993C140.391 111.036 140.853 111.937 141.26 112.888C141.561 113.6 141.33 114.536 141.603 115.17C141.814 115.67 142.297 115.635 142.276 116.29C142.248 116.952 143.026 132.532 143.292 134.188C143.404 134.913 143.706 135.603 143.706 136.202C145.374 136.963 146.775 137.949 148.611 138.012C149.628 138.04 149.452 137.364 151.015 136.449C151.015 136.449 150.945 133.364 151.183 131.405C151.597 128.025 153.566 123.679 153.594 123.017C153.622 122.164 155.241 117.135 157.337 117.213C157.988 117.234 158.549 117.762 158.836 117.988C158.963 119.523 158.977 121.249 159.467 122.39C160.035 123.791 159.923 126.074 160.315 127.933C160.511 128.898 161.212 130.243 161.191 130.898L161.065 134.66C161.037 135.315 161.282 135.97 161.345 136.336C162.025 137.188 162.859 138.794 163.672 139.224C164.443 139.611 165.831 139.956 166.686 140.992L168.15 141.048C168.206 140.675 168.606 141.083 168.606 141.083C168.725 140.696 169.447 140.907 169.475 140.548C169.538 139.928 169.965 139.548 169.965 139.548C170.912 134.293 171.22 131.412 173.722 126.94C174.219 126.038 174.535 125.545 175.109 124.686C175.852 123.559 176.925 122.193 177.121 121.862C178.515 123.968 179.889 125.672 181.41 128.271C183.323 131.56 184.514 134.441 185.643 137.075C186.028 137.97 187.262 138.864 188.516 139.724C190.668 141.196 192.336 141.914 194.795 141.999C197.515 142.097 198.489 135.984 196.288 133.173C195.286 133.589 194.158 133.807 193.506 133.779" fill="white"/>
<path d="M116.662 132.593C115.412 132.284 113.54 131.737 112.304 130.795C111.887 130.03 111.329 129.433 111.216 129.054C110.037 126.209 110.051 125.725 110.051 123.519C110.051 122.866 110.517 121.413 110.312 115.373C110.277 114.052 109.775 112.444 109.408 111.278C108.97 110.576 107.19 110.295 106.498 110C104.343 110.253 104.195 110.295 103.877 110C102.959 110.063 101.836 111.896 101.412 112.627C100.698 112.367 100.204 111.854 99.6529 111.482C97.5126 111.046 96.9122 110.358 95.0686 110.176C93.1331 109.979 91.3531 110.281 90.1028 110.59C83.8585 112.135 77.5223 120.521 78.9139 129.594C78.9774 130.086 78.6031 130.557 78.3488 130.971C77.5364 131.673 72.5 134.005 72.5 135.88C72.5 136.54 73.3053 136.99 73.5596 137.439C73.3335 137.629 74.2871 140.22 76.597 140.22C78.1157 140.22 82.5234 135.95 83.47 135.227C85.1723 136.611 87.2632 137.453 88.7748 138.008C89.9686 138.43 91.6144 138.373 93.013 138.9C93.345 138.598 93.5004 138.64 95.895 138.9C99.7801 138.5 103.354 138.036 105.134 134.167C105.283 135.122 106.095 135.957 106.816 136.92C108.002 137.566 109.514 138.781 110.439 139.307C111.859 140.059 117.446 141 118.103 141C122.999 141 119.304 133.246 116.648 132.593M101.037 125.156C100.486 125.725 100.543 126.898 99.8719 127.811C98.7276 129.384 97.3996 130.29 95.6407 130.486C92.7376 130.816 91.3743 129.953 90.0675 129.742C89.6931 129.103 88.0896 128.12 88.0896 127.466C88.0896 124.938 89.1492 119.91 93.0484 119.109C93.7123 118.709 96.9475 118.926 97.6115 118.926C98.2755 118.926 99.6459 119.72 101.03 120.296V125.156H101.037Z" fill="white"/>
<path d="M111.101 60.4739C112.037 60.4739 112.916 60.4243 116.669 60.4173V94.5757C112.916 94.5686 112.037 94.512 111.101 94.512C110.165 94.512 109.5 95.3256 109.5 96.2878C109.5 97.3066 110.2 98 111.101 98C112.28 98 113.574 97.6958 119.449 97.6958H121.736C127.49 97.6958 128.912 98 130.084 98C130.978 98 131.685 97.3066 131.685 96.2878C131.685 95.3327 131.035 94.512 130.084 94.512C129.041 94.512 127.826 94.5686 124.452 94.5757V81.4726H128.04C137.225 81.4726 143.5 76.6616 143.5 69.3035C143.5 61.9455 137.217 57.1769 128.04 57.1769C123.959 57.1769 121.608 57.3042 119.449 57.3042C113.574 57.3042 112.28 57 111.101 57C110.179 57 109.5 57.7783 109.5 58.7051C109.5 59.6319 110.158 60.4809 111.101 60.4809M124.452 60.7922H128.04C133.787 60.7922 135.717 62.745 135.717 69.3035C135.717 75.8621 133.787 77.928 128.04 77.928H124.452V60.7852V60.7922Z" fill="white"/>
<path d="M82.833 97.6958C87.8269 97.6958 89.8413 97.9363 92.4615 97.9363C101.71 97.9363 110.5 89.6373 110.5 77.4965C110.5 65.3557 101.703 57.1203 92.4615 57.1203C89.785 57.1203 87.5874 57.3042 82.833 57.3042H81.3116C75.5219 57.3042 74.2399 57 73.0848 57C72.1762 57 71.5 57.7783 71.5 58.7051C71.5 59.6319 72.148 60.4809 73.0848 60.4809C74.0216 60.4809 74.8738 60.4243 78.5717 60.4173V94.5757C74.8738 94.5757 74.0075 94.512 73.0848 94.512C72.1621 94.512 71.5 95.3256 71.5 96.2878C71.5 97.3066 72.1973 98 73.0848 98C74.2399 98 75.5148 97.6958 81.3116 97.6958H82.833ZM86.2421 60.8842C87.2986 60.8488 89.5807 60.7922 92.4615 60.7922C98.7937 60.7922 102.027 64.4571 102.027 77.4965C102.027 90.5358 98.7866 94.2078 92.4615 94.2078C89.3906 94.2078 87.2423 94.1441 86.2421 94.1158V60.8842Z" fill="white"/>
<path d="M155.5 93C155.5 96.3156 153.036 99 150 99C146.964 99 144.5 96.3156 144.5 93C144.5 89.6844 146.964 87 150 87C153.036 87 155.5 89.6844 155.5 93Z" fill="white"/>
<path d="M173.5 93C173.5 96.3156 170.81 99 167.504 99C164.197 99 161.5 96.3156 161.5 93C161.5 89.6844 164.183 87 167.504 87C170.824 87 173.5 89.6844 173.5 93Z" fill="white"/>
<path d="M190.5 93C190.5 96.3156 188.036 99 185 99C181.964 99 179.5 96.3156 179.5 93C179.5 89.6844 181.964 87 185 87C188.036 87 190.5 89.6844 190.5 93Z" fill="white"/>
</svg>
