<svg width="210" height="157" viewBox="0 0 210 157" fill="none" xmlns="http://www.w3.org/2000/svg">
<path d="M131.681 72.001V92.4328C131.681 93.4337 132.467 94.2074 133.487 94.2074C134.507 94.2074 135.245 93.4337 135.245 92.4328V72.001C135.245 71.0001 134.458 70.2264 133.441 70.2264C132.425 70.2264 131.683 71.045 131.683 72.001M22.8873 82.2869C22.8873 87.9778 19.0847 91.3448 14.4472 91.3448C9.80962 91.3448 5.77686 87.7031 5.77686 82.2393V82.1495C5.77686 76.7782 9.99426 73.089 14.4472 73.089C18.9 73.089 22.8873 76.6409 22.8873 82.1944V82.2869ZM26.5427 82.242V82.1522C26.5427 74.412 20.8455 69.957 15.0974 69.957C10.6927 69.957 7.86415 72.3654 5.91601 75.1858V62.3066C5.91601 61.3058 5.12927 60.532 4.11238 60.532C3.09549 60.532 2.35156 61.3058 2.35156 62.3066V92.4328C2.35156 93.3888 3.13831 94.2074 4.1552 94.2074C5.17208 94.2074 5.91334 93.3888 5.91334 92.4328V89.4725C7.76782 92.1159 10.6445 94.4794 15.0947 94.4794C20.891 94.4794 26.5401 89.932 26.5401 82.2393M52.2271 82.3318C52.2271 87.2938 48.6118 91.3923 43.4177 91.3923C38.2235 91.3923 34.5601 87.2938 34.5601 82.242V82.1522C34.5601 77.1901 38.1299 73.0467 43.324 73.0467C48.5182 73.0467 52.2271 77.1901 52.2271 82.2446V82.337V82.3318ZM55.8826 82.2393V82.1495C55.8826 75.5027 50.6028 69.9544 43.415 69.9544C36.2272 69.9544 30.902 75.5925 30.902 82.2393V82.3318C30.902 88.9786 36.1336 94.5269 43.3214 94.5269C50.5091 94.5269 55.8799 88.8888 55.8799 82.242M81.7516 82.2869C81.7516 87.9778 77.949 91.3448 73.3115 91.3448C68.6739 91.3448 64.6412 87.7031 64.6412 82.2393V82.1495C64.6412 76.7782 68.8612 73.089 73.3115 73.089C77.7617 73.089 81.7516 76.6409 81.7516 82.1944V82.2869ZM85.407 82.242V82.1522C85.407 74.412 79.7098 69.957 73.9617 69.957C69.557 69.957 66.7258 72.3654 64.7803 75.1858V62.3066C64.7803 61.3058 63.9936 60.532 62.974 60.532C61.9544 60.532 61.2159 61.3058 61.2159 62.3066V92.4328C61.2159 93.3888 62.0026 94.2074 63.0222 94.2074C64.0417 94.2074 64.7803 93.3888 64.7803 92.4328V89.4725C66.6348 92.1159 69.5088 94.4794 73.9617 94.4794C79.758 94.4794 85.407 89.932 85.407 82.2393M110.907 82.3318C110.907 87.2938 107.289 91.3923 102.097 91.3923C96.9059 91.3923 93.2397 87.2938 93.2397 82.242V82.1522C93.2397 77.1901 96.8095 73.0467 102.004 73.0467C107.198 73.0467 110.907 77.1901 110.907 82.2446V82.337V82.3318ZM114.562 82.2393V82.1495C114.562 75.5027 109.285 69.9544 102.097 69.9544C94.9096 69.9544 89.5843 75.5925 89.5843 82.2393V82.3318C89.5843 88.9786 94.8186 94.5269 102.004 94.5269C109.189 94.5269 114.562 88.8888 114.562 82.242M123.971 92.4354V62.3013C123.971 61.3454 123.184 60.5267 122.167 60.5267C121.151 60.5267 120.409 61.3454 120.409 62.3013V92.4328C120.409 93.4337 121.196 94.2074 122.216 94.2074C123.235 94.2074 123.974 93.4337 123.974 92.4328M135.561 63.6693V63.0777C135.561 61.9422 134.635 61.2133 133.433 61.2133C132.232 61.2133 131.349 61.9396 131.349 63.0777V63.6693C131.349 64.7599 132.275 65.5337 133.433 65.5337C134.592 65.5337 135.561 64.7599 135.561 63.6693Z" fill="white"/>
<path d="M196.922 83.8529C197.375 82.1417 197.616 80.3486 197.616 78.5001C197.616 66.7934 187.998 57.3051 176.138 57.3051C164.278 57.3051 154.66 66.7934 154.66 78.5001C154.66 90.2067 164.275 99.6951 176.138 99.6951C182.116 99.6951 187.524 97.284 191.415 93.3941C191.281 92.8105 191.204 92.2058 191.204 91.5825C191.204 87.962 193.607 84.8987 196.925 83.8529" fill="white"/>
<path d="M207.651 91.5799C207.651 87.0985 203.972 83.4647 199.43 83.4647C194.889 83.4647 191.207 87.0985 191.207 91.5799C191.207 96.0613 194.889 99.695 199.43 99.695C203.972 99.695 207.651 96.0613 207.651 91.5799Z" fill="white"/>
</svg>
